<svg id="Layer_1" data-name="Layer 1" xmlns="http://www.w3.org/2000/svg" viewBox="0 0 1080 1080"><defs><style>.cls-1{fill:#0025a5;}.cls-2{fill:#ee001a;}</style></defs><path class="cls-1" d="M352.65,458.84H260.83v151.4a10.9,10.9,0,0,0,18.08,8.2L329.79,574h22.86A57.56,57.56,0,0,0,410.2,516.4h0A57.56,57.56,0,0,0,352.65,458.84Zm-42.76,63.25a11.31,11.31,0,1,1-4-15.49A11.31,11.31,0,0,1,309.89,522.09Zm35.35,0a11.31,11.31,0,1,1-4-15.49A11.31,11.31,0,0,1,345.24,522.09Zm35.35,0a11.3,11.3,0,1,1-3.95-15.49A11.31,11.31,0,0,1,380.59,522.09Z"/><path class="cls-2" d="M474.16,567.9q-4.73,0-6.72-1.42A5.62,5.62,0,0,1,465,562.8a24.91,24.91,0,0,1-.42-4.57V504a24.13,24.13,0,0,1,.42-4.52,5.64,5.64,0,0,1,2.42-3.63c1.33-.94,3.6-1.42,6.83-1.42h20.91a26.25,26.25,0,0,1,8.62,1.63,29.64,29.64,0,0,1,8.77,5,26.37,26.37,0,0,1,6.78,8.41,26.11,26.11,0,0,1-6.78,32.21,29.91,29.91,0,0,1-8.77,4.94,26.24,26.24,0,0,1-8.73,1.63H483.83v10.09a24.13,24.13,0,0,1-.42,4.52,5.63,5.63,0,0,1-2.42,3.62Q479,567.91,474.16,567.9ZM483.83,529h11.35a8.91,8.91,0,0,0,3.15-.69,7.55,7.55,0,0,0,3.16-2.36,7.12,7.12,0,0,0,1.36-4.62,7.44,7.44,0,0,0-1.05-3.94,7.58,7.58,0,0,0-6.73-3.73H483.83Z"/><path class="cls-2" d="M536.69,567.9c-3.15,0-5.4-.47-6.73-1.42a5.64,5.64,0,0,1-2.41-3.68,24.91,24.91,0,0,1-.42-4.57V504a24.13,24.13,0,0,1,.42-4.52,5.66,5.66,0,0,1,2.41-3.63c1.33-.94,3.61-1.42,6.83-1.42h21.13a26.15,26.15,0,0,1,8.61,1.63,29,29,0,0,1,8.73,5,26.75,26.75,0,0,1,6.72,8.41,25.64,25.64,0,0,1,2.63,12,27.94,27.94,0,0,1-1.42,9,24.28,24.28,0,0,1-4.2,7.62,29.25,29.25,0,0,1-6.73,6,33.33,33.33,0,0,1-9,4H546.36v10.2a24.13,24.13,0,0,1-.42,4.52,5.63,5.63,0,0,1-2.42,3.62Q541.53,567.91,536.69,567.9ZM546.36,529h11.56a8.44,8.44,0,0,0,2.26-.37,7.15,7.15,0,0,0,2.47-1.26,7.3,7.3,0,0,0,1.94-2.37,7.64,7.64,0,0,0,.79-3.67,7.44,7.44,0,0,0-1-3.94,7.71,7.71,0,0,0-2.79-2.74,7.57,7.57,0,0,0-3.83-1H546.36Zm34.36,36.36q-4.72,3.57-7.46,2.89c-1.82-.46-3.78-2.08-5.88-4.89L548,537.11l21.86-2.73,13,17.55a18.36,18.36,0,0,1,2.68,5.15,4.9,4.9,0,0,1-.58,4A17.62,17.62,0,0,1,580.72,565.38Z"/><path class="cls-2" d="M599.43,568c-3.16,0-5.4-.48-6.73-1.42a5.68,5.68,0,0,1-2.42-3.68,25,25,0,0,1-.42-4.57V504a24.13,24.13,0,0,1,.42-4.52,5.67,5.67,0,0,1,2.42-3.63c1.33-.94,3.61-1.42,6.83-1.42s5.48.48,6.78,1.42a5.74,5.74,0,0,1,2.36,3.63,24.65,24.65,0,0,1,.42,4.62v54.33a24.13,24.13,0,0,1-.42,4.52,5.66,5.66,0,0,1-2.41,3.63C604.93,567.53,602.65,568,599.43,568Z"/><path class="cls-2" d="M650.5,567.9a12.29,12.29,0,0,1-5.89-1.31,8,8,0,0,1-3.57-3.94l-24.9-54.75c-1.34-3.09-1.67-5.52-1-7.31s2.61-3.45,5.83-5a12.78,12.78,0,0,1,5.73-1.94,5.49,5.49,0,0,1,4,1.52,13.12,13.12,0,0,1,3,4.83l16.6,40.88L666.89,500a14,14,0,0,1,3.05-4.83,5.41,5.41,0,0,1,4.1-1.47,12.8,12.8,0,0,1,5.57,1.89q5.25,2.52,6.09,5.1t-1.26,7.2l-24.9,54.75a8.51,8.51,0,0,1-3.52,3.78A10.6,10.6,0,0,1,650.5,567.9Z"/><path class="cls-2" d="M702.1,568c-3.16,0-5.4-.48-6.73-1.42a5.68,5.68,0,0,1-2.42-3.68,25,25,0,0,1-.42-4.57V504c0-3.65.72-6.15,2.16-7.52s4-2.05,7.72-2.05h38.47a23.89,23.89,0,0,1,4.57.42,5.69,5.69,0,0,1,3.57,2.42q1.43,2,1.42,6.83c0,3.15-.47,5.4-1.42,6.73a5.6,5.6,0,0,1-3.63,2.41,23.83,23.83,0,0,1-4.62.43h-29V523h19.44a22.41,22.41,0,0,1,4.31.37,4.65,4.65,0,0,1,3,2.05q1.16,1.68,1.16,5.88,0,4-1.16,5.73a4.51,4.51,0,0,1-3.15,2.05,28.42,28.42,0,0,1-4.41.31H711.77v9.35h29.11a23.87,23.87,0,0,1,4.57.43,5.64,5.64,0,0,1,3.57,2.41q1.43,2,1.42,6.83T749,565.17a5.65,5.65,0,0,1-3.63,2.42,24.65,24.65,0,0,1-4.62.42Z"/><path class="cls-2" d="M809.6,494.34a22,22,0,0,1,3.79.31,4.61,4.61,0,0,1,3,2q1.22,1.68,1.21,5.78t-1.21,5.73a4.6,4.6,0,0,1-3,2,22.59,22.59,0,0,1-3.83.31H795v48.13a24.12,24.12,0,0,1-.42,4.47,5.5,5.5,0,0,1-2.37,3.52q-2,1.36-6.78,1.37c-3.08,0-5.29-.48-6.62-1.42a5.41,5.41,0,0,1-2.36-3.58,25.9,25.9,0,0,1-.37-4.46v-48H761.47a18.65,18.65,0,0,1-3.73-.37,4.85,4.85,0,0,1-3-2q-1.2-1.68-1.2-5.78t1.2-5.68a4.68,4.68,0,0,1,3.1-2,23.16,23.16,0,0,1,3.79-.31Z"/></svg>