<svg version="1.2" xmlns="http://www.w3.org/2000/svg" viewBox="0 0 200 63" width="200" height="63">
	<title>Artboard 3-svg</title>
	<style>
		.s0 { fill: #ffffff } 
	</style>
	<path fill-rule="evenodd" class="s0" d="m45.3 5.6c2.2 0.9 4.3 2.3 6 4 1.8 1.8 3.2 3.8 4.1 6.1 1 2.3 1.5 4.7 1.5 7.2 0 2.4-0.5 4.9-1.5 7.1-0.9 2.3-2.3 4.4-4 6.1-1.8 1.7-3.9 3.1-6.1 4-2.3 1-4.8 1.5-7.3 1.5h-7.4l-16.6 14.4q-0.8 0.7-1.9 0.8c-0.7 0.1-1.3 0-2-0.2-0.6-0.3-1.1-0.8-1.5-1.4-0.4-0.5-0.6-1.2-0.6-1.9v-49.1h30c2.5 0 5 0.4 7.3 1.4zm-20.8 17.7c0.1-0.4 0.1-0.9 0-1.4-0.2-0.4-0.3-0.9-0.6-1.3q-0.5-0.5-1.1-0.9c-1.3-0.8-2.9-0.7-4.1 0.2-1.2 0.9-1.8 2.4-1.4 3.9 0.4 1.4 1.6 2.5 3.1 2.7 1.5 0.2 2.9-0.5 3.7-1.8q0.3-0.6 0.4-1.4zm11.1 1.4q0.4-0.6 0.5-1.4 0.1-0.6-0.1-1.4c-0.1-0.4-0.3-0.9-0.6-1.3q-0.4-0.5-1.1-0.9c-1.3-0.8-2.9-0.7-4.1 0.2-1.2 0.9-1.7 2.4-1.3 3.9 0.3 1.4 1.6 2.5 3 2.7 1.5 0.2 3-0.5 3.7-1.8zm12.1-1.4q0.1-0.6-0.1-1.4c-0.1-0.4-0.3-0.9-0.6-1.3q-0.5-0.5-1.1-0.9c-1.3-0.8-2.9-0.7-4.1 0.2-1.2 0.9-1.7 2.4-1.4 3.9 0.4 1.4 1.6 2.5 3.1 2.7 1.5 0.2 2.9-0.5 3.7-1.8q0.4-0.6 0.5-1.4z"/>
	<path fill-rule="evenodd" class="s0" d="m77.8 39.6q-1.6 0-2.2-0.5-0.2-0.1-0.3-0.2-0.1-0.1-0.2-0.3-0.1-0.2-0.2-0.3-0.1-0.2-0.1-0.4 0-0.2-0.1-0.3 0-0.2 0-0.4 0-0.2 0-0.4-0.1-0.2-0.1-0.4v-17.6q0-0.2 0.1-0.3 0-0.2 0-0.4 0-0.2 0-0.4 0.1-0.2 0.1-0.3 0-0.2 0.1-0.4 0.1-0.1 0.2-0.3 0.1-0.1 0.2-0.3 0.1-0.1 0.3-0.2 0.6-0.5 2.2-0.5h6.8q0.4 0 0.8 0.1 0.3 0 0.7 0.1 0.3 0 0.7 0.1 0.3 0.1 0.7 0.3 0.3 0.1 0.7 0.3 0.4 0.2 0.8 0.4 0.3 0.1 0.7 0.4 0.3 0.2 0.6 0.5 0.4 0.3 0.7 0.6 0.3 0.3 0.6 0.6 0.3 0.4 0.5 0.7 0.3 0.4 0.4 0.8c0.5 0.9 0.8 1.8 0.9 2.7q0.2 1.5-0.1 2.9c-0.2 1-0.6 1.9-1.1 2.7-0.5 0.8-1.1 1.6-1.9 2.2q-0.3 0.2-0.6 0.5-0.4 0.2-0.7 0.4-0.4 0.2-0.8 0.4-0.4 0.1-0.7 0.3-0.4 0.1-0.7 0.2-0.4 0.1-0.8 0.2-0.3 0-0.7 0.1-0.3 0-0.7 0h-3.7c0 0.2 0 3.5 0 3.7q0 0.1 0 0.3 0 0.2-0.1 0.4 0 0.2 0 0.4 0 0.1-0.1 0.3-0.1 0.1-0.2 0.3-0.1 0.2-0.2 0.3-0.2 0.1-0.3 0.2-0.7 0.5-2.2 0.5zm3.1-12.6h3.7q0.2 0 0.3-0.1 0.1 0 0.3 0 0.1 0 0.2-0.1 0.2 0 0.3-0.1 0.1 0 0.2-0.1 0.2-0.1 0.3-0.2 0.2-0.1 0.3-0.2 0.1-0.1 0.2-0.3 0.1-0.1 0.2-0.3 0.1-0.2 0.2-0.3 0-0.2 0-0.4 0.1-0.3 0.1-0.4 0-0.2-0.1-0.4 0-0.1 0-0.3-0.1-0.2-0.1-0.3-0.1-0.2-0.2-0.3-0.1-0.1-0.2-0.3-0.1-0.1-0.2-0.2-0.1-0.1-0.2-0.2-0.2-0.1-0.3-0.2-0.1-0.1-0.3-0.2-0.2 0-0.3 0-0.2-0.1-0.4-0.1-0.1 0-0.3 0h-3.7z"/>
	<path fill-rule="evenodd" class="s0" d="m98.2 39.6q-1.6 0-2.2-0.5-0.2-0.1-0.3-0.2-0.1-0.1-0.2-0.3-0.1-0.2-0.2-0.3-0.1-0.2-0.1-0.4 0-0.2-0.1-0.3 0-0.2 0-0.4 0-0.2 0-0.4 0-0.2 0-0.4c0-0.1 0-17.8 0-17.9q0-0.2 0-0.4 0-0.2 0-0.4 0.1-0.2 0.1-0.3 0-0.2 0.1-0.4 0.1-0.1 0.2-0.3 0.1-0.1 0.2-0.3 0.1-0.1 0.3-0.2 0.6-0.5 2.2-0.5h6.9q0.4 0 0.7 0.1 0.4 0 0.8 0.1 0.3 0 0.7 0.1 0.3 0.1 0.6 0.3 0.4 0.1 0.8 0.3 0.4 0.1 0.7 0.4 0.4 0.1 0.7 0.4 0.4 0.2 0.7 0.5 0.3 0.3 0.6 0.6 0.4 0.3 0.6 0.6 0.3 0.4 0.5 0.7 0.3 0.4 0.5 0.8 0.2 0.5 0.4 0.9 0.2 0.5 0.3 1 0.1 0.5 0.1 1 0.1 0.5 0.1 1 0 0.4-0.1 0.8 0 0.3 0 0.7-0.1 0.4-0.2 0.7-0.1 0.4-0.2 0.7-0.1 0.4-0.3 0.7-0.1 0.3-0.3 0.6-0.2 0.3-0.3 0.6-0.2 0.3-0.5 0.6-0.2 0.3-0.5 0.6-0.2 0.2-0.5 0.5-0.1 0-0.2 0.1l2.5 3.3q0.1 0.2 0.3 0.4 0.1 0.2 0.2 0.4 0.1 0.2 0.2 0.4 0.1 0.3 0.2 0.5 0 0.1 0 0.3 0 0.2 0 0.3 0 0.2 0 0.4-0.1 0.1-0.2 0.3-0.1 0.2-0.3 0.4-0.2 0.2-0.4 0.3-0.1 0.2-0.3 0.3-0.2 0.2-0.4 0.4-1.6 1.1-2.5 0.9-0.9-0.2-1.9-1.6l-3.7-4.9h-3.2c0 0.1 0 3.5 0 3.6q0 0.2 0 0.4 0 0.2 0 0.4-0.1 0.2-0.1 0.3 0 0.2-0.1 0.4-0.1 0.1-0.2 0.3-0.1 0.1-0.2 0.3-0.1 0.1-0.3 0.2-0.6 0.5-2.2 0.5zm3.1-12.6c0.1 0 4 0 4 0q0.1-0.1 0.2-0.1 0.1 0 0.2 0 0.1 0 0.2-0.1 0.1 0 0.2 0 0.1-0.1 0.2-0.1 0.1-0.1 0.2-0.1 0.1-0.1 0.2-0.2 0.1-0.1 0.2-0.1 0.1-0.1 0.2-0.2 0-0.1 0.1-0.2 0.1-0.1 0.1-0.2 0.1-0.2 0.2-0.3 0-0.2 0-0.3 0.1-0.2 0.1-0.3 0-0.2 0-0.3 0-0.2 0-0.4-0.1-0.1-0.1-0.3 0-0.2-0.1-0.3 0-0.2-0.1-0.3-0.1-0.1-0.2-0.3-0.1-0.1-0.2-0.2-0.2-0.1-0.3-0.2-0.1-0.1-0.3-0.2-0.1-0.1-0.3-0.2-0.1 0-0.2 0-0.2-0.1-0.4-0.1-0.1 0-0.3 0h-3.8z"/>
	<path class="s0" d="m118.7 39.6q-1.5 0-2.2-0.4-0.2-0.1-0.3-0.3-0.1-0.1-0.2-0.3-0.1-0.1-0.2-0.3 0-0.1-0.1-0.3 0-0.2 0-0.4-0.1-0.2-0.1-0.4 0-0.1 0-0.3 0-0.2 0-0.4v-17.7q0-0.2 0-0.3 0-0.2 0-0.4 0-0.2 0.1-0.4 0-0.2 0-0.3 0.1-0.2 0.1-0.4 0.1-0.1 0.2-0.3 0.1-0.1 0.2-0.3 0.1-0.1 0.3-0.2 0.7-0.5 2.2-0.5 1.6 0 2.2 0.5 0.2 0.1 0.3 0.2 0.1 0.2 0.2 0.3 0.1 0.2 0.2 0.3 0.1 0.2 0.1 0.4 0.1 0.2 0.1 0.3 0 0.2 0 0.4 0 0.2 0.1 0.4 0 0.2 0 0.4v17.6q0 0.2 0 0.4-0.1 0.2-0.1 0.3 0 0.2 0 0.4 0 0.2-0.1 0.4 0 0.2-0.1 0.3-0.1 0.2-0.2 0.3-0.1 0.2-0.2 0.3-0.1 0.2-0.3 0.3-0.6 0.4-2.2 0.4z"/>
	<path class="s0" d="m135.4 39.6q-0.3 0-0.5 0-0.3 0-0.5-0.1-0.2-0.1-0.5-0.1-0.2-0.1-0.4-0.2-0.2-0.1-0.4-0.3-0.2-0.1-0.3-0.3-0.2-0.2-0.3-0.3-0.1-0.2-0.2-0.4l-8.1-17.8q-0.7-1.5-0.4-2.4 0.4-0.8 2-1.6 0.1-0.1 0.4-0.2 0.2-0.1 0.4-0.2 0.3-0.1 0.5-0.1 0.3-0.1 0.5-0.1 0.2 0 0.4 0 0.1 0 0.3 0.1 0.2 0.1 0.3 0.2 0.2 0 0.3 0.2 0.2 0.1 0.3 0.3 0.2 0.2 0.3 0.4 0.1 0.2 0.2 0.4 0.1 0.2 0.2 0.4l5.4 13.3 5.5-13.3q0-0.2 0.1-0.4 0.1-0.2 0.3-0.4 0.1-0.2 0.2-0.4 0.2-0.2 0.3-0.3 0.2-0.2 0.3-0.2 0.2-0.1 0.4-0.2 0.1-0.1 0.3-0.1 0.2 0 0.4 0 0.2 0 0.5 0.1 0.2 0 0.4 0.1 0.2 0.1 0.5 0.2 0.2 0.1 0.4 0.2 1.7 0.8 2 1.7 0.3 0.8-0.4 2.3l-8.2 17.8q-0.1 0.2-0.2 0.4-0.1 0.1-0.2 0.3-0.2 0.1-0.4 0.3-0.1 0.1-0.3 0.2-0.2 0.1-0.4 0.2-0.3 0.1-0.5 0.2-0.2 0-0.5 0.1-0.2 0-0.4 0z"/>
	<path class="s0" d="m152.3 39.6q-1.6 0-2.2-0.4-0.2-0.1-0.3-0.3-0.2-0.1-0.3-0.3-0.1-0.1-0.1-0.3-0.1-0.1-0.2-0.3 0-0.2 0-0.4 0-0.2 0-0.4 0-0.1-0.1-0.3 0-0.2 0-0.4v-17.7q0-1.8 0.7-2.4 0.7-0.7 2.6-0.7h12.5q0.2 0 0.4 0 0.2 0 0.4 0 0.1 0.1 0.3 0.1 0.2 0 0.4 0 0.2 0.1 0.4 0.2 0.1 0 0.3 0.1 0.1 0.1 0.3 0.3 0.1 0.1 0.2 0.3 0.4 0.6 0.4 2.2c0 1-0.1 1.7-0.4 2.1q-0.1 0.2-0.2 0.3-0.2 0.2-0.3 0.3-0.2 0.1-0.3 0.1-0.2 0.1-0.4 0.1-0.2 0.1-0.4 0.1-0.2 0-0.3 0.1-0.2 0-0.4 0-0.2 0-0.4 0h-9.5v3h6.4q0.1 0 0.3 0 0.2 0 0.4 0 0.1 0 0.3 0.1 0.2 0 0.4 0 0.1 0.1 0.3 0.1 0.1 0.1 0.2 0.2 0.2 0 0.3 0.2 0.1 0.1 0.2 0.2 0.3 0.5 0.3 1.9 0 1.3-0.3 1.9-0.1 0.1-0.2 0.2-0.1 0.1-0.3 0.2-0.1 0.1-0.3 0.1-0.1 0.1-0.3 0.1-0.1 0.1-0.3 0.1-0.2 0-0.4 0-0.1 0-0.3 0-0.2 0-0.4 0h-6.3v3.1h9.5q0.2 0 0.4 0 0.2 0 0.4 0 0.1 0 0.3 0 0.2 0.1 0.4 0.1 0.2 0 0.4 0.1 0.1 0.1 0.3 0.2 0.1 0.1 0.3 0.2 0.1 0.1 0.2 0.3 0.4 0.6 0.4 2.2c0 1-0.1 1.8-0.4 2.2q-0.1 0.1-0.2 0.3-0.2 0.1-0.3 0.2-0.2 0.1-0.3 0.2-0.2 0.1-0.4 0.1-0.2 0-0.4 0-0.2 0.1-0.3 0.1-0.2 0-0.4 0-0.2 0-0.4 0z"/>
	<path class="s0" d="m187.4 15.7q0.1 0 0.3 0 0.1 0 0.3 0 0.2 0.1 0.3 0.1 0.2 0 0.3 0 0.2 0 0.3 0.1 0.2 0 0.3 0.1 0.1 0.1 0.2 0.2 0.1 0.1 0.2 0.2 0.4 0.6 0.4 1.9c0 0.9-0.1 1.5-0.4 1.9q-0.1 0.1-0.2 0.2-0.1 0.1-0.2 0.2-0.1 0.1-0.3 0.2-0.1 0-0.3 0-0.1 0-0.3 0.1-0.2 0-0.3 0-0.2 0-0.3 0-0.2 0-0.3 0h-4.8v15.7q0 0.2 0 0.3 0 0.2 0 0.4-0.1 0.2-0.1 0.4 0 0.1 0 0.3 0 0.2-0.1 0.4-0.1 0.1-0.2 0.3-0.1 0.1-0.2 0.2-0.1 0.2-0.3 0.3-0.7 0.4-2.2 0.4-1.5 0-2.2-0.5-0.1-0.1-0.3-0.2-0.1-0.1-0.2-0.3-0.1-0.1-0.2-0.3 0-0.1-0.1-0.3 0-0.2 0-0.4 0-0.2 0-0.4-0.1-0.1-0.1-0.3 0-0.2 0-0.4v-15.6h-4.7q-0.2 0-0.4 0-0.1 0-0.3 0-0.1 0-0.2 0-0.2-0.1-0.4-0.1-0.1 0-0.3 0-0.1-0.1-0.2-0.2-0.1-0.1-0.3-0.2-0.1-0.1-0.2-0.2-0.3-0.6-0.3-1.9c0-0.9 0.1-1.5 0.3-1.8q0.1-0.2 0.2-0.3 0.2-0.1 0.3-0.2 0.1-0.1 0.3-0.1 0.1-0.1 0.3-0.1 0.1 0 0.3-0.1 0.1 0 0.3 0 0.1 0 0.3 0 0.1 0 0.3 0z"/>
</svg>