<svg version="1.2" xmlns="http://www.w3.org/2000/svg" viewBox="0 0 200 68" width="200" height="68">
	<title>Artboard 1-svg</title>
	<style>
		.s0 { fill: #0025a5 } 
		.s1 { fill: #ee001a } 
	</style>
	<path fill-rule="evenodd" class="s0" d="m45 10.2c2.3 0.9 4.3 2.4 6.1 4.1 1.7 1.7 3.1 3.8 4.1 6.1 0.9 2.3 1.4 4.7 1.4 7.2 0 2.5-0.5 4.9-1.4 7.2-1 2.3-2.4 4.4-4.1 6.1-1.8 1.8-3.8 3.1-6.1 4.1-2.3 0.9-4.7 1.4-7.2 1.4h-7.5l-16.6 14.5q-0.8 0.7-1.8 0.9c-0.7 0.1-1.4 0-2-0.3-0.7-0.3-1.2-0.7-1.5-1.3-0.4-0.6-0.6-1.3-0.6-1.9v-49.5h30c2.5 0 4.9 0.5 7.2 1.4zm-20.7 17.9q0.1-0.7-0.1-1.5c-0.1-0.4-0.3-0.9-0.6-1.3q-0.4-0.5-1.1-0.9c-1.3-0.8-2.9-0.7-4.1 0.2-1.2 0.9-1.7 2.4-1.3 3.9 0.3 1.4 1.5 2.5 3 2.7 1.5 0.3 3-0.5 3.7-1.7q0.4-0.7 0.5-1.4zm11.5 0q0.1-0.7 0-1.5c-0.1-0.4-0.4-0.9-0.7-1.3q-0.4-0.5-1-0.9c-1.3-0.8-3-0.7-4.1 0.2-1.2 0.9-1.8 2.4-1.4 3.9 0.4 1.4 1.6 2.5 3.1 2.7 1.4 0.3 2.9-0.5 3.7-1.7q0.4-0.7 0.4-1.4zm11.6 0q0.1-0.7-0.1-1.5c-0.1-0.4-0.3-0.9-0.6-1.3q-0.4-0.5-1.1-0.9c-1.3-0.8-2.9-0.7-4.1 0.2-1.2 0.9-1.7 2.4-1.3 3.9 0.4 1.4 1.5 2.5 3 2.7 1.5 0.3 3-0.5 3.7-1.7q0.4-0.7 0.5-1.4z"/>
	<path fill-rule="evenodd" class="s1" d="m77.5 44.4q-1.6 0-2.2-0.4-0.1-0.1-0.3-0.3-0.1-0.1-0.2-0.3-0.1-0.1-0.2-0.3-0.1-0.1-0.1-0.3 0-0.2-0.1-0.4 0-0.2 0-0.4 0-0.2 0-0.3 0-0.2 0-0.4c0-0.2 0-18 0-18.1q0-0.2 0-0.4 0-0.2 0-0.4 0.1-0.2 0.1-0.3 0-0.2 0.1-0.4 0.1-0.2 0.2-0.3 0.1-0.1 0.2-0.3 0.2-0.1 0.3-0.2 0.6-0.5 2.2-0.5h6.9q0.3 0 0.7 0.1 0.4 0 0.7 0.1 0.3 0 0.7 0.1 0.3 0.1 0.7 0.3 0.4 0.1 0.7 0.3 0.4 0.1 0.8 0.3 0.4 0.2 0.7 0.5 0.3 0.2 0.7 0.5 0.3 0.3 0.6 0.6 0.3 0.3 0.6 0.6 0.3 0.4 0.5 0.8 0.3 0.3 0.5 0.7c0.4 0.9 0.7 1.8 0.8 2.8q0.2 1.5-0.1 2.9c-0.2 0.9-0.5 1.9-1 2.7q-0.8 1.2-1.9 2.2-0.4 0.2-0.7 0.5-0.3 0.2-0.7 0.4-0.4 0.2-0.8 0.4-0.3 0.1-0.7 0.3-0.4 0.1-0.7 0.2-0.4 0.1-0.7 0.2-0.4 0-0.7 0.1-0.4 0-0.8 0h-3.6c0 0.2 0 3.6 0 3.7q0 0.1-0.1 0.3 0 0.2 0 0.4 0 0.2-0.1 0.4 0 0.2-0.1 0.3 0 0.2-0.1 0.3-0.1 0.2-0.3 0.3-0.1 0.2-0.3 0.3-0.6 0.4-2.2 0.4zm3.2-12.7h3.7q0.1 0 0.2 0 0.2 0 0.3-0.1 0.1 0 0.3 0 0.1-0.1 0.2-0.1 0.2-0.1 0.3-0.1 0.1-0.1 0.3-0.2 0.1-0.1 0.2-0.2 0.1-0.2 0.2-0.3 0.2-0.1 0.2-0.3 0.1-0.2 0.2-0.4 0-0.2 0.1-0.4 0-0.2 0-0.4 0-0.2 0-0.3-0.1-0.2-0.1-0.4 0-0.1-0.1-0.3-0.1-0.1-0.2-0.3-0.1-0.3-0.4-0.5-0.2-0.2-0.5-0.4-0.3-0.2-0.6-0.2-0.3-0.1-0.7-0.1h-3.6z"/>
	<path fill-rule="evenodd" class="s1" d="m97.9 44.4q-1.5 0-2.1-0.4-0.2-0.1-0.3-0.3-0.2-0.1-0.3-0.3-0.1-0.1-0.1-0.3-0.1-0.1-0.1-0.3-0.1-0.2-0.1-0.4 0-0.2-0.1-0.4 0-0.2 0-0.3 0-0.2 0-0.4v-17.8q0-0.2 0-0.3 0-0.2 0-0.4 0.1-0.2 0.1-0.4 0-0.2 0.1-0.3 0-0.2 0.1-0.4 0-0.2 0.1-0.3 0.1-0.1 0.3-0.3 0.1-0.1 0.3-0.2 0.6-0.5 2.2-0.5h6.9q0.3 0 0.7 0.1 0.3 0 0.7 0.1 0.4 0 0.7 0.1 0.4 0.1 0.7 0.3 0.4 0.1 0.8 0.3 0.3 0.1 0.7 0.3 0.3 0.2 0.7 0.5 0.3 0.2 0.7 0.5 0.3 0.3 0.6 0.6 0.3 0.3 0.6 0.6 0.3 0.4 0.5 0.8 0.2 0.3 0.4 0.7 0.3 0.5 0.4 1 0.2 0.4 0.3 0.9 0.1 0.5 0.2 1 0 0.5 0 1.1 0 0.3 0 0.7-0.1 0.4-0.1 0.7-0.1 0.4-0.2 0.8 0 0.3-0.2 0.7-0.1 0.3-0.2 0.7-0.2 0.3-0.4 0.6-0.1 0.3-0.3 0.6-0.2 0.3-0.4 0.6-0.3 0.3-0.5 0.5-0.3 0.3-0.5 0.6-0.1 0-0.2 0.1l2.4 3.3q0.2 0.2 0.3 0.4 0.1 0.2 0.2 0.4 0.1 0.2 0.2 0.4 0.1 0.3 0.2 0.5 0.1 0.2 0.1 0.3 0 0.2 0 0.4-0.1 0.1-0.1 0.3-0.1 0.1-0.2 0.3-0.1 0.2-0.3 0.4-0.1 0.2-0.3 0.4-0.2 0.2-0.4 0.3-0.2 0.1-0.4 0.3-1.5 1.2-2.4 0.9-0.9-0.2-1.9-1.5l-3.7-5h-3.2v3.3q0 0.2 0 0.4 0 0.1 0 0.3-0.1 0.2-0.1 0.4 0 0.2-0.1 0.4 0 0.2-0.1 0.3 0 0.2-0.1 0.3-0.1 0.2-0.2 0.3-0.2 0.1-0.3 0.2-0.7 0.5-2.3 0.5zm3.2-12.7c0.1 0 3.9 0 4 0q0.1 0 0.2 0 0-0.1 0.1-0.1 0.1 0 0.2 0 0.1-0.1 0.2-0.1 0.1 0 0.2-0.1 0.1 0 0.2-0.1 0.1 0 0.2-0.1 0.1-0.1 0.2-0.2 0.1-0.1 0.2-0.2 0.1-0.1 0.1-0.2 0.1-0.1 0.2-0.2 0-0.1 0.1-0.3 0-0.1 0.1-0.3 0-0.1 0-0.3 0-0.1 0-0.3 0-0.2 0-0.3 0-0.2 0-0.4-0.1-0.1-0.2-0.3 0-0.2-0.1-0.3-0.1-0.1-0.2-0.2-0.1-0.2-0.2-0.3-0.1-0.1-0.3-0.2-0.1-0.1-0.2-0.2-0.2-0.1-0.3-0.1-0.2-0.1-0.3-0.1-0.2-0.1-0.3-0.1-0.2 0-0.4 0h-3.7z"/>
	<path class="s1" d="m118.4 44.5q-1.5 0-2.2-0.5-0.1-0.1-0.3-0.2-0.1-0.2-0.2-0.3-0.1-0.2-0.1-0.3-0.1-0.2-0.1-0.4-0.1-0.2-0.1-0.4 0-0.2 0-0.4-0.1-0.1-0.1-0.3 0-0.2 0-0.4v-17.8q0-0.2 0-0.3 0-0.2 0.1-0.4 0-0.2 0-0.4 0-0.2 0.1-0.3 0-0.2 0.1-0.4 0-0.2 0.1-0.3 0.1-0.1 0.2-0.3 0.2-0.1 0.3-0.2 0.7-0.5 2.3-0.5 1.6 0 2.2 0.5 0.1 0.1 0.3 0.2 0.1 0.2 0.2 0.3 0.1 0.1 0.2 0.3 0 0.2 0.1 0.4 0 0.2 0 0.3 0 0.2 0.1 0.4 0 0.2 0 0.4 0 0.2 0 0.4v17.7q0 0.2 0 0.4 0 0.2 0 0.4-0.1 0.2-0.1 0.3 0 0.2 0 0.4-0.1 0.2-0.1 0.4-0.1 0.1-0.2 0.3-0.1 0.1-0.3 0.3-0.1 0.1-0.2 0.2-0.7 0.5-2.3 0.5z"/>
	<path class="s1" d="m135.1 44.4q-0.2 0-0.5 0-0.2 0-0.4-0.1-0.3 0-0.5-0.1-0.3-0.1-0.5-0.2-0.2-0.1-0.4-0.3-0.2-0.1-0.3-0.3-0.1-0.1-0.2-0.3-0.2-0.2-0.3-0.4l-8.1-17.9q-0.7-1.5-0.3-2.4 0.3-0.9 1.9-1.6 0.2-0.1 0.4-0.2 0.2-0.2 0.5-0.2 0.2-0.1 0.5-0.2 0.2 0 0.5-0.1 0.1 0 0.3 0.1 0.2 0 0.4 0.1 0.1 0 0.3 0.1 0.1 0.1 0.3 0.3 0.1 0.1 0.3 0.3 0.1 0.2 0.2 0.4 0.1 0.2 0.3 0.4 0.1 0.2 0.1 0.4l5.5 13.4 5.4-13.4q0.1-0.2 0.2-0.4 0.1-0.2 0.2-0.4 0.1-0.2 0.3-0.4 0.1-0.2 0.3-0.3 0.1-0.2 0.3-0.3 0.1-0.1 0.3-0.1 0.2-0.1 0.4-0.1 0.1 0 0.3 0 0.3 0 0.5 0 0.2 0.1 0.5 0.2 0.2 0.1 0.4 0.2 0.2 0.1 0.4 0.2 1.8 0.8 2 1.7 0.3 0.8-0.4 2.3l-8.1 17.9q-0.1 0.2-0.2 0.4-0.2 0.2-0.3 0.3-0.1 0.2-0.3 0.3-0.2 0.1-0.4 0.2-0.2 0.2-0.4 0.3-0.2 0.1-0.4 0.1-0.3 0.1-0.5 0.1-0.2 0-0.5 0z"/>
	<path class="s1" d="m152 44.5q-1.5 0-2.2-0.5-0.2-0.1-0.3-0.2-0.1-0.2-0.2-0.3-0.1-0.2-0.2-0.3 0-0.2-0.1-0.4 0-0.2 0-0.4-0.1-0.2-0.1-0.4 0-0.1 0-0.3 0-0.2 0-0.4v-17.8q0-1.8 0.7-2.4 0.7-0.7 2.5-0.7h12.6q0.2 0 0.3 0 0.2 0 0.4 0 0.2 0.1 0.4 0.1 0.2 0 0.4 0.1 0.1 0 0.3 0.1 0.2 0 0.3 0.1 0.2 0.1 0.3 0.3 0.1 0.1 0.2 0.2 0.5 0.7 0.5 2.3 0 1.5-0.5 2.2-0.1 0.1-0.2 0.3-0.1 0.1-0.3 0.2-0.1 0.1-0.3 0.1-0.2 0.1-0.4 0.1-0.2 0.1-0.3 0.1-0.2 0-0.4 0.1-0.2 0-0.4 0-0.2 0-0.4 0h-9.4v3.1h6.3q0.2 0 0.4 0 0.1 0 0.3 0 0.2 0 0.4 0 0.1 0 0.3 0.1 0.2 0 0.3 0 0.1 0.1 0.3 0.2 0.1 0.1 0.2 0.2 0.1 0.1 0.2 0.2 0.4 0.6 0.4 2 0 1.3-0.4 1.8-0.1 0.2-0.2 0.3-0.1 0.1-0.2 0.2-0.2 0.1-0.3 0.1-0.2 0.1-0.3 0.1-0.2 0-0.4 0-0.2 0.1-0.3 0.1-0.2 0-0.4 0-0.2 0-0.4 0h-6.2v3.1h9.5q0.2 0 0.3 0 0.2 0 0.4 0 0.2 0 0.4 0.1 0.2 0 0.4 0 0.1 0 0.3 0.1 0.2 0.1 0.3 0.2 0.2 0.1 0.3 0.2 0.1 0.1 0.2 0.3 0.5 0.7 0.5 2.2 0 1.6-0.5 2.2-0.1 0.2-0.2 0.3-0.1 0.1-0.3 0.2-0.1 0.2-0.3 0.2-0.2 0.1-0.4 0.1-0.2 0.1-0.3 0.1-0.2 0-0.4 0-0.2 0.1-0.4 0.1-0.2 0-0.4 0z"/>
	<path class="s1" d="m187.1 20.4q0.2 0 0.4 0 0.1 0 0.2 0 0.2 0 0.3 0 0.2 0.1 0.4 0.1 0.1 0 0.3 0.1 0.1 0 0.2 0.1 0.2 0.1 0.3 0.2 0 0.1 0.1 0.2 0.4 0.6 0.4 1.9 0 1.4-0.4 1.9-0.1 0.1-0.1 0.2-0.1 0.1-0.3 0.2-0.1 0.1-0.2 0.2-0.2 0-0.3 0.1-0.2 0-0.4 0-0.1 0-0.3 0-0.1 0-0.3 0.1-0.1 0-0.3 0h-4.7v15.7q0 0.2 0 0.3-0.1 0.2-0.1 0.4 0 0.2 0 0.4 0 0.2-0.1 0.4 0 0.1-0.1 0.3 0 0.1-0.2 0.3-0.1 0.1-0.2 0.3-0.1 0.1-0.3 0.2-0.6 0.5-2.2 0.5-1.5 0-2.1-0.5-0.2-0.1-0.3-0.3-0.1-0.1-0.2-0.2-0.1-0.2-0.2-0.3-0.1-0.2-0.1-0.4 0-0.2-0.1-0.3 0-0.2 0-0.4 0-0.2 0-0.4 0-0.1 0-0.3v-15.7h-4.8q-0.2 0-0.3 0-0.2 0-0.3-0.1-0.2 0-0.3 0-0.2 0-0.3-0.1-0.2 0-0.3 0-0.2-0.1-0.3-0.2-0.1-0.1-0.2-0.2-0.1-0.1-0.2-0.2-0.4-0.6-0.4-1.9 0-1.3 0.4-1.8 0.1-0.2 0.2-0.3 0.1-0.1 0.2-0.2 0.2-0.1 0.3-0.1 0.2-0.1 0.3-0.1 0.2 0 0.3-0.1 0.2 0 0.3 0 0.2 0 0.3 0 0.2 0 0.3 0z"/>
</svg>