<svg id="Layer_1" data-name="Layer 1" xmlns="http://www.w3.org/2000/svg" viewBox="0 0 1080 1080"><defs><style>.cls-1{fill:#fff;}</style></defs><path class="cls-1" d="M353.43,458.84H261.62v151.4a10.9,10.9,0,0,0,18.07,8.2L330.58,574h22.85A57.56,57.56,0,0,0,411,516.4h0A57.56,57.56,0,0,0,353.43,458.84Zm-42.75,63.25a11.31,11.31,0,1,1-4-15.49A11.31,11.31,0,0,1,310.68,522.09Zm35.35,0a11.31,11.31,0,1,1-4-15.49A11.31,11.31,0,0,1,346,522.09Zm35.35,0a11.31,11.31,0,1,1-4-15.49A11.31,11.31,0,0,1,381.38,522.09Z"/><path class="cls-1" d="M475,567.9c-3.15,0-5.4-.47-6.73-1.42a5.64,5.64,0,0,1-2.41-3.68,24.91,24.91,0,0,1-.42-4.57V504a24.13,24.13,0,0,1,.42-4.52,5.66,5.66,0,0,1,2.41-3.63c1.33-.94,3.61-1.42,6.83-1.42H496a26.25,26.25,0,0,1,8.62,1.63,29.64,29.64,0,0,1,8.77,5,26.37,26.37,0,0,1,6.78,8.41,26.11,26.11,0,0,1-6.78,32.21,29.91,29.91,0,0,1-8.77,4.94,26.24,26.24,0,0,1-8.73,1.63H484.62v10.09a24.13,24.13,0,0,1-.42,4.52,5.63,5.63,0,0,1-2.42,3.62Q479.79,567.91,475,567.9ZM484.62,529H496a8.91,8.91,0,0,0,3.15-.69,7.46,7.46,0,0,0,3.15-2.36,7.13,7.13,0,0,0,1.37-4.62,7.44,7.44,0,0,0-1.05-3.94,7.71,7.71,0,0,0-2.79-2.74,7.79,7.79,0,0,0-3.94-1H484.62Z"/><path class="cls-1" d="M537.48,567.9q-4.74,0-6.73-1.42a5.65,5.65,0,0,1-2.42-3.68,24.91,24.91,0,0,1-.42-4.57V504a24.13,24.13,0,0,1,.42-4.52,5.67,5.67,0,0,1,2.42-3.63c1.33-.94,3.61-1.42,6.83-1.42H558.7a26.16,26.16,0,0,1,8.62,1.63,28.92,28.92,0,0,1,8.72,5,26.64,26.64,0,0,1,6.73,8.41,25.64,25.64,0,0,1,2.63,12,28.22,28.22,0,0,1-1.42,9,24.48,24.48,0,0,1-4.2,7.62,29.25,29.25,0,0,1-6.73,6,33.26,33.26,0,0,1-9,4H547.15v10.2a25,25,0,0,1-.42,4.52,5.67,5.67,0,0,1-2.42,3.62Q542.32,567.91,537.48,567.9ZM547.15,529H558.7a8.32,8.32,0,0,0,2.26-.37,7,7,0,0,0,2.47-1.26,7.32,7.32,0,0,0,2-2.37,7.76,7.76,0,0,0,.79-3.67,7.44,7.44,0,0,0-1-3.94,7.79,7.79,0,0,0-2.79-2.74,7.6,7.6,0,0,0-3.84-1H547.15Zm34.36,36.36q-4.72,3.57-7.46,2.89c-1.82-.46-3.78-2.08-5.89-4.89l-19.33-26.27,21.86-2.73,13,17.55a18.36,18.36,0,0,1,2.68,5.15,4.9,4.9,0,0,1-.58,4A17.62,17.62,0,0,1,581.51,565.38Z"/><path class="cls-1" d="M600.21,568c-3.15,0-5.39-.48-6.72-1.42a5.68,5.68,0,0,1-2.42-3.68,25,25,0,0,1-.42-4.57V504a24.13,24.13,0,0,1,.42-4.52,5.67,5.67,0,0,1,2.42-3.63c1.33-.94,3.61-1.42,6.83-1.42s5.48.48,6.78,1.42a5.74,5.74,0,0,1,2.36,3.63,24.65,24.65,0,0,1,.42,4.62v54.33a24.13,24.13,0,0,1-.42,4.52,5.67,5.67,0,0,1-2.42,3.63C605.71,567.53,603.44,568,600.21,568Z"/><path class="cls-1" d="M651.29,567.9a12.26,12.26,0,0,1-5.89-1.31,8,8,0,0,1-3.57-3.94L616.92,507.9c-1.33-3.09-1.66-5.52-1-7.31s2.61-3.45,5.84-5a12.78,12.78,0,0,1,5.73-1.94,5.49,5.49,0,0,1,4,1.52,13,13,0,0,1,2.94,4.83l16.61,40.88L667.68,500a14,14,0,0,1,3.05-4.83,5.4,5.4,0,0,1,4.1-1.47,12.8,12.8,0,0,1,5.57,1.89q5.25,2.52,6.09,5.1t-1.26,7.2l-24.91,54.75a8.45,8.45,0,0,1-3.52,3.78A10.54,10.54,0,0,1,651.29,567.9Z"/><path class="cls-1" d="M702.89,568c-3.16,0-5.4-.48-6.73-1.42a5.68,5.68,0,0,1-2.42-3.68,25,25,0,0,1-.42-4.57V504c0-3.65.72-6.15,2.16-7.52s4-2.05,7.72-2.05h38.46a24,24,0,0,1,4.58.42,5.69,5.69,0,0,1,3.57,2.42c.94,1.33,1.42,3.61,1.42,6.83s-.48,5.4-1.42,6.73a5.62,5.62,0,0,1-3.63,2.41,23.83,23.83,0,0,1-4.62.43h-29V523H732a22.26,22.26,0,0,1,4.31.37,4.65,4.65,0,0,1,3.05,2.05q1.15,1.68,1.16,5.88,0,4-1.16,5.73a4.51,4.51,0,0,1-3.15,2.05,28.46,28.46,0,0,1-4.42.31H712.55v9.35h29.11a24,24,0,0,1,4.58.43,5.64,5.64,0,0,1,3.57,2.41c.94,1.33,1.42,3.61,1.42,6.83s-.48,5.4-1.42,6.73a5.67,5.67,0,0,1-3.63,2.42,24.65,24.65,0,0,1-4.62.42Z"/><path class="cls-1" d="M810.39,494.34a21.75,21.75,0,0,1,3.78.31,4.63,4.63,0,0,1,3,2c.8,1.12,1.21,3.05,1.21,5.78s-.41,4.57-1.21,5.73a4.62,4.62,0,0,1-3,2,22.59,22.59,0,0,1-3.83.31H795.78v48.13a23.29,23.29,0,0,1-.42,4.47,5.49,5.49,0,0,1-2.36,3.52q-1.95,1.36-6.78,1.37c-3.08,0-5.29-.48-6.62-1.42a5.41,5.41,0,0,1-2.36-3.58,25.9,25.9,0,0,1-.37-4.46v-48H762.26a18.65,18.65,0,0,1-3.73-.37,4.83,4.83,0,0,1-3-2c-.8-1.12-1.21-3.05-1.21-5.78s.41-4.56,1.21-5.68a4.68,4.68,0,0,1,3.1-2,23.07,23.07,0,0,1,3.79-.31Z"/></svg>