<svg id="Layer_1" data-name="Layer 1" xmlns="http://www.w3.org/2000/svg" viewBox="0 0 1080 1080"><defs><style>.cls-1{fill:#0025a5;}</style></defs><path class="cls-1" d="M557.13,458.84H465.32v151.4a10.9,10.9,0,0,0,18.07,8.2L534.27,574h22.86a57.55,57.55,0,0,0,57.55-57.55h0A57.55,57.55,0,0,0,557.13,458.84Zm-42.76,63.25a11.31,11.31,0,1,1-4-15.49A11.31,11.31,0,0,1,514.37,522.09Zm35.35,0a11.3,11.3,0,1,1-4-15.49A11.31,11.31,0,0,1,549.72,522.09Zm35.36,0a11.31,11.31,0,1,1-4-15.49A11.31,11.31,0,0,1,585.08,522.09Z"/></svg>