<svg version="1.2" xmlns="http://www.w3.org/2000/svg" viewBox="0 0 1080 1080" width="1080" height="1080">
	<title>Artboard 8-svg</title>
	<style>
		.s0 { fill: #fff } 
	</style>
	<path fill-rule="evenodd" class="s0" d="m750 121.5c37.4 15.5 71.4 38.3 100.1 67 28.6 28.7 51.4 62.7 66.9 100.2 15.4 37.4 23.4 77.6 23.3 118.1 0 40.5-7.9 80.7-23.4 118.1-15.5 37.4-38.3 71.4-66.9 100.1-28.7 28.6-62.7 51.4-100.1 66.9-37.4 15.5-77.6 23.4-118.1 23.4h-122.5l-272.8 238.3c-8.4 7.4-18.8 12.1-29.9 13.8-11.1 1.6-22.4 0-32.7-4.6-10.2-4.7-18.8-12.1-24.9-21.6-6.1-9.4-9.3-20.4-9.3-31.6v-811.6h492.1c40.6 0 80.7 8 118.2 23.5zm-339.6 293.2c1.1-7.9 0.7-15.9-1.3-23.6-2-7.7-5.5-14.9-10.3-21.3-4.8-6.4-10.8-11.7-17.6-15.8-21.2-12.4-47.7-10.9-67.3 3.8-19.6 14.8-28.4 39.9-22.2 63.6 6.1 23.8 25.9 41.5 50.2 44.9 24.3 3.4 48.2-8.1 60.7-29.2 4-6.9 6.7-14.5 7.8-22.4zm189.5 0c1.1-7.9 0.7-15.9-1.3-23.6-2-7.7-5.5-14.9-10.3-21.3-4.8-6.4-10.8-11.7-17.6-15.8-21.1-12.4-47.7-10.9-67.2 3.9-19.6 14.7-28.3 39.8-22.2 63.5 6.1 23.7 25.9 41.4 50.2 44.8 24.2 3.5 48.1-8 60.6-29.1 4.1-6.9 6.7-14.5 7.8-22.4zm189.6 0c1.1-7.9 0.6-15.9-1.4-23.6-1.9-7.7-5.4-14.9-10.2-21.3-4.8-6.4-10.8-11.7-17.7-15.8-21.1-12.4-47.6-10.9-67.2 3.8-19.6 14.8-28.4 39.9-22.3 63.6 6.2 23.8 26 41.5 50.3 44.9 24.3 3.4 48.2-8.1 60.7-29.2 4-6.9 6.7-14.5 7.8-22.4z"/>
</svg>