<svg width="55" height="55" viewBox="0 0 55 55" fill="none" xmlns="http://www.w3.org/2000/svg">
<circle cx="27.5" cy="27.5" r="27.5" fill="#F1F1F1" fill-opacity="0.7"/>
<path fill-rule="evenodd" clip-rule="evenodd" d="M21.3333 20C19.4924 20 18 21.535 18 23.4286V32.5714C18 34.465 19.4924 36 21.3333 36H34.6667C36.5076 36 38 34.465 38 32.5714V23.4286C38 21.535 36.5076 20 34.6667 20H21.3333ZM23.6247 24.2191C23.1934 23.8741 22.5641 23.944 22.2191 24.3753C21.8741 24.8066 21.944 25.4359 22.3753 25.7809L27.3753 29.7809L28 30.2806L28.6247 29.7809L33.6247 25.7809C34.056 25.4359 34.1259 24.8066 33.7809 24.3753C33.4359 23.944 32.8066 23.8741 32.3753 24.2191L28 27.7194L23.6247 24.2191Z" fill="#194499"/>
</svg>
