<svg width="55" height="55" viewBox="0 0 55 55" fill="none" xmlns="http://www.w3.org/2000/svg">
<circle cx="27.5" cy="27.5" r="27.5" fill="#F1F1F1" fill-opacity="0.7"/>
<path fill-rule="evenodd" clip-rule="evenodd" d="M28.5742 37.8187C28.2295 38.0604 27.7699 38.0601 27.4253 37.8184L27.4228 37.8166L27.4172 37.8127L27.3986 37.7994C27.3829 37.7882 27.3607 37.7722 27.3325 37.7517C27.2762 37.7106 27.1956 37.6511 27.0943 37.5741C26.8917 37.4203 26.6058 37.1962 26.2641 36.9101C25.5823 36.3389 24.6711 35.5139 23.7569 34.4988C21.9637 32.5076 20 29.6105 20 26.3636C20 24.1613 20.8312 22.0397 22.3255 20.4678C23.8214 18.8941 25.8615 18 28 18C30.1385 18 32.1786 18.8941 33.6745 20.4678C35.1688 22.0397 36 24.1613 36 26.3636C36 29.6105 34.0363 32.5076 32.2431 34.4988C31.3289 35.5139 30.4177 36.3389 29.7359 36.9101C29.3942 37.1962 29.1083 37.4203 28.9057 37.5741C28.8044 37.6511 28.7238 37.7106 28.6675 37.7517C28.6393 37.7722 28.6171 37.7882 28.6014 37.7994L28.5828 37.8127L28.5772 37.8166L28.5754 37.8179L28.5742 37.8187ZM25 26C25 24.3431 26.3431 23 28 23C29.6569 23 31 24.3431 31 26C31 27.6569 29.6569 29 28 29C26.3431 29 25 27.6569 25 26Z" fill="#194499"/>
</svg>
