<svg width="55" height="55" viewBox="0 0 55 55" fill="none" xmlns="http://www.w3.org/2000/svg">
<circle cx="27.5" cy="27.5" r="27.5" fill="#F1F1F1" fill-opacity="0.7"/>
<path fill-rule="evenodd" clip-rule="evenodd" d="M29.0748 22.6388C29.2878 22.1172 29.8906 21.8641 30.4212 22.0735C31.2276 22.3918 31.957 22.8728 32.5625 23.4855C33.1679 24.0982 33.6358 24.8289 33.936 25.6305C34.1335 26.1579 33.8587 26.7429 33.3221 26.9371C32.7856 27.1312 32.1905 26.8611 31.993 26.3336C31.7928 25.7992 31.4809 25.3121 31.0773 24.9036C30.6737 24.4952 30.1874 24.1745 29.6498 23.9623C29.1192 23.7529 28.8618 23.1603 29.0748 22.6388Z" fill="#194499"/>
<path fill-rule="evenodd" clip-rule="evenodd" d="M29.0369 18.7978C29.1907 18.2238 29.7807 17.8831 30.3547 18.0369C32.1791 18.5258 33.8427 19.4862 35.1782 20.8218C36.5138 22.1573 37.4742 23.8209 37.9631 25.6453C38.1169 26.2193 37.7762 26.8093 37.2022 26.9631C36.6282 27.1169 36.0382 26.7762 35.8844 26.2022C35.4934 24.7427 34.725 23.4119 33.6566 22.3434C32.5881 21.275 31.2573 20.5066 29.7978 20.1156C29.2238 19.9618 28.8831 19.3718 29.0369 18.7978Z" fill="#194499"/>
<path fill-rule="evenodd" clip-rule="evenodd" d="M26.509 24.3761C25.8302 21.9237 23.3866 20.4089 20.9684 21.2155C19.3929 21.741 18.4338 22.7213 18.1159 24.0289C17.8204 25.2443 18.1284 26.5559 18.6068 27.715C19.5701 30.0492 21.4767 32.3617 22.5562 33.442C23.6108 34.4974 25.92 36.4123 28.2585 37.3844C29.4197 37.8671 30.7361 38.1805 31.9571 37.8857C33.2712 37.5684 34.2565 36.6044 34.7848 35.0178C35.5902 32.5997 34.0782 30.1542 31.6263 29.4745L31.6263 29.4745C29.9503 29.01 28.1927 29.453 26.9932 30.5295C26.7117 30.3115 26.4409 30.0733 26.1827 29.8149C25.9232 29.5552 25.6841 29.2828 25.4654 28.9995C26.5335 27.7996 26.9715 26.0473 26.509 24.3761L26.509 24.3761Z" fill="#194499"/>
</svg>
