<svg width="24" height="24" viewBox="0 0 24 24" fill="none" xmlns="http://www.w3.org/2000/svg">
<path d="M11 5.99993C11 5.44765 10.5506 4.99349 10.0026 5.06235C8.77376 5.21676 7.59276 5.65506 6.55544 6.34817C5.23985 7.22722 4.21447 8.47665 3.60897 9.93846C3.00347 11.4003 2.84504 13.0088 3.15372 14.5607C3.4624 16.1125 4.22433 17.538 5.34315 18.6568C6.46197 19.7756 7.88743 20.5375 9.43928 20.8462C10.9911 21.1549 12.5997 20.9965 14.0615 20.391C15.5233 19.7855 16.7727 18.7601 17.6518 17.4445C18.3449 16.4072 18.7832 15.2262 18.9376 13.9974C19.0064 13.4494 18.5523 12.9999 18 12.9999H12C11.4477 12.9999 11 12.5522 11 11.9999V5.99993Z" stroke="#194699" stroke-width="2"/>
<path d="M14 4.00006C14 3.44778 14.45 2.99274 14.9966 3.07137C15.5731 3.15429 16.1383 3.30903 16.6788 3.53291C17.5281 3.88469 18.2997 4.40031 18.9497 5.05032C19.5998 5.70033 20.1154 6.472 20.4672 7.32128C20.691 7.86178 20.8458 8.42697 20.9287 9.00346C21.0073 9.55011 20.5523 10.0001 20 10.0001L14.1 10.0001C14.0448 10.0001 14 9.95529 14 9.90006V4.00006Z" stroke="#194699" stroke-width="2"/>
</svg>
