<svg version="1.2" xmlns="http://www.w3.org/2000/svg" viewBox="0 0 1000 1000" width="1000" height="1000">
	<title>12978498_5116541-ai</title>
	<style>
		.s0 { fill: #c3eaeb } 
		.s1 { fill: #4c303a } 
		.s2 { mix-blend-mode: screen;fill: #c3eaeb } 
		.s3 { fill: #194699 } 
		.s4 { fill: #4685ff;stroke: #4685ff;stroke-miterlimit:10;stroke-width: 2 } 
		.s5 { fill: #ff99d7;stroke: #ffffff;stroke-miterlimit:10;stroke-width: 2 } 
		.s6 { fill: #ffb400;stroke: #ffffff;stroke-miterlimit:10;stroke-width: 2 } 
		.s7 { fill: #4fb664;stroke: #ffffff;stroke-miterlimit:10;stroke-width: 2 } 
		.s8 { fill: #c3eaeb;stroke: #ffffff;stroke-miterlimit:10;stroke-width: 2 } 
		.s9 { fill: #a4e9fd;stroke: #ffffff;stroke-miterlimit:10;stroke-width: 2 } 
		.s10 { fill: #4685ff;stroke: #ffffff;stroke-miterlimit:10;stroke-width: 2 } 
		.s11 { fill: #ac5942;stroke: #ffffff;stroke-miterlimit:10;stroke-width: 2 } 
		.s12 { fill: #4c303a;stroke: #ffffff;stroke-miterlimit:10;stroke-width: 2 } 
		.s13 { fill: #4685ff } 
		.s14 { mix-blend-mode: screen;fill: #4685ff } 
		.s15 { opacity: .8;mix-blend-mode: screen;fill: #4685ff } 
		.s16 { opacity: .6;mix-blend-mode: screen;fill: #4685ff } 
		.s17 { opacity: .4;mix-blend-mode: screen;fill: #4685ff } 
		.s18 { fill: #ffffff } 
		.s19 { fill: #ff99d7 } 
		.s20 { mix-blend-mode: screen;fill: #ff99d7 } 
		.s21 { opacity: .8;mix-blend-mode: screen;fill: #ff99d7 } 
		.s22 { opacity: .6;mix-blend-mode: screen;fill: #ff99d7 } 
		.s23 { opacity: .4;mix-blend-mode: screen;fill: #ff99d7 } 
		.s24 { fill: #e2ecf3 } 
		.s25 { fill: #ffb400 } 
		.s26 { mix-blend-mode: screen;fill: #ffb400 } 
		.s27 { opacity: .8;mix-blend-mode: screen;fill: #ffb400 } 
		.s28 { opacity: .6;mix-blend-mode: screen;fill: #ffb400 } 
		.s29 { opacity: .4;mix-blend-mode: screen;fill: #ffb400 } 
		.s30 { fill: #4fb664 } 
		.s31 { mix-blend-mode: screen;fill: #4fb664 } 
		.s32 { opacity: .8;mix-blend-mode: screen;fill: #4fb664 } 
		.s33 { opacity: .6;mix-blend-mode: screen;fill: #4fb664 } 
		.s34 { opacity: .4;mix-blend-mode: screen;fill: #4fb664 } 
		.s35 { opacity: .6;mix-blend-mode: multiply;fill: #4c303a } 
		.s36 { opacity: .7;mix-blend-mode: screen;fill: #c3eaeb } 
		.s37 { opacity: .6;mix-blend-mode: screen;fill: #e2ecf3 } 
		.s38 { fill: #ef2230 } 
		.s39 { opacity: .5;mix-blend-mode: multiply;fill: #4c303a } 
		.s40 { opacity: .3;mix-blend-mode: screen;fill: #4c303a } 
		.s41 { mix-blend-mode: multiply;fill: #c3eaeb } 
		.s42 { fill: #a4e9fd } 
		.s43 { opacity: .1;mix-blend-mode: screen;fill: #4c303a } 
		.s44 { opacity: .3;mix-blend-mode: screen;fill: #ff99d7 } 
		.s45 { opacity: .5;mix-blend-mode: multiply;fill: #ff99d7 } 
		.s46 { opacity: .3;mix-blend-mode: screen;fill: #a4e9fd } 
		.s47 { opacity: .5;mix-blend-mode: multiply;fill: #a4e9fd } 
		.s48 { opacity: .3;mix-blend-mode: screen;fill: #ef2230 } 
		.s49 { opacity: .5;mix-blend-mode: multiply;fill: #ef2230 } 
		.s50 { opacity: .3;mix-blend-mode: screen;fill: #94ef22 } 
		.s51 { opacity: .5;mix-blend-mode: multiply;fill: #ffb400 } 
		.s52 { opacity: .3;mix-blend-mode: screen;fill: #4fb664 } 
		.s53 { opacity: .5;mix-blend-mode: multiply;fill: #4fb664 } 
		.s54 { fill: #ffe0e3 } 
		.s55 { opacity: .3;mix-blend-mode: screen;fill: #ffe0e3 } 
		.s56 { opacity: .5;mix-blend-mode: multiply;fill: #ffe0e3 } 
		.s57 { fill: #ac5942 } 
		.s58 { opacity: .3;mix-blend-mode: screen;fill: #ac5942 } 
		.s59 { opacity: .4;mix-blend-mode: multiply;fill: #ffb400 } 
		.s60 { opacity: .5;mix-blend-mode: multiply;fill: #ac5942 } 
		.s61 { opacity: .2;mix-blend-mode: screen;fill: #4685ff } 
		.s62 { mix-blend-mode: multiply;fill: #ff9fa8 } 
		.s63 { opacity: .3;mix-blend-mode: screen;fill: #ffb400 } 
		.s64 { opacity: .3;mix-blend-mode: multiply;fill: #ffb400 } 
	</style>
	<g id="OBJECTS copy 2">
		<path id="&lt;Path&gt;" class="s0" d="m975.6 855.5c0 12-50.7 21.7-113.2 21.7-62.5 0-113.1-9.7-113.1-21.7 0-12 50.6-21.7 113.1-21.7 62.5 0 113.2 9.7 113.2 21.7z"/>
		<g id="&lt;Group&gt;">
			<path id="&lt;Path&gt;" class="s1" d="m697.7 416.7h-501.1c-0.9 0-1.7-0.7-1.7-1.7v-329.7c0-0.9 0.8-1.6 1.7-1.6h501.1c0.9 0 1.7 0.7 1.7 1.6v329.7c0 1-0.8 1.7-1.7 1.7z"/>
			<path id="&lt;Path&gt;" class="s0" d="m688.1 409.3h-481.9c-0.9 0-1.6-0.8-1.6-1.7v-314.9c0-0.8 0.7-1.6 1.6-1.6h481.9c0.9 0 1.6 0.8 1.6 1.6v314.9c0 0.9-0.7 1.7-1.6 1.7z"/>
			<path id="&lt;Path&gt;" class="s2" d="m680 403.9h-465.7c-0.9 0-1.6-0.7-1.6-1.5v-304.4c0-0.9 0.7-1.6 1.6-1.6h465.7c0.9 0 1.6 0.7 1.6 1.6v304.4c0 0.8-0.7 1.5-1.6 1.5z"/>
			<path id="&lt;Path&gt;" class="s3" d="m363.9 236.8h-125.1v-125.1h125.1z"/>
			<g id="&lt;Group&gt;">
				<g id="&lt;Group&gt;" style="opacity: .2;mix-blend-mode: multiply">
					<path id="&lt;Path&gt;" class="s4" d="m504.1 192.6h-75.1v-61.1h75.1z"/>
					<path id="&lt;Path&gt;" class="s4" d="m504.1 192.6h-75.1v27.9h75.1z"/>
					<path id="&lt;Path&gt;" class="s4" d="m504.1 220.5h-75.1v28h75.1z"/>
					<path id="&lt;Path&gt;" class="s4" d="m504.1 248.5h-75.1v28h75.1z"/>
					<path id="&lt;Path&gt;" class="s4" d="m504.1 276.5h-75.1v28h75.1z"/>
					<path id="&lt;Path&gt;" class="s4" d="m504.1 304.5h-75.1v28h75.1z"/>
					<path id="&lt;Path&gt;" class="s4" d="m504.1 332.5h-75.1v27.9h75.1z"/>
					<path id="&lt;Path&gt;" class="s4" d="m504.1 360.4h-75.1v28h75.1z"/>
				</g>
				<g id="&lt;Group&gt;">
					<g id="&lt;Group&gt;">
						<path id="&lt;Path&gt;" class="s5" d="m500.1 188.6h-75.1v-61.1h75.1z"/>
						<path id="&lt;Path&gt;" class="s6" d="m500.1 188.6h-75.1v27.9h75.1z"/>
						<path id="&lt;Path&gt;" class="s7" d="m500.1 216.5h-75.1v28h75.1z"/>
						<path id="&lt;Path&gt;" class="s8" d="m500.1 244.5h-75.1v28h75.1z"/>
						<path id="&lt;Path&gt;" class="s9" d="m500.1 272.5h-75.1v28h75.1z"/>
						<path id="&lt;Path&gt;" class="s10" d="m500.1 300.5h-75.1v28h75.1z"/>
						<path id="&lt;Path&gt;" class="s11" d="m500.1 328.5h-75.1v27.9h75.1z"/>
						<path id="&lt;Path&gt;" class="s12" d="m500.1 356.4h-75.1v28h75.1z"/>
					</g>
				</g>
			</g>
			<g id="&lt;Group&gt;">
				<g id="&lt;Group&gt;" style="opacity: .2;mix-blend-mode: multiply">
					<path id="&lt;Path&gt;" class="s13" d="m312.4 133c-0.2-2.3-0.3-4.7-1.1-6.9-0.6-1.8-2.1-4.4-4.3-4.3-2.3 0.1-3.5 2.9-4.3 4.6-2 4.7-2.8 9.9-2.8 14.9 0 5.7 1 11.4 3.2 16.7 0.2 0.6 1.1 0.3 0.9-0.2-3.6-8.8-4.2-18.9-1.5-28.1q0.5-1.8 1.3-3.5c0.5-0.9 1-2 1.8-2.8 2-2 4 0.8 4.7 2.6 0.8 2.1 1 4.4 1.2 6.6q0.3 3.6 0.3 7.2c0.1 5.6-0.4 11.1-2.2 16.4-0.2 0.5 0.7 0.8 0.9 0.2 1.6-4.9 2.2-10.2 2.3-15.4 0-2.7-0.2-5.4-0.4-8z"/>
					<path id="&lt;Path&gt;" class="s13" d="m295.1 150.2l20 15c0.9 0.7 1.1 2.1 0.4 3l-8.2 10.9-28.7 38c-0.7 1-2.1 1.1-3 0.4l-16-12-3.9-3c-1-0.7-1.2-2-0.4-3l36.9-48.9c0.7-0.9 2-1.1 2.9-0.4z"/>
					<path id="&lt;Path&gt;" class="s13" d="m284.1 207.6l-21.2-16-6.9 9.2 21.1 16z"/>
					<path id="&lt;Path&gt;" class="s14" d="m284.1 207.6l-21.2-16-6.9 9.2 21.1 16z"/>
					<path id="&lt;Path&gt;" class="s13" d="m291 198.4l-21.1-16-7 9.2 21.2 16z"/>
					<path id="&lt;Path&gt;" class="s15" d="m291 198.4l-21.1-16-7 9.2 21.2 16z"/>
					<path id="&lt;Path&gt;" class="s13" d="m298 189.1l-21.2-15.9-6.9 9.2 21.1 16z"/>
					<path id="&lt;Path&gt;" class="s16" d="m298 189.1l-21.2-15.9-6.9 9.2 21.1 16z"/>
					<path id="&lt;Path&gt;" class="s13" d="m305 179.9l-21.2-16-7 9.3 21.2 15.9z"/>
					<path id="&lt;Path&gt;" class="s17" d="m305 179.9l-21.2-16-7 9.3 21.2 15.9z"/>
					<path id="&lt;Path&gt;" class="s13" d="m311.9 170.7l-21.1-16-7 9.2 21.2 16z"/>
					<path id="&lt;Path&gt;" class="s13" d="m295.1 150.2l20 15c0.9 0.7 1.1 2.1 0.4 3l-8.2 10.9q-0.9 0.1-1.9 0.2-0.5 0.1-1.1 0.1c-4.8 0.8-9.6 2-14.2 3.8-4 1.5-7.9 3.4-11.6 5.7q-5.2 3.1-9.8 7-4.5 3.9-8.2 8.4-0.5 0.6-0.9 1.2l-3.9-3c-1-0.7-1.2-2-0.4-3l36.9-48.9c0.7-0.9 2-1.1 2.9-0.4z"/>
					<path id="&lt;Path&gt;" class="s13" d="m296.3 153.6l24.8 3.2c1.2 0.2 2 1.3 1.9 2.5l-1.7 14.3-5.8 49.9c-0.2 1.3-1.2 2.2-2.4 2l-19.9-2.6-4.9-0.6c-1.1-0.2-2-1.3-1.8-2.5l7.5-64.3c0.1-1.2 1.2-2.1 2.3-1.9z"/>
					<path id="&lt;Path&gt;" class="s13" d="m315.5 211.9l-26.4-3.4-1.4 12.1 26.3 3.4z"/>
					<path id="&lt;Path&gt;" class="s14" d="m315.5 211.9l-26.4-3.4-1.4 12.1 26.3 3.4z"/>
					<path id="&lt;Path&gt;" class="s13" d="m316.9 199.8l-26.3-3.4-1.5 12.1 26.4 3.4z"/>
					<path id="&lt;Path&gt;" class="s15" d="m316.9 199.8l-26.3-3.4-1.5 12.1 26.4 3.4z"/>
					<path id="&lt;Path&gt;" class="s13" d="m318.3 187.7l-26.3-3.4-1.4 12.1 26.3 3.4z"/>
					<path id="&lt;Path&gt;" class="s16" d="m318.3 187.7l-26.3-3.4-1.4 12.1 26.3 3.4z"/>
					<path id="&lt;Path&gt;" class="s13" d="m319.7 175.6l-26.3-3.5-1.4 12.2 26.3 3.4z"/>
					<path id="&lt;Path&gt;" class="s17" d="m319.7 175.6l-26.3-3.5-1.4 12.2 26.3 3.4z"/>
					<path id="&lt;Path&gt;" class="s13" d="m321.1 163.5l-26.3-3.5-1.4 12.1 26.3 3.5z"/>
					<path id="&lt;Path&gt;" class="s13" d="m296.3 153.6l24.8 3.2c1.2 0.2 2 1.3 1.9 2.5l-1.7 14.3q-0.8 0.6-1.5 1.2-0.4 0.3-0.9 0.7c-3.8 3.2-7.3 6.9-10.4 10.9-2.8 3.5-5.2 7.4-7.3 11.4q-2.9 5.6-4.9 11.6-1.9 5.8-2.9 11.9-0.1 0.8-0.2 1.6l-4.9-0.6c-1.1-0.2-2-1.3-1.8-2.5l7.5-64.3c0.1-1.2 1.2-2.1 2.3-1.9z"/>
					<path id="&lt;Path&gt;" class="s13" d="m299.3 158.9l22.9-10.1c1.1-0.4 2.3 0.1 2.8 1.1l5.5 12.5 19.1 43.7c0.5 1 0 2.3-1.1 2.8l-18.4 8-4.5 2c-1 0.5-2.3 0-2.8-1.1l-24.6-56.1c-0.4-1.1 0.1-2.4 1.1-2.8z"/>
					<path id="&lt;Path&gt;" class="s13" d="m344 196.6l-24.3 10.6 4.6 10.6 24.3-10.6z"/>
					<path id="&lt;Path&gt;" class="s14" d="m344 196.6l-24.3 10.6 4.6 10.6 24.3-10.6z"/>
					<path id="&lt;Path&gt;" class="s13" d="m339.3 186l-24.3 10.6 4.7 10.6 24.3-10.6z"/>
					<path id="&lt;Path&gt;" class="s15" d="m339.3 186l-24.3 10.6 4.7 10.6 24.3-10.6z"/>
					<path id="&lt;Path&gt;" class="s13" d="m334.7 175.4l-24.3 10.7 4.6 10.5 24.3-10.6z"/>
					<path id="&lt;Path&gt;" class="s16" d="m334.7 175.4l-24.3 10.7 4.6 10.5 24.3-10.6z"/>
					<path id="&lt;Path&gt;" class="s13" d="m330 164.8l-24.2 10.7 4.6 10.6 24.3-10.7z"/>
					<path id="&lt;Path&gt;" class="s17" d="m330 164.8l-24.2 10.7 4.6 10.6 24.3-10.7z"/>
					<path id="&lt;Path&gt;" class="s13" d="m325.4 154.3l-24.3 10.6 4.7 10.6 24.2-10.7z"/>
					<path id="&lt;Path&gt;" class="s13" d="m299.3 158.9l22.9-10.1c1.1-0.4 2.3 0.1 2.8 1.1l5.5 12.5q-0.4 0.9-0.8 1.7-0.2 0.5-0.4 1.1c-1.7 4.5-2.9 9.3-3.7 14.2-0.6 4.3-0.9 8.6-0.7 12.9q0.2 6.1 1.4 12 1.1 5.8 3.3 11.2 0.2 0.7 0.5 1.4l-4.5 2c-1 0.5-2.3 0-2.8-1.1l-24.6-56.1c-0.4-1.1 0.1-2.4 1.1-2.8z"/>
					<path id="&lt;Compound Path&gt;" class="s13" d="m308.3 158c-0.3-0.6-0.9-1.1-1.6-0.9q-0.1 0-0.1 0.1-0.2-0.1-0.4 0-0.4 0.2-0.6 0.6-0.1 0.2-0.2 0.4c0 0.4 0 0.7 0.2 1q0.1 0.2 0.2 0.3 0 0 0 0 0.1 0.1 0.2 0.2 0.1 0 0.1 0.1c0.6 0.3 1.3 0.2 1.7-0.2 0.5-0.4 0.7-1 0.5-1.6z"/>
					<path id="&lt;Path&gt;" class="s13" d="m306.8 158.3q0 0 0 0z"/>
					<path id="&lt;Path&gt;" class="s13" d="m306.8 158.3q0 0 0 0 0 0 0 0 0 0 0 0 0 0 0 0 0 0 0 0z"/>
				</g>
				<g id="&lt;Group&gt;">
					<g id="&lt;Group&gt;">
						<path id="&lt;Path&gt;" class="s1" d="m308.4 129c-0.2-2.3-0.3-4.7-1.1-6.9-0.6-1.8-2.1-4.4-4.3-4.3-2.3 0.1-3.5 2.9-4.3 4.6-2 4.7-2.8 9.9-2.8 14.9 0 5.7 1 11.4 3.2 16.7 0.2 0.6 1.1 0.3 0.9-0.2-3.6-8.8-4.2-18.9-1.5-28.1q0.5-1.8 1.3-3.5c0.5-0.9 1-2 1.8-2.8 2-2 4 0.8 4.7 2.6 0.8 2.1 1 4.4 1.2 6.6q0.3 3.6 0.3 7.2c0.1 5.6-0.4 11.1-2.2 16.4-0.2 0.5 0.7 0.8 0.9 0.2 1.6-4.9 2.2-10.2 2.3-15.4 0-2.7-0.2-5.4-0.4-8z"/>
						<g id="&lt;Group&gt;">
							<g id="&lt;Group&gt;">
								<path id="&lt;Path&gt;" class="s18" d="m291.1 146.2l20 15c0.9 0.7 1.1 2.1 0.4 3l-8.2 10.9-28.7 38c-0.7 1-2.1 1.1-3 0.4l-16-12-3.9-3c-1-0.7-1.2-2-0.4-3l36.9-48.9c0.7-0.9 2-1.1 2.9-0.4z"/>
								<g id="&lt;Group&gt;">
									<g id="&lt;Group&gt;">
										<path id="&lt;Path&gt;" class="s19" d="m280.1 203.6l-21.2-16-6.9 9.2 21.1 16z"/>
										<path id="&lt;Path&gt;" class="s20" d="m280.1 203.6l-21.2-16-6.9 9.2 21.1 16z"/>
										<path id="&lt;Path&gt;" class="s19" d="m287 194.4l-21.1-16-7 9.2 21.2 16z"/>
										<path id="&lt;Path&gt;" class="s21" d="m287 194.4l-21.1-16-7 9.2 21.2 16z"/>
										<g id="&lt;Group&gt;">
											<path id="&lt;Path&gt;" class="s19" d="m294 185.1l-21.2-15.9-6.9 9.2 21.1 16z"/>
										</g>
										<path id="&lt;Path&gt;" class="s22" d="m294 185.1l-21.2-15.9-6.9 9.2 21.1 16z"/>
										<g id="&lt;Group&gt;">
											<path id="&lt;Path&gt;" class="s19" d="m301 175.9l-21.2-16-7 9.3 21.2 15.9z"/>
										</g>
										<path id="&lt;Path&gt;" class="s23" d="m301 175.9l-21.2-16-7 9.3 21.2 15.9z"/>
										<g id="&lt;Group&gt;">
											<path id="&lt;Path&gt;" class="s19" d="m307.9 166.7l-21.1-16-7 9.2 21.2 16z"/>
										</g>
									</g>
								</g>
							</g>
							<g id="&lt;Group&gt;" style="opacity: .4;mix-blend-mode: multiply">
								<path id="&lt;Path&gt;" class="s24" d="m291.1 146.2l20 15c0.9 0.7 1.1 2.1 0.4 3l-8.2 10.9q-0.9 0.1-1.9 0.2-0.5 0.1-1.1 0.1c-4.8 0.8-9.6 2-14.2 3.8-4 1.5-7.9 3.4-11.6 5.7q-5.2 3.1-9.8 7-4.5 3.9-8.2 8.4-0.5 0.6-0.9 1.2l-3.9-3c-1-0.7-1.2-2-0.4-3l36.9-48.9c0.7-0.9 2-1.1 2.9-0.4z"/>
							</g>
						</g>
						<g id="&lt;Group&gt;">
							<g id="&lt;Group&gt;">
								<path id="&lt;Path&gt;" class="s18" d="m292.3 149.6l24.8 3.2c1.2 0.2 2 1.3 1.9 2.5l-1.7 14.3-5.8 49.9c-0.2 1.3-1.2 2.2-2.4 2l-19.9-2.6-4.9-0.6c-1.1-0.2-2-1.3-1.8-2.5l7.5-64.3c0.1-1.2 1.2-2.1 2.3-1.9z"/>
								<g id="&lt;Group&gt;">
									<g id="&lt;Group&gt;">
										<path id="&lt;Path&gt;" class="s25" d="m311.5 207.9l-26.4-3.4-1.4 12.1 26.3 3.4z"/>
										<path id="&lt;Path&gt;" class="s26" d="m311.5 207.9l-26.4-3.4-1.4 12.1 26.3 3.4z"/>
										<path id="&lt;Path&gt;" class="s25" d="m312.9 195.8l-26.3-3.4-1.5 12.1 26.4 3.4z"/>
										<path id="&lt;Path&gt;" class="s27" d="m312.9 195.8l-26.3-3.4-1.5 12.1 26.4 3.4z"/>
										<g id="&lt;Group&gt;">
											<path id="&lt;Path&gt;" class="s25" d="m314.3 183.7l-26.3-3.4-1.4 12.1 26.3 3.4z"/>
										</g>
										<path id="&lt;Path&gt;" class="s28" d="m314.3 183.7l-26.3-3.4-1.4 12.1 26.3 3.4z"/>
										<g id="&lt;Group&gt;">
											<path id="&lt;Path&gt;" class="s25" d="m315.7 171.6l-26.3-3.5-1.4 12.2 26.3 3.4z"/>
										</g>
										<path id="&lt;Path&gt;" class="s29" d="m315.7 171.6l-26.3-3.5-1.4 12.2 26.3 3.4z"/>
										<g id="&lt;Group&gt;">
											<path id="&lt;Path&gt;" class="s25" d="m317.1 159.5l-26.3-3.5-1.4 12.1 26.3 3.5z"/>
										</g>
									</g>
								</g>
							</g>
							<g id="&lt;Group&gt;" style="opacity: .4;mix-blend-mode: multiply">
								<path id="&lt;Path&gt;" class="s24" d="m292.3 149.6l24.8 3.2c1.2 0.2 2 1.3 1.9 2.5l-1.7 14.3q-0.8 0.6-1.5 1.2-0.4 0.3-0.9 0.7c-3.8 3.2-7.3 6.9-10.4 10.9-2.8 3.5-5.2 7.4-7.3 11.4q-2.9 5.6-4.9 11.6-1.9 5.8-2.9 11.9-0.1 0.8-0.2 1.6l-4.9-0.6c-1.1-0.2-2-1.3-1.8-2.5l7.5-64.3c0.1-1.2 1.2-2.1 2.3-1.9z"/>
							</g>
						</g>
						<g id="&lt;Group&gt;">
							<g id="&lt;Group&gt;">
								<path id="&lt;Path&gt;" class="s18" d="m295.3 154.9l22.9-10.1c1.1-0.4 2.3 0.1 2.8 1.1l5.5 12.5 19.1 43.7c0.5 1 0 2.3-1.1 2.8l-18.4 8-4.5 2c-1 0.5-2.3 0-2.8-1.1l-24.6-56.1c-0.4-1.1 0.1-2.4 1.1-2.8z"/>
								<g id="&lt;Group&gt;">
									<g id="&lt;Group&gt;">
										<path id="&lt;Path&gt;" class="s30" d="m340 192.6l-24.3 10.6 4.6 10.6 24.3-10.6z"/>
										<path id="&lt;Path&gt;" class="s31" d="m340 192.6l-24.3 10.6 4.6 10.6 24.3-10.6z"/>
										<path id="&lt;Path&gt;" class="s30" d="m335.3 182l-24.3 10.6 4.7 10.6 24.3-10.6z"/>
										<path id="&lt;Path&gt;" class="s32" d="m335.3 182l-24.3 10.6 4.7 10.6 24.3-10.6z"/>
										<g id="&lt;Group&gt;">
											<path id="&lt;Path&gt;" class="s30" d="m330.7 171.4l-24.3 10.7 4.6 10.5 24.3-10.6z"/>
										</g>
										<path id="&lt;Path&gt;" class="s33" d="m330.7 171.4l-24.3 10.7 4.6 10.5 24.3-10.6z"/>
										<g id="&lt;Group&gt;">
											<path id="&lt;Path&gt;" class="s30" d="m326 160.8l-24.2 10.7 4.6 10.6 24.3-10.7z"/>
										</g>
										<path id="&lt;Path&gt;" class="s34" d="m326 160.8l-24.2 10.7 4.6 10.6 24.3-10.7z"/>
										<g id="&lt;Group&gt;">
											<path id="&lt;Path&gt;" class="s30" d="m321.4 150.3l-24.3 10.6 4.7 10.6 24.2-10.7z"/>
										</g>
									</g>
								</g>
							</g>
							<g id="&lt;Group&gt;" style="opacity: .4;mix-blend-mode: multiply">
								<path id="&lt;Path&gt;" class="s24" d="m295.3 154.9l22.9-10.1c1.1-0.4 2.3 0.1 2.8 1.1l5.5 12.5q-0.4 0.9-0.8 1.7-0.2 0.5-0.4 1.1c-1.7 4.5-2.9 9.3-3.7 14.2-0.6 4.3-0.9 8.6-0.7 12.9q0.2 6.1 1.4 12 1.1 5.8 3.3 11.2 0.2 0.7 0.5 1.4l-4.5 2c-1 0.5-2.3 0-2.8-1.1l-24.6-56.1c-0.4-1.1 0.1-2.4 1.1-2.8z"/>
							</g>
						</g>
						<g id="&lt;Group&gt;">
							<path id="&lt;Compound Path&gt;" class="s1" d="m304.3 154c-0.3-0.6-0.9-1.1-1.6-0.9q-0.1 0-0.1 0.1-0.2-0.1-0.4 0-0.4 0.2-0.6 0.6-0.1 0.2-0.2 0.4c0 0.4 0 0.7 0.2 1q0.1 0.2 0.2 0.3 0 0 0 0 0.1 0.1 0.2 0.2 0.1 0 0.1 0.1c0.6 0.3 1.3 0.2 1.7-0.2 0.5-0.4 0.7-1 0.5-1.6z"/>
							<path id="&lt;Path&gt;" class="s1" d="m302.8 154.3q0 0 0 0z"/>
							<path id="&lt;Path&gt;" class="s1" d="m302.8 154.3q0 0 0 0 0 0 0 0 0 0 0 0 0 0 0 0 0 0 0 0z"/>
						</g>
					</g>
				</g>
			</g>
			<g id="&lt;Group&gt;">
				<g id="&lt;Group&gt;" style="opacity: .2;mix-blend-mode: multiply">
					<path id="&lt;Path&gt;" class="s13" d="m384.9 388.4h-145.4c-2.2 0-3.9-1.7-3.9-3.9v-106.4c0-2.2 1.7-4 3.9-4h145.4c2.1 0 3.9 1.8 3.9 4v106.4c0 2.2-1.8 3.9-3.9 3.9z"/>
					<path id="&lt;Path&gt;" class="s13" d="m379.9 384.5h-135.4c-2.1 0-3.7-1.6-3.7-3.6v-99.2c0-2 1.6-3.6 3.7-3.6h135.4c2 0 3.6 1.6 3.6 3.6v99.2c0 2-1.6 3.6-3.6 3.6z"/>
					<path id="&lt;Path&gt;" class="s13" d="m327.7 336.2c-1 8.8-4.9 16.9-10.6 23.2-7.6 8.3-18.6 13.5-30.7 13.5-23 0-41.6-18.6-41.6-41.6 0-23 18.6-41.6 41.6-41.6q1.4 0 2.8 0.1v46.4z"/>
					<path id="&lt;Path&gt;" class="s13" d="m328 331.3q0 2.5-0.3 4.9h-38.5v-46.4c21.6 1.4 38.8 19.4 38.8 41.5z"/>
					<path id="&lt;Path&gt;" class="s13" d="m327.7 336.2c-1 8.8-4.9 16.9-10.6 23.2l-27.9-23.2z"/>
					<path id="&lt;Path&gt;" class="s13" d="m375 374.2h-33v-85.8h33z"/>
					<path id="&lt;Path&gt;" class="s13" d="m369.8 308.4h-22.6v-12.6h22.6z"/>
					<path id="&lt;Path&gt;" class="s13" d="m369.8 327.9h-22.6v-12.6h22.6z"/>
					<path id="&lt;Path&gt;" class="s13" d="m369.8 347.3h-22.6v-12.6h22.6z"/>
					<path id="&lt;Path&gt;" class="s13" d="m369.8 366.8h-22.6v-12.6h22.6z"/>
				</g>
				<g id="&lt;Group&gt;">
					<g id="&lt;Group&gt;">
						<path id="&lt;Path&gt;" class="s13" d="m380.9 384.4h-145.4c-2.2 0-3.9-1.7-3.9-3.9v-106.4c0-2.2 1.7-4 3.9-4h145.4c2.1 0 3.9 1.8 3.9 4v106.4c0 2.2-1.8 3.9-3.9 3.9z"/>
						<path id="&lt;Path&gt;" class="s24" d="m375.9 380.5h-135.4c-2.1 0-3.7-1.6-3.7-3.6v-99.2c0-2 1.6-3.6 3.7-3.6h135.4c2 0 3.6 1.6 3.6 3.6v99.2c0 2-1.6 3.6-3.6 3.6z"/>
						<g id="&lt;Group&gt;">
							<path id="&lt;Path&gt;" class="s30" d="m323.7 332.2c-1 8.8-4.9 16.9-10.6 23.2-7.6 8.3-18.6 13.5-30.7 13.5-23 0-41.6-18.6-41.6-41.6 0-23 18.6-41.6 41.6-41.6q1.4 0 2.8 0.1v46.4z"/>
							<path id="&lt;Path&gt;" class="s25" d="m324 327.3q0 2.5-0.3 4.9h-38.5v-46.4c21.6 1.4 38.8 19.4 38.8 41.5z"/>
							<path id="&lt;Path&gt;" class="s19" d="m323.7 332.2c-1 8.8-4.9 16.9-10.6 23.2l-27.9-23.2z"/>
						</g>
						<g id="&lt;Group&gt;">
							<path id="&lt;Path&gt;" class="s18" d="m371 370.2h-33v-85.8h33z"/>
							<g id="&lt;Group&gt;">
								<path id="&lt;Path&gt;" class="s30" d="m365.8 304.4h-22.6v-12.6h22.6z"/>
								<path id="&lt;Path&gt;" class="s25" d="m365.8 323.9h-22.6v-12.6h22.6z"/>
								<path id="&lt;Path&gt;" class="s19" d="m365.8 343.3h-22.6v-12.6h22.6z"/>
								<path id="&lt;Path&gt;" class="s13" d="m365.8 362.8h-22.6v-12.6h22.6z"/>
							</g>
						</g>
					</g>
				</g>
			</g>
			<g id="&lt;Group&gt;">
				<g id="&lt;Group&gt;" style="opacity: .2;mix-blend-mode: multiply">
					<path id="&lt;Path&gt;" class="s13" d="m667.9 240.8h-83.6v-125.1h83.6z"/>
					<path id="&lt;Path&gt;" class="s13" d="m616 229.9h-63.3v-98.4h63.3z"/>
				</g>
				<g id="&lt;Group&gt;">
					<g id="&lt;Group&gt;">
						<path id="&lt;Path&gt;" class="s3" d="m663.9 236.8h-83.6v-125.1h83.6z"/>
						<path id="&lt;Path&gt;" class="s13" d="m612 225.9h-63.3v-98.4h63.3z"/>
					</g>
				</g>
			</g>
		</g>
		<g id="&lt;Group&gt;">
			<path id="&lt;Path&gt;" class="s1" d="m686.3 594.2h-542.4v-86.1h542.4z"/>
			<path id="&lt;Path&gt;" class="s35" d="m686.3 594.2h-542.4v-86.1h542.4z"/>
			<g id="&lt;Group&gt;">
				<g id="&lt;Group&gt;">
					<g id="&lt;Group&gt;">
						<path id="&lt;Path&gt;" class="s13" d="m119.5 394.3v9h-41.1v-9c0-4.7 3.8-8.6 8.5-8.6h24c4.8 0 8.6 3.9 8.6 8.6z"/>
						<path id="&lt;Path&gt;" class="s13" d="m78.4 426.4h41.1v19.1h-41.1z"/>
					</g>
					<g id="&lt;Group&gt;" style="opacity: .4;mix-blend-mode: screen">
						<path id="&lt;Path&gt;" class="s13" d="m115.3 394.3v9h-36.9v-9c0-4.7 3.4-8.6 7.7-8.6h21.5c4.2 0 7.7 3.9 7.7 8.6z"/>
						<path id="&lt;Path&gt;" class="s13" d="m78.4 426.4h36.9v19.1h-36.9z"/>
					</g>
					<g id="&lt;Group&gt;" style="opacity: .4;mix-blend-mode: screen">
						<path id="&lt;Path&gt;" class="s13" d="m107.6 394.3v9h-29.2v-9c0-4.7 2.7-8.6 6.1-8.6h17c3.4 0 6.1 3.9 6.1 8.6z"/>
						<path id="&lt;Path&gt;" class="s13" d="m78.4 426.4h29.2v19.1h-29.2z"/>
					</g>
					<path id="&lt;Path&gt;" class="s0" d="m108.3 371.4v14.3h-18.7v-14.3c0-2.1 1.7-3.9 3.9-3.9h10.9c1.9 0 3.6 1.5 3.8 3.4q0 0.1 0 0.1 0.1 0.2 0.1 0.4z"/>
					<path id="&lt;Path&gt;" class="s36" d="m108.3 371.4v14.3h-14.8v-14.3c0-2.1 1.4-3.9 3.1-3.9h7.8c1.9 0 3.6 1.5 3.8 3.4q0.1 0.3 0.1 0.5z"/>
					<path id="&lt;Path&gt;" class="s36" d="m108.3 371.4v14.3h-10.4v-14.3c0-2.1 1-3.9 2.2-3.9h4.3c1.9 0 3.6 1.5 3.8 3.4q0 0.1 0 0.1 0.1 0.2 0.1 0.4z"/>
					<path id="&lt;Path&gt;" class="s24" d="m119.5 403.3v23.1h-41.1v-23.1z"/>
					<path id="&lt;Path&gt;" class="s37" d="m115.3 403.3v23.1h-36.9v-23.1z"/>
					<path id="&lt;Path&gt;" class="s37" d="m107.6 403.3v23.1h-29.2v-23.1z"/>
				</g>
				<g id="&lt;Group&gt;">
					<g id="&lt;Group&gt;">
						<path id="&lt;Path&gt;" class="s19" d="m167.8 394.3v9h-41.1v-9c0-4.7 3.8-8.6 8.6-8.6h23.9c4.8 0 8.6 3.9 8.6 8.6z"/>
						<path id="&lt;Path&gt;" class="s19" d="m126.7 426.4h41.1v19.1h-41.1z"/>
					</g>
					<g id="&lt;Group&gt;" style="opacity: .4;mix-blend-mode: screen">
						<path id="&lt;Path&gt;" class="s19" d="m163.6 394.3v9h-36.9v-9c0-4.7 3.4-8.6 7.7-8.6h21.5c4.2 0 7.7 3.9 7.7 8.6z"/>
						<path id="&lt;Path&gt;" class="s19" d="m126.7 426.4h36.9v19.1h-36.9z"/>
					</g>
					<g id="&lt;Group&gt;" style="opacity: .4;mix-blend-mode: screen">
						<path id="&lt;Path&gt;" class="s19" d="m155.9 394.3v9h-29.2v-9c0-4.7 2.7-8.6 6.1-8.6h17c3.4 0 6.1 3.9 6.1 8.6z"/>
						<path id="&lt;Path&gt;" class="s19" d="m126.7 426.4h29.2v19.1h-29.2z"/>
					</g>
					<path id="&lt;Path&gt;" class="s0" d="m156.6 371.4v14.3h-18.7v-14.3c0-2.1 1.8-3.9 3.9-3.9h10.9c2 0 3.6 1.5 3.8 3.4q0 0.1 0.1 0.1 0 0.2 0 0.4z"/>
					<path id="&lt;Path&gt;" class="s36" d="m156.6 371.4v14.3h-14.7v-14.3c0-2.1 1.3-3.9 3-3.9h7.8c2 0 3.6 1.5 3.8 3.4q0.1 0.3 0.1 0.5z"/>
					<path id="&lt;Path&gt;" class="s36" d="m156.6 371.4v14.3h-10.4v-14.3c0-2.1 1-3.9 2.2-3.9h4.3c2 0 3.6 1.5 3.8 3.4q0 0.1 0.1 0.1 0 0.2 0 0.4z"/>
					<path id="&lt;Path&gt;" class="s24" d="m167.8 403.3v23.1h-41.1v-23.1z"/>
					<path id="&lt;Path&gt;" class="s37" d="m163.6 403.3v23.1h-36.9v-23.1z"/>
					<path id="&lt;Path&gt;" class="s37" d="m155.9 403.3v23.1h-29.2v-23.1z"/>
				</g>
				<g id="&lt;Group&gt;">
					<g id="&lt;Group&gt;">
						<path id="&lt;Path&gt;" class="s38" d="m215.8 394.3v9h-41.2v-9c0-4.7 3.9-8.6 8.6-8.6h24c4.7 0 8.6 3.9 8.6 8.6z"/>
						<path id="&lt;Path&gt;" class="s38" d="m174.6 426.4h41.2v19.1h-41.2z"/>
					</g>
					<g id="&lt;Group&gt;" style="opacity: .4;mix-blend-mode: screen">
						<path id="&lt;Path&gt;" class="s38" d="m211.5 394.3v9h-36.9v-9c0-4.7 3.5-8.6 7.7-8.6h21.5c4.3 0 7.7 3.9 7.7 8.6z"/>
						<path id="&lt;Path&gt;" class="s38" d="m174.6 426.4h36.9v19.1h-36.9z"/>
					</g>
					<g id="&lt;Group&gt;" style="opacity: .4;mix-blend-mode: screen">
						<path id="&lt;Path&gt;" class="s38" d="m203.9 394.3v9h-29.3v-9c0-4.7 2.8-8.6 6.1-8.6h17.1c3.4 0 6.1 3.9 6.1 8.6z"/>
						<path id="&lt;Path&gt;" class="s25" d="m174.6 426.4h29.3v19.1h-29.3z"/>
					</g>
					<path id="&lt;Path&gt;" class="s0" d="m204.5 371.4v14.3h-18.7v-14.3c0-2.1 1.8-3.9 3.9-3.9h10.9c2 0 3.6 1.5 3.9 3.4q0 0.1 0 0.1 0 0.2 0 0.4z"/>
					<path id="&lt;Path&gt;" class="s36" d="m204.5 371.4v14.3h-14.7v-14.3c0-2.1 1.4-3.9 3.1-3.9h7.7c2 0 3.6 1.5 3.9 3.4q0 0.3 0 0.5z"/>
					<path id="&lt;Path&gt;" class="s36" d="m204.5 371.4v14.3h-10.3v-14.3c0-2.1 0.9-3.9 2.1-3.9h4.3c2 0 3.6 1.5 3.9 3.4q0 0.1 0 0.1 0 0.2 0 0.4z"/>
					<path id="&lt;Path&gt;" class="s24" d="m215.8 403.3v23.1h-41.2v-23.1z"/>
					<path id="&lt;Path&gt;" class="s37" d="m211.5 403.3v23.1h-36.9v-23.1z"/>
					<path id="&lt;Path&gt;" class="s37" d="m203.9 403.3v23.1h-29.3v-23.1z"/>
				</g>
			</g>
			<g id="&lt;Group&gt;">
				<g id="&lt;Group&gt;">
					<path id="&lt;Path&gt;" class="s1" d="m602.5 442.3h-20.9v-43.6h20.9z"/>
					<path id="&lt;Path&gt;" class="s1" d="m602.5 442.3h-10.5v-43.6h10.5z"/>
				</g>
				<g id="&lt;Group&gt;">
					<path id="&lt;Path&gt;" class="s1" d="m658.3 408.2h-129.8c-3.6 0-6.5-3-6.5-6.6v-85.9c0-3.7 2.9-6.6 6.5-6.6h129.8c3.6 0 6.6 2.9 6.6 6.6v85.9c0 3.6-3 6.6-6.6 6.6z"/>
					<path id="&lt;Path&gt;" class="s39" d="m658.3 408.2h-129.8c-3.6 0-6.5-3-6.5-6.6v-85.9c0-3.7 2.9-6.6 6.5-6.6h129.8c3.6 0 6.6 2.9 6.6 6.6v85.9c0 3.6-3 6.6-6.6 6.6z"/>
					<path id="&lt;Path&gt;" class="s1" d="m658.3 408.2h-118.3c-3.7 0-6.6-3-6.6-6.6v-85.9c0-3.7 2.9-6.6 6.6-6.6h118.3c3.6 0 6.6 2.9 6.6 6.6v85.9c0 3.6-3 6.6-6.6 6.6z"/>
					<path id="&lt;Path&gt;" class="s40" d="m653.5 404.2h-108.7c-3.4 0-6.1-2.7-6.1-6.1v-78.9c0-3.4 2.7-6.1 6.1-6.1h108.7c3.3 0 6 2.7 6 6.1v78.9c0 3.4-2.7 6.1-6 6.1z"/>
					<path id="&lt;Path&gt;" class="s0" d="m652.4 397.9h-106.6v-78.5h106.6z"/>
					<path id="&lt;Path&gt;" class="s2" d="m646.5 396.7h-98.5v-72.6h98.5z"/>
					<path id="&lt;Path&gt;" class="s41" d="m652.4 397.9h-5.5v-78.5h5.5z"/>
				</g>
			</g>
			<g id="&lt;Group&gt;">
				<g id="&lt;Group&gt;">
					<path id="&lt;Path&gt;" class="s1" d="m189.6 821.1h-62.3v-238h62.3z"/>
					<path id="&lt;Path&gt;" class="s40" d="m189.6 821.1h-17.4v-182.8h17.4z"/>
				</g>
				<g id="&lt;Group&gt;">
					<path id="&lt;Path&gt;" class="s1" d="m206.1 854.2v-1.5c0-17.4-14.1-31.6-31.6-31.6h28.7c18.2 0 33 14.8 33 33.1z"/>
					<path id="&lt;Path&gt;" class="s40" d="m206.1 854.2v-1.5c0-17.4-14.1-31.6-31.6-31.6h28.7c18.2 0 33 14.8 33 33.1z"/>
					<path id="&lt;Path&gt;" class="s1" d="m206.1 852.7v1.5h-117.1v-1.5c0-17.4 14.2-31.6 31.6-31.6h53.9c17.5 0 31.6 14.2 31.6 31.6z"/>
				</g>
			</g>
			<g id="&lt;Group&gt;">
				<g id="&lt;Group&gt;">
					<path id="&lt;Path&gt;" class="s1" d="m717.1 821.1h-61.7v-262.7h61.7z"/>
					<path id="&lt;Path&gt;" class="s1" d="m717.1 821.1h-15.6v-262.7h15.6z"/>
					<path id="&lt;Path&gt;" class="s40" d="m717.1 821.1h-15.6v-197.4h15.6z"/>
				</g>
				<g id="&lt;Group&gt;">
					<path id="&lt;Path&gt;" class="s1" d="m733.7 854.2v-1.5c0-17.4-14.2-31.6-31.6-31.6h28.6c18.3 0 33.1 14.8 33.1 33.1z"/>
					<path id="&lt;Path&gt;" class="s40" d="m733.7 854.2v-1.5c0-17.4-14.2-31.6-31.6-31.6h28.6c18.3 0 33.1 14.8 33.1 33.1z"/>
					<path id="&lt;Path&gt;" class="s1" d="m733.7 852.7v1.5h-117.1v-1.5c0-17.4 14.1-31.6 31.6-31.6h53.9c17.4 0 31.6 14.2 31.6 31.6z"/>
				</g>
			</g>
			<g id="&lt;Group&gt;">
				<g id="&lt;Group&gt;">
					<g id="&lt;Group&gt;">
						<path id="&lt;Path&gt;" class="s1" d="m203.7 527.7l-120.7 3.4c-11.8-49.2-37.8-85.8-38.7-86.9h10.5 13.3l88.9 0.1c21.4 20.7 33.8 46.1 40.4 63.4 1 2.7 2 5.3 2.7 7.6 2.6 7.7 3.6 12.4 3.6 12.4z"/>
						<path id="&lt;Path&gt;" class="s40" d="m200.1 515.3l-112.7 3.1c-1.2 0.1-2.2-0.7-2.5-1.9-7.9-31.5-21.4-57.7-30.1-72.3h13.3l88.9 0.1c21.4 20.7 33.8 46.1 40.4 63.4 1 2.7 2 5.3 2.7 7.6z"/>
						<path id="&lt;Path&gt;" class="s40" d="m157 444.3c21.4 20.7 33.8 46.1 40.4 63.4l-101.2 2.7c-1.2 0.1-2.2-0.7-2.5-1.8-6.6-26.5-17.2-49.1-25.6-64.4z"/>
					</g>
					<path id="&lt;Path&gt;" class="s1" d="m83 531.1l-4.5 98.5-15.8-11.9c-8.5-6.4-14.6-16.9-16.6-28.6-9.1-54.1-10.5-102.8-1.8-144.9 0.9 1.1 26.9 37.7 38.7 86.9z"/>
					<path id="&lt;Path&gt;" class="s1" d="m78.6 533.5l-3.1 66.4c-0.2 5.3-4.8 8-8.6 5.1l-4.6-3.4c-6.8-5.1-11.6-13.5-13.2-22.8-7.4-43.5-8.5-82.7-1.5-116.5 0.7 0.9 21.1 29.7 30.7 68.5q0.3 1.3 0.3 2.7z"/>
					<path id="&lt;Path&gt;" class="s1" d="m203.7 527.7l-1.4 36.2-2.5 62.9-121.3 2.8 4.5-98.5z"/>
				</g>
				<g id="&lt;Group&gt;">
					<path id="&lt;Path&gt;" class="s1" d="m765.7 517.5l-70.3 1.1-35.6 0.6-5.3-4.7-7.2-6.4-22-19.6-11.3-9.9-41.1-36.5-1.2-1.1h91.2 0.1q1.2 0 2.4 0.1c2.7 0.3 5.4 1.2 8 2.5 15.5 8.3 63.7 35.2 84.6 59.2 3.8 4.3 6.3 9.4 7.7 14.7z"/>
					<path id="&lt;Path&gt;" class="s40" d="m747.5 513l-64 1-29 0.5-7.2-6.4-22-19.6-11.3-9.9-41.1-36.5-1.2-1.1h91.2 0.1q1.2 0 2.4 0.1c18.5 10.1 61.3 34.9 80.7 57.1 2.2 2.6 4 5.4 5.4 8.3 1.4 3-0.7 6.4-4 6.5z"/>
					<path id="&lt;Path&gt;" class="s40" d="m734.2 506.7l-64 1.1-22.9 0.3-22-19.6-11.3-9.9-41.1-36.5-1.2-1.1h91.2 0.1c21.1 12.1 53.6 32.4 69.8 51 2.2 2.5 4 5.3 5.4 8.3 1.4 3-0.7 6.4-4 6.4z"/>
					<g id="&lt;Group&gt;">
						<g id="&lt;Group&gt;">
							<path id="&lt;Path&gt;" class="s25" d="m667.5 491.9h-22.2l-11-6.6 22.1-0.1z"/>
							<path id="&lt;Path&gt;" class="s13" d="m700 491.8l-22.3 0.1-11-6.7h22.2z"/>
							<path id="&lt;Path&gt;" class="s25" d="m732.6 491.8h-22.3l-11.1-6.7h22.3z"/>
						</g>
						<g id="&lt;Group&gt;">
							<path id="&lt;Path&gt;" class="s42" d="m684.1 503.4h-22.2l-11-6.7h22.2z"/>
							<path id="&lt;Path&gt;" class="s25" d="m716.7 503.4h-22.3l-11-6.7h22.2z"/>
							<path id="&lt;Path&gt;" class="s42" d="m749.3 503.3l-22.3 0.1-11.1-6.7 22.3-0.1z"/>
						</g>
					</g>
					<path id="&lt;Path&gt;" class="s1" d="m766.2 531.2l-11.1 67c-1.5 9.2-9.3 16-18.6 16.3l-72.3 2.2h-0.1l-20.6 0.4c0.8-2.3 8.3-25.2 13.2-52.7 2.6-14.2 4.4-29.7 4.3-44.1l-1.2-1.1 35.6-0.6 70.2-1.1c1.1 4.5 1.4 9.1 0.6 13.7z"/>
					<path id="&lt;Path&gt;" class="s1" d="m203.7 527.7l-1.4 36.2-2.5 62.9-121.3 2.8 4.5-98.5z"/>
					<path id="&lt;Path&gt;" class="s40" d="m203.7 527.7l-1.4 36.2-1.9 47.8-0.6 15.1-121.3 2.8 4.5-98.5 14.9-0.4z"/>
					<path id="&lt;Path&gt;" class="s40" d="m193.1 534.5c1.6 0 2.9 1.3 2.9 2.9l-1.3 33.2-1.8 45.1c-0.1 1.5-1.3 2.7-2.8 2.7l-100.6 2.3c-1.7 0.1-3-1.3-2.9-2.9l3.6-77.8c0-1.5 1.2-2.7 2.7-2.7z"/>
					<path id="&lt;Path&gt;" class="s40" d="m178.7 545.8c1.7 0 3 1.3 2.9 2.9l-0.9 23.7-1.3 32.7c-0.1 1.5-1.3 2.6-2.8 2.7l-72.8 1.6c-1.6 0.1-2.9-1.3-2.9-2.9l2.6-56c0.1-1.5 1.3-2.7 2.8-2.7z"/>
					<path id="&lt;Path&gt;" class="s40" d="m766.2 531.2l-11.1 67c-1.5 9.2-9.3 16-18.6 16.3l-72.3 2.2h-0.1l-20.6 0.4c0.8-2.3 8.3-25.2 13.2-52.7 2.6-14.2 4.4-29.7 4.3-44.1l-1.2-1.1 35.6-0.6 70.2-1.1c1.1 4.5 1.4 9.1 0.6 13.7z"/>
					<path id="&lt;Path&gt;" class="s40" d="m756 537.1l-9.2 55.8c-1.3 7.7-7.8 13.4-15.5 13.6l-60.3 1.8h-0.1l-17.2 0.4c0.6-1.9 6.9-21 11-43.9v-0.1c2.2-11.8 3.7-24.7 3.6-36.7l-1-0.9 29.7-0.5 58.5-0.9c1 3.7 1.2 7.6 0.5 11.4z"/>
					<path id="&lt;Path&gt;" class="s40" d="m746.7 542.5l-7.6 45.6c-1 6.3-6.3 10.9-12.6 11.1l-49.3 1.5h-0.1l-14 0.3c0.5-1.6 5.6-17.1 9-35.9 1.7-9.7 3-20.2 2.9-30.1l-0.8-0.7 24.2-0.4 47.9-0.7c0.7 3 0.9 6.2 0.4 9.3z"/>
					<path id="&lt;Path&gt;" class="s1" d="m664.1 616.7l-20.7 0.6q0 0 0.1-0.2z"/>
					<path id="&lt;Path&gt;" class="s1" d="m661 520.3c0.1 14.4-1.7 29.9-4.3 44.1-4.9 27.5-12.4 50.4-13.2 52.7q-0.1 0.2-0.1 0.2l-50.8-53-17.5-18.3-3.4-105 1.2 1.1 41.1 36.5 11.3 9.9 34.5 30.7z"/>
					<path id="&lt;Path&gt;" class="s1" d="m656.7 564.3v0.1c-4.9 27.5-12.4 50.4-13.2 52.7h-0.2l-443.5 9.7 2.5-62.9 390.3 0.4z"/>
				</g>
				<path id="&lt;Path&gt;" class="s1" d="m625.2 485.5l1.6 50.4-52-0.1-371.4-1.3h-8.2l-2.7-6.4-18.8-44.4-16.7-39.4 80.3-0.6 334.4-1.6v-1.1l1.3 1.1 43.7 36.4z"/>
				<path id="&lt;Path&gt;" class="s40" d="m626.8 523.3l-407.2 2h-7.8l-2.5-5.8-17.7-39.8-15.7-35.4 75.7-0.7 314.9-1.9v-1l1.2 1z"/>
				<path id="&lt;Path&gt;" class="s40" d="m616.3 517l-390.2 1.5h-7.4l-2.5-4.6-16.7-32.1-14.9-28.6 72.7-0.9 303-3.2v-0.8l1.2 0.8z"/>
			</g>
			<g id="&lt;Group&gt;">
				<path id="&lt;Path&gt;" class="s1" d="m630.9 478.4l-14.2 0.1-2.7 0.1-41.1 0.4-386.6 4.6-12.6 0.1-21.6 0.3c-2.3 0-4.5-1.4-5.8-3.7l-19.4-34.5q-0.4-0.7-0.7-1.5 0 0 0-0.1h3 11.4l96.7-0.5 334.4-1.6v-1.1h27.2l1.7 0.9 33.8 19.6c7.9 4.6 5.3 16.7-3.5 16.9z"/>
				<path id="&lt;Path&gt;" class="s40" d="m615.1 472.7l-13.7 0.1-2.6 0.1-39.7 0.4-373.6 4.6-12.2 0.2-20.9 0.2c-2.2 0.1-4.3-1.2-5.5-3.4l-17.7-30.7h11.4l96.7-0.5 334.4-1.6v-1.1h18.7l28.1 15.8c7.6 4.3 5.1 15.7-3.4 15.9z"/>
				<path id="&lt;Path&gt;" class="s43" d="m599.9 468.2l-13 0.1-2.5 0.1-37.8 0.4-355.3 4-11.6 0.1-19.8 0.2c-2.1 0-4.1-1.3-5.3-3.4l-14-25.5 96.7-0.5 334.4-1.6v-1.1h12.2l19.2 11.4c7.3 4.3 4.9 15.7-3.2 15.8z"/>
			</g>
			<g id="&lt;Group&gt;">
				<path id="&lt;Path&gt;" class="s19" d="m585 343.5h-31.1v-12.2h31.1z"/>
				<path id="&lt;Path&gt;" class="s25" d="m638 383.4h-84.1v-11.7h84.1z"/>
				<path id="&lt;Path&gt;" class="s13" d="m622 362.2h-68.1v-11.3h68.1z"/>
			</g>
			<g id="&lt;Group&gt;">
				<g id="&lt;Group&gt;">
					<path id="&lt;Path&gt;" class="s18" d="m727.6 888.9q-2.7-0.7-5.3-1.4-2.8-0.7-5.5-1.6-2.1-0.6-4.1-1.2-2.1-0.7-4.1-1.4-2.8-1-5.5-2-4.9-1.8-9.7-4-1.3-0.5-2.7-1.2-1.3-0.6-2.7-1.2-1.9-0.9-3.8-1.9-2.7-1.3-5.3-2.8-2.5-1.4-4.9-2.8-0.5-0.3-0.9-0.6-1.9-1.1-3.8-2.4-0.6-0.4-1.1-0.7-1.7-1.2-3.4-2.4-0.6-0.5-1.2-0.9-1.5-1.2-3-2.4-0.6-0.5-1.3-1.1-1.4-1.1-2.7-2.4-0.6-0.5-1.3-1.1-1.3-1.3-2.5-2.6-1.7-1.7-3.3-3.6-0.4-0.5-0.9-1-0.6-0.8-1.3-1.6-1.1-1.4-2.2-2.9-0.5-0.6-0.9-1.3-1.1-1.6-2.1-3.1-0.3-0.5-0.6-1.1-1.1-1.9-2.2-3.9-0.3-0.5-0.5-1.1-1.1-2-2-4.2-0.2-0.5-0.4-1-0.9-2.2-1.7-4.5-0.1-0.3-0.2-0.5-0.7-2.3-1.3-4.6-0.1-0.5-0.3-0.9-0.6-2.5-1-5-0.1-0.5-0.2-1.1-0.4-2.6-0.7-5.2-0.1-0.5-0.1-1-0.3-2.8-0.4-5.7-0.1-2.6-0.1-5.1 0-0.5 0-1.1 0.1-2.2 0.2-4.3 0-0.4 0-0.7 0.2-2.4 0.4-4.7 0.1-0.7 0.2-1.5 0.1-1.5 0.4-3.1 0.1-0.8 0.2-1.7 0.4-2.4 0.8-4.7 0.2-0.8 0.4-1.5 0.4-2.2 0.9-4.3 0.2-0.6 0.3-1.3 0.6-2 1.1-4.1 0.3-0.8 0.5-1.5 0.6-2.2 1.3-4.4 0.3-0.8 0.6-1.6 0.6-1.8 1.2-3.6 0.3-0.8 0.6-1.6 0.7-1.9 1.5-3.8 0.3-0.9 0.7-1.8 0.8-2 1.6-4 0.5-1 0.9-2 0.5-1.2 1.1-2.5 0.8-1.9 1.7-3.9 0.4-0.8 0.7-1.5c5.1-11.1 10.6-22.2 15.7-33.7q0.1-0.3 0.3-0.5 1.1-2.7 2.2-5.3c14.5-34.8 11.3-75.5-5.7-108.9-4.5-8.9-10.5-16.6-17.6-23.1-14.7-13.2-33.9-20.9-54.3-20.9h-10.6-59.3-52.2-46.3-72.6-59.2-52.2-1.3-28.8c8.2 6 15.5 13.1 21.8 20.9 29.4 36.1 38.7 88.7 20.7 132-11 26.4-26.5 50.2-32.8 78.6q-1.1 4.7-1.8 9.6c-3.1 21.4-0.5 43.9 10.9 62.2q2.7 4.3 6 8.3c10.7 12.8 25.5 22 41.1 28.2 25 9.9 52.8 16 81.2 19.7h404.5c-10.3-1.3-20.2-3.1-29.8-5.4z"/>
				</g>
				<path id="&lt;Path&gt;" class="s41" d="m642.6 555.7c-14.7 0.1-406.5 0-415 0-6.3-7.8-13.6-14.9-21.8-20.9h382.5c20.4 0 39.6 7.7 54.3 20.9z"/>
				<g id="&lt;Group&gt;">
					<path id="&lt;Path&gt;" class="s0" d="m649.2 613.2h-358.5q-0.7-3.5-1.4-7h358.5q0.7 3.5 1.4 7z"/>
					<path id="&lt;Path&gt;" class="s0" d="m649.6 664.7q-0.5 3.5-1.3 7h-358.5q0.8-3.5 1.4-7z"/>
					<path id="&lt;Path&gt;" class="s0" d="m629 725q-0.5 1.1-0.9 2.2-0.3 0.7-0.6 1.5-0.7 1.6-1.3 3.3h-358.9q1.4-3.5 2.8-7z"/>
					<path id="&lt;Path&gt;" class="s0" d="m409.8 750.5v7.9h-151q1-4 2.1-7.9z"/>
					<path id="&lt;Path&gt;" class="s0" d="m531.1 788.9h-169.6v-7.9h169.6z"/>
					<path id="&lt;Path&gt;" class="s0" d="m418.4 817.2v7.9h-159.1q-1.2-3.9-2.1-7.9z"/>
					<path id="&lt;Path&gt;" class="s0" d="m444.4 633v7.9h-151.3q0-4-0.2-7.9z"/>
					<path id="&lt;Path&gt;" class="s0" d="m619.9 750.5q-0.2 0.7-0.5 1.4-0.2 0.8-0.4 1.6-0.6 2.2-1.2 4.4 0 0.2-0.1 0.5h-160.9v-7.9z"/>
					<path id="&lt;Path&gt;" class="s0" d="m439 693.7v7.8h-159.1q1.6-3.9 3.1-7.8z"/>
					<path id="&lt;Path&gt;" class="s0" d="m641.5 693.7q-1.5 3.9-3.1 7.8h-152.4v-7.8z"/>
				</g>
			</g>
		</g>
		<g id="&lt;Group&gt;">
			<path id="&lt;Path&gt;" class="s0" d="m303.5 911.2c0 6.6-62.8 12-140.3 12-77.6 0-140.4-5.4-140.4-12 0-6.6 62.8-12 140.4-12 77.5 0 140.3 5.4 140.3 12z"/>
			<g id="&lt;Group&gt;">
				<g id="&lt;Group&gt;">
					<g id="&lt;Group&gt;">
						<path id="&lt;Path&gt;" class="s19" d="m187.9 653.6v172.1c0 9.1-53.7 9.1-53.7 0v-172.1c0 0.9 0.8 1.8 2.1 2.6 1.2 0.6 2.8 1.2 4.7 1.7 2 0.6 4.3 1 6.9 1.4 3.9 0.5 8.4 0.8 13.1 0.8 4.8 0 9.3-0.3 13.2-0.8q3.9-0.5 6.8-1.4c2-0.5 3.6-1.1 4.7-1.7 1.4-0.8 2.2-1.7 2.2-2.6z"/>
						<path id="&lt;Path&gt;" class="s44" d="m185.7 656.2v167.5c0 9.3-49.4 9.3-49.4 0v-167.5c1.2 0.6 2.8 1.2 4.7 1.7 2 0.6 4.3 1 6.9 1.4 3.9 0.5 8.4 0.8 13.1 0.8 4.8 0 9.3-0.3 13.2-0.8q3.9-0.5 6.8-1.4c2-0.5 3.6-1.1 4.7-1.7z"/>
						<path id="&lt;Path&gt;" class="s44" d="m181 657.9v161.7c0 9.3-40 9.3-40 0v-161.7c2 0.6 4.3 1 6.9 1.4 3.9 0.5 8.4 0.8 13.1 0.8 4.8 0 9.3-0.3 13.2-0.8q3.9-0.5 6.8-1.4z"/>
						<path id="&lt;Path&gt;" class="s44" d="m161 660.1c4.8 0 9.3-0.3 13.2-0.8v156.5c0 8.9-26.3 8.9-26.3 0v-156.5c3.9 0.5 8.4 0.8 13.1 0.8z"/>
					</g>
					<path id="&lt;Path&gt;" class="s19" d="m187.9 653.6c0 3.6-12 6.5-26.9 6.5-14.8 0-26.8-2.9-26.8-6.5 0-3.5 12-6.4 26.8-6.4 14.9 0 26.9 2.9 26.9 6.4z"/>
					<path id="&lt;Path&gt;" class="s45" d="m187.9 653.6c0 3.6-12 6.5-26.9 6.5-14.8 0-26.8-2.9-26.8-6.5 0-3.5 12-6.4 26.8-6.4 14.9 0 26.9 2.9 26.9 6.4z"/>
					<path id="&lt;Path&gt;" class="s44" d="m184.1 653.6c0 3.1-10.3 5.6-23.1 5.6-12.7 0-23-2.5-23-5.6 0-3 10.3-5.5 23-5.5 12.8 0 23.1 2.5 23.1 5.5z"/>
					<path id="&lt;Path&gt;" class="s19" d="m187.9 653.7v102l23.8-88.9c-1.4-8.7-10.5-12.4-23.8-13.1z"/>
					<path id="&lt;Path&gt;" class="s44" d="m208.5 667.6l-19.9 74.4 4.1-85.3c8.9 1.2 14.7 4.4 15.8 10.9z"/>
					<path id="&lt;Path&gt;" class="s45" d="m192.9 654.1l-0.2 2.6-4.1 85.3-0.7 13.7v-102.1q2.6 0.2 5 0.5z"/>
				</g>
				<g id="&lt;Group&gt;">
					<g id="&lt;Group&gt;">
						<path id="&lt;Path&gt;" class="s42" d="m108.5 651.9l44.4 166.3c2.3 8.7-49.5 22.6-51.9 13.8l-44.3-166.2c0.2 0.8 1.2 1.5 2.7 1.9 1.3 0.3 3 0.5 5 0.5 2 0 4.4-0.2 6.9-0.5 3.9-0.5 8.4-1.4 13-2.6 4.6-1.2 8.9-2.7 12.5-4.2q3.6-1.5 6.2-3.1c1.8-1 3.2-2 4.1-2.9 1.2-1.1 1.7-2.1 1.4-3z"/>
						<path id="&lt;Path&gt;" class="s46" d="m107.1 654.9l43.2 161.9c2.4 9-45.3 21.7-47.7 12.7l-43.2-161.8c1.3 0.3 3 0.5 5 0.5 2 0 4.4-0.2 6.9-0.5 3.9-0.5 8.4-1.4 13-2.6 4.6-1.2 8.9-2.7 12.5-4.2q3.6-1.5 6.2-3.1c1.8-1 3.2-2 4.1-2.9z"/>
						<path id="&lt;Path&gt;" class="s46" d="m103 657.8l41.7 156.2c2.4 9-36.2 19.3-38.6 10.4l-41.7-156.2c2 0 4.4-0.2 6.9-0.5 3.9-0.5 8.4-1.4 13-2.6 4.6-1.2 8.9-2.7 12.5-4.2q3.6-1.5 6.2-3.1z"/>
						<path id="&lt;Path&gt;" class="s46" d="m84.3 665.1c4.6-1.2 8.9-2.7 12.5-4.2l40.3 151.2c2.3 8.6-23.1 15.4-25.4 6.8l-40.4-151.2c3.9-0.5 8.4-1.4 13-2.6z"/>
					</g>
					<path id="&lt;Path&gt;" class="s42" d="m108.5 651.9c1 3.5-9.9 9.4-24.2 13.2-14.3 3.8-26.7 4.1-27.6 0.7-0.9-3.5 9.9-9.4 24.3-13.2 14.3-3.8 26.6-4.1 27.5-0.7z"/>
					<path id="&lt;Path&gt;" class="s47" d="m108.5 651.9c1 3.5-9.9 9.4-24.2 13.2-14.3 3.8-26.7 4.1-27.6 0.7-0.9-3.5 9.9-9.4 24.3-13.2 14.3-3.8 26.6-4.1 27.5-0.7z"/>
					<path id="&lt;Path&gt;" class="s46" d="m104.9 652.9c0.8 3-8.6 8-20.9 11.3-12.3 3.3-22.9 3.5-23.7 0.6-0.7-2.9 8.6-8 20.9-11.3 12.3-3.3 22.9-3.5 23.7-0.6z"/>
					<path id="&lt;Path&gt;" class="s42" d="m108.6 651.9l26.3 98.6v-92c-3.6-8.1-13.3-9.2-26.3-6.6z"/>
					<path id="&lt;Path&gt;" class="s46" d="m132 660.1v77l-18-83.5c8.9-1.1 15.4 0.5 18 6.5z"/>
					<path id="&lt;Path&gt;" class="s47" d="m113.5 651.1l0.5 2.5 18 83.5 2.9 13.4-26.4-98.6q2.6-0.5 5-0.8z"/>
				</g>
				<g id="&lt;Group&gt;">
					<g id="&lt;Group&gt;">
						<path id="&lt;Path&gt;" class="s38" d="m66.1 713.1l122.3 121.1c6.4 6.4-39.6 52.8-46 46.4l-122.3-121c0.7 0.6 1.9 0.5 3.7-0.1 1.4-0.6 3.2-1.5 5.2-2.8 2.1-1.3 4.4-3 6.8-5 3.7-3 7.8-6.7 11.9-10.8 4.1-4.1 7.7-8.2 10.7-12 2-2.5 3.6-4.8 4.9-6.8 1.3-2.1 2.2-3.9 2.8-5.3 0.6-1.8 0.7-3 0-3.7z"/>
						<path id="&lt;Path&gt;" class="s48" d="m66.1 716.8l119 117.8c6.6 6.6-35.7 49.3-42.3 42.8l-119-117.9c1.4-0.6 3.2-1.5 5.2-2.8 2.1-1.3 4.4-3 6.8-5 3.7-3 7.8-6.7 11.9-10.8 4.1-4.1 7.7-8.2 10.7-12 2-2.5 3.6-4.8 4.9-6.8 1.3-2.1 2.2-3.9 2.8-5.3z"/>
						<path id="&lt;Path&gt;" class="s48" d="m63.3 722.1l114.9 113.7c6.6 6.6-27.7 41.2-34.3 34.6l-114.9-113.7c2.1-1.3 4.4-3 6.8-5 3.7-3 7.8-6.7 11.9-10.8 4.1-4.1 7.7-8.2 10.7-12 2-2.5 3.6-4.8 4.9-6.8z"/>
						<path id="&lt;Path&gt;" class="s48" d="m47.7 740.9c4.1-4.1 7.7-8.2 10.7-12l111.2 110.2c6.3 6.2-16.2 29-22.5 22.8l-111.3-110.2c3.7-3 7.8-6.7 11.9-10.8z"/>
					</g>
					<path id="&lt;Path&gt;" class="s38" d="m66.1 713.1c2.5 2.5-5.7 15-18.4 27.8-12.7 12.8-25 21.2-27.6 18.7-2.5-2.5 5.7-15 18.4-27.8 12.7-12.8 25.1-21.2 27.6-18.7z"/>
					<path id="&lt;Path&gt;" class="s49" d="m66.1 713.1c2.5 2.5-5.7 15-18.4 27.8-12.7 12.8-25 21.2-27.6 18.7-2.5-2.5 5.7-15 18.4-27.8 12.7-12.8 25.1-21.2 27.6-18.7z"/>
					<path id="&lt;Path&gt;" class="s48" d="m62.9 716.4c2.1 2.2-4.9 12.8-15.8 23.8-10.9 11.1-21.6 18.2-23.7 16.1-2.2-2.2 4.9-12.8 15.8-23.8 10.9-11.1 21.5-18.2 23.7-16.1z"/>
					<path id="&lt;Path&gt;" class="s38" d="m66.1 713.1l72.5 71.8-42.7-83.1c-7.5-4.9-17.8 0.4-29.8 11.3z"/>
					<path id="&lt;Path&gt;" class="s50" d="m93.7 705.2l35.8 69.5-57.1-63.6c8.5-6.8 15.8-9.6 21.3-5.9z"/>
					<path id="&lt;Path&gt;" class="s51" d="m70.7 709.1l1.7 2 57.1 63.6 9.1 10.2-72.5-71.8q2.4-2.1 4.6-4z"/>
				</g>
				<g id="&lt;Group&gt;">
					<g id="&lt;Group&gt;">
						<path id="&lt;Path&gt;" class="s30" d="m187.8 684.9l-12.9 171.6c-0.7 9 62.3 13.8 63 4.7l12.9-171.6c0 0.9-1 1.7-2.7 2.4-1.4 0.5-3.3 1-5.6 1.3-2.3 0.4-5.1 0.6-8.1 0.7-4.6 0.2-9.9 0.1-15.6-0.3-5.6-0.4-10.8-1.1-15.3-2-3-0.6-5.7-1.2-8-1.9-2.2-0.7-4-1.4-5.4-2.2-1.5-0.9-2.3-1.8-2.3-2.7z"/>
						<path id="&lt;Path&gt;" class="s52" d="m190.1 687.6l-12.6 167c-0.7 9.3 57.3 13.7 58 4.4l12.6-167c-1.4 0.5-3.3 1-5.6 1.3-2.3 0.4-5.1 0.6-8.1 0.7-4.6 0.2-9.9 0.1-15.6-0.3-5.6-0.4-10.8-1.1-15.3-2-3-0.6-5.7-1.2-8-1.9-2.2-0.7-4-1.4-5.4-2.2z"/>
						<path id="&lt;Path&gt;" class="s52" d="m195.5 689.8l-12.1 161.2c-0.7 9.3 46.2 12.8 46.9 3.5l12.2-161.2c-2.3 0.4-5.1 0.6-8.1 0.7-4.6 0.2-9.9 0.1-15.6-0.3-5.6-0.4-10.8-1.1-15.3-2-3-0.6-5.7-1.2-8-1.9z"/>
						<path id="&lt;Path&gt;" class="s52" d="m218.8 693.7c-5.6-0.4-10.8-1.1-15.3-2l-11.8 156.1c-0.7 8.9 30.2 11.2 30.9 2.4l11.8-156.2c-4.6 0.2-9.9 0.1-15.6-0.3z"/>
					</g>
					<path id="&lt;Path&gt;" class="s30" d="m187.8 684.9c-0.2 3.5 13.6 7.5 31 8.8 17.4 1.3 31.8-0.5 32-4.1 0.3-3.5-13.6-7.4-31-8.8-17.4-1.3-31.7 0.6-32 4.1z"/>
					<path id="&lt;Path&gt;" class="s53" d="m187.8 684.9c-0.2 3.5 13.6 7.5 31 8.8 17.4 1.3 31.8-0.5 32-4.1 0.3-3.5-13.6-7.4-31-8.8-17.4-1.3-31.7 0.6-32 4.1z"/>
					<path id="&lt;Path&gt;" class="s52" d="m192.3 685.2c-0.3 3.1 11.7 6.5 26.6 7.6 15 1.1 27.3-0.4 27.5-3.5 0.2-3-11.7-6.4-26.7-7.5-14.9-1.2-27.2 0.4-27.4 3.4z"/>
					<path id="&lt;Path&gt;" class="s30" d="m187.8 684.9l-7.7 101.7-21.2-90.7c2.3-8.6 13.2-11.4 28.9-11z"/>
					<path id="&lt;Path&gt;" class="s52" d="m162.6 697l17.8 75.9 1.5-85.4c-10.5 0.4-17.6 3.1-19.3 9.5z"/>
					<path id="&lt;Path&gt;" class="s53" d="m181.9 684.9v2.6l-1.5 85.4-0.3 13.7 7.7-101.7q-3.1-0.1-5.9 0z"/>
				</g>
				<g id="&lt;Group&gt;">
					<g id="&lt;Group&gt;">
						<path id="&lt;Path&gt;" class="s54" d="m306.4 719.9l-52.4 163.9c-2.8 8.7-53.9-7.7-51.1-16.3l52.4-163.9c-0.3 0.9 0.2 1.9 1.2 3.1 1 0.9 2.3 2 4 3.1 1.7 1.1 3.7 2.2 6.1 3.3 3.5 1.7 7.7 3.4 12.3 4.8 4.5 1.5 8.9 2.6 12.8 3.2q3.8 0.7 6.9 0.9c2 0.1 3.7 0 5-0.3 1.5-0.3 2.5-0.9 2.8-1.8z"/>
						<path id="&lt;Path&gt;" class="s55" d="m303.6 721.7l-51 159.6c-2.8 8.8-49.9-6.2-47.1-15.1l51-159.5c1 0.9 2.3 2 4 3.1 1.7 1.1 3.7 2.2 6.1 3.3 3.5 1.7 7.7 3.4 12.3 4.8 4.5 1.5 8.9 2.6 12.8 3.2q3.8 0.7 6.9 0.9c2 0.1 3.7 0 5-0.3z"/>
						<path id="&lt;Path&gt;" class="s55" d="m298.6 722l-49.2 153.9c-2.9 8.9-41-3.3-38.2-12.1l49.3-154c1.7 1.1 3.7 2.2 6.1 3.3 3.5 1.7 7.7 3.4 12.3 4.8 4.5 1.5 8.9 2.6 12.8 3.2q3.8 0.7 6.9 0.9z"/>
						<path id="&lt;Path&gt;" class="s55" d="m278.9 717.9c4.5 1.5 8.9 2.6 12.8 3.2l-47.7 149.2c-2.7 8.4-27.8 0.4-25.1-8.1l47.7-149.1c3.5 1.7 7.7 3.4 12.3 4.8z"/>
					</g>
					<path id="&lt;Path&gt;" class="s54" d="m306.4 719.9c-1.1 3.4-13.4 2.5-27.5-2-14.1-4.5-24.7-10.9-23.6-14.3 1.1-3.4 13.4-2.5 27.5 2 14.1 4.5 24.7 11 23.6 14.3z"/>
					<path id="&lt;Path&gt;" class="s56" d="m306.4 719.9c-1.1 3.4-13.4 2.5-27.5-2-14.1-4.5-24.7-10.9-23.6-14.3 1.1-3.4 13.4-2.5 27.5 2 14.1 4.5 24.7 11 23.6 14.3z"/>
					<path id="&lt;Path&gt;" class="s55" d="m302.8 718.8c-0.9 2.9-11.5 2.1-23.6-1.7-12.2-3.9-21.2-9.4-20.3-12.3 0.9-2.9 11.5-2.2 23.6 1.7 12.1 3.9 21.2 9.4 20.3 12.3z"/>
					<path id="&lt;Path&gt;" class="s54" d="m306.4 720l-31.1 97.1 49.7-77.3c1.4-8.8-6.1-15-18.6-19.8z"/>
					<path id="&lt;Path&gt;" class="s55" d="m321.8 739.5l-41.7 64.8 30-80c8.1 3.9 12.6 8.7 11.7 15.2z"/>
					<path id="&lt;Path&gt;" class="s56" d="m311 721.9l-0.9 2.4-30 80-4.8 12.8 31.1-97.2q2.4 1 4.6 2z"/>
				</g>
				<g id="&lt;Group&gt;">
					<path id="&lt;Path&gt;" class="s57" d="m148.6 909.1h-82.8c-4.4 0-8-3.6-8-8.1v-109h90.8z"/>
					<path id="&lt;Path&gt;" class="s58" d="m146.9 900.7h-76.8c-4.1 0-7.5-3.3-7.5-7.5v-101.2h84.3z"/>
					<path id="&lt;Path&gt;" class="s58" d="m142.7 889.9h-69.2c-3.7 0-6.7-3-6.7-6.7v-91.2h75.9z"/>
					<path id="&lt;Compound Path&gt;" fill-rule="evenodd" class="s57" d="m292.5 792v109c0 4.5-3.6 8.1-8 8.1h-142v-117.1zm-52.2 26.8v-15.6h-43.7v15.6z"/>
					<path id="&lt;Compound Path&gt;" class="s58" d="m147.9 792v108.7h131.8c4.1 0 7.5-3.3 7.5-7.5v-101.2z"/>
					<path id="&lt;Compound Path&gt;" class="s58" d="m154.8 792v97.9h118.7c3.7 0 6.7-3 6.7-6.7v-91.2z"/>
					<g id="&lt;Group&gt;">
						<path id="&lt;Path&gt;" class="s1" d="m248.7 803.2v15.6h-8.3v-15.6z"/>
					</g>
				</g>
			</g>
			<g id="&lt;Group&gt;">
				<g id="&lt;Group&gt;">
					<g id="&lt;Group&gt;">
						<path id="&lt;Path&gt;" class="s13" d="m131.6 858v9h-41.2v-9c0-4.7 3.9-8.5 8.6-8.5h24c4.7 0 8.6 3.8 8.6 8.5z"/>
						<path id="&lt;Path&gt;" class="s13" d="m90.4 890.1h41.2v19.1h-41.2z"/>
					</g>
					<g id="&lt;Group&gt;" style="opacity: .4;mix-blend-mode: screen">
						<path id="&lt;Path&gt;" class="s13" d="m127.3 858v9h-36.9v-9c0-4.7 3.5-8.5 7.7-8.5h21.5c4.3 0 7.7 3.8 7.7 8.5z"/>
						<path id="&lt;Path&gt;" class="s13" d="m90.4 890.1h36.9v19.1h-36.9z"/>
					</g>
					<g id="&lt;Group&gt;" style="opacity: .4;mix-blend-mode: screen">
						<path id="&lt;Path&gt;" class="s13" d="m119.7 858v9h-29.3v-9c0-4.7 2.8-8.5 6.1-8.5h17.1c3.4 0 6.1 3.8 6.1 8.5z"/>
						<path id="&lt;Path&gt;" class="s13" d="m90.4 890.1h29.3v19.1h-29.3z"/>
					</g>
					<path id="&lt;Path&gt;" class="s0" d="m120.3 835.2v14.3h-18.7v-14.3c0-2.2 1.8-3.9 3.9-3.9h10.9c2 0 3.6 1.4 3.9 3.3q0 0.1 0 0.2 0 0.2 0 0.4z"/>
					<path id="&lt;Path&gt;" class="s36" d="m120.3 835.2v14.3h-14.7v-14.3c0-2.2 1.4-3.9 3.1-3.9h7.7c2 0 3.6 1.4 3.9 3.3q0 0.3 0 0.6z"/>
					<path id="&lt;Path&gt;" class="s36" d="m120.3 835.2v14.3h-10.3v-14.3c0-2.2 0.9-3.9 2.1-3.9h4.3c2 0 3.6 1.4 3.9 3.3q0 0.1 0 0.2 0 0.2 0 0.4z"/>
					<path id="&lt;Path&gt;" class="s24" d="m131.6 867v23.1h-41.2v-23.1z"/>
					<path id="&lt;Path&gt;" class="s37" d="m127.3 867v23.1h-36.9v-23.1z"/>
					<path id="&lt;Path&gt;" class="s37" d="m119.7 867v23.1h-29.3v-23.1z"/>
				</g>
				<g id="&lt;Group&gt;">
					<g id="&lt;Group&gt;">
						<path id="&lt;Path&gt;" class="s38" d="m179.9 858v9h-41.2v-9c0-4.7 3.9-8.5 8.6-8.5h24c4.7 0 8.6 3.8 8.6 8.5z"/>
						<path id="&lt;Path&gt;" class="s38" d="m138.7 890.1h41.2v19.1h-41.2z"/>
					</g>
					<g id="&lt;Group&gt;" style="opacity: .4;mix-blend-mode: screen">
						<path id="&lt;Path&gt;" class="s25" d="m175.6 858v9h-36.9v-9c0-4.7 3.5-8.5 7.7-8.5h21.6c4.2 0 7.6 3.8 7.6 8.5z"/>
						<path id="&lt;Path&gt;" class="s25" d="m138.7 890.1h36.9v19.1h-36.9z"/>
					</g>
					<g id="&lt;Group&gt;" style="opacity: .4;mix-blend-mode: screen">
						<path id="&lt;Path&gt;" class="s25" d="m168 858v9h-29.3v-9c0-4.7 2.8-8.5 6.2-8.5h17c3.4 0 6.1 3.8 6.1 8.5z"/>
						<path id="&lt;Path&gt;" class="s25" d="m138.7 890.1h29.3v19.1h-29.3z"/>
					</g>
					<path id="&lt;Path&gt;" class="s0" d="m168.6 835.2v14.3h-18.6v-14.3c0-2.2 1.7-3.9 3.9-3.9h10.8c2 0 3.6 1.4 3.9 3.3q0 0.1 0 0.2 0 0.2 0 0.4z"/>
					<path id="&lt;Path&gt;" class="s36" d="m168.6 835.2v14.3h-14.7v-14.3c0-2.2 1.4-3.9 3.1-3.9h7.7c2 0 3.6 1.4 3.9 3.3q0.1 0.3 0 0.6z"/>
					<path id="&lt;Path&gt;" class="s36" d="m168.6 835.2v14.3h-10.3v-14.3c0-2.2 1-3.9 2.1-3.9h4.3c2 0 3.6 1.4 3.9 3.3q0 0.1 0 0.2 0 0.2 0 0.4z"/>
					<path id="&lt;Path&gt;" class="s24" d="m179.9 867v23.1h-41.2v-23.1z"/>
					<path id="&lt;Path&gt;" class="s37" d="m175.6 867v23.1h-36.9v-23.1z"/>
					<path id="&lt;Path&gt;" class="s37" d="m168 867v23.1h-29.3v-23.1z"/>
				</g>
				<g id="&lt;Group&gt;">
					<g id="&lt;Group&gt;">
						<path id="&lt;Path&gt;" class="s30" d="m227.8 858v9h-41.1v-9c0-4.7 3.8-8.5 8.6-8.5h24c4.7 0 8.5 3.8 8.5 8.5z"/>
						<path id="&lt;Path&gt;" class="s30" d="m186.7 890.1h41.1v19.1h-41.1z"/>
					</g>
					<g id="&lt;Group&gt;" style="opacity: .4;mix-blend-mode: screen">
						<path id="&lt;Path&gt;" class="s30" d="m223.6 858v9h-36.9v-9c0-4.7 3.4-8.5 7.7-8.5h21.5c4.2 0 7.7 3.8 7.7 8.5z"/>
						<path id="&lt;Path&gt;" class="s30" d="m186.7 890.1h36.9v19.1h-36.9z"/>
					</g>
					<g id="&lt;Group&gt;" style="opacity: .4;mix-blend-mode: screen">
						<path id="&lt;Path&gt;" class="s30" d="m216 858v9h-29.3v-9c0-4.7 2.7-8.5 6.1-8.5h17.1c3.3 0 6.1 3.8 6.1 8.5z"/>
						<path id="&lt;Path&gt;" class="s30" d="m186.7 890.1h29.3v19.1h-29.3z"/>
					</g>
					<path id="&lt;Path&gt;" class="s0" d="m216.6 835.2v14.3h-18.7v-14.3c0-2.2 1.8-3.9 3.9-3.9h10.9c2 0 3.6 1.4 3.8 3.3q0.1 0.1 0.1 0.2 0 0.2 0 0.4z"/>
					<path id="&lt;Path&gt;" class="s36" d="m216.6 835.2v14.3h-14.7v-14.3c0-2.2 1.3-3.9 3-3.9h7.8c2 0 3.6 1.4 3.8 3.3q0.1 0.3 0.1 0.6z"/>
					<path id="&lt;Path&gt;" class="s36" d="m216.6 835.2v14.3h-10.4v-14.3c0-2.2 1-3.9 2.2-3.9h4.3c2 0 3.6 1.4 3.8 3.3q0.1 0.1 0.1 0.2 0 0.2 0 0.4z"/>
					<path id="&lt;Path&gt;" class="s24" d="m227.8 867v23.1h-41.1v-23.1z"/>
					<path id="&lt;Path&gt;" class="s37" d="m223.6 867v23.1h-36.9v-23.1z"/>
					<path id="&lt;Path&gt;" class="s37" d="m216 867v23.1h-29.3v-23.1z"/>
				</g>
			</g>
		</g>
		<g id="&lt;Group&gt;">
			<g id="&lt;Group&gt;">
				<path id="&lt;Path&gt;" class="s1" d="m924.1 274.6c-3.5 0.5-5.5-4.2-4.2-7.5 1.3-3.2 4.3-5.3 6.7-7.8 7.5-8.2 6.8-22.6-1.6-29.9-4.2-3.8-10.1-6-12.6-11.1-2.8-5.5-0.2-12.2-1-18.3-1.1-8.6-9-15.4-17.5-16.9-8.6-1.5-17.4 1.4-24.7 6.2-7.2 4.8-13.1 11.3-18.9 17.8l-22.9 39.7c-1.1 4.7-6.1 7.2-10.4 9.5-4.2 2.1-8.5 4.8-10.5 9.1-1.9 4.4-0.2 10.5 4.4 11.7 1.6 0.4 3.4 0.1 4.9 0.9 2.8 1.5 2.5 6 0.1 8-2.4 2-5.9 2-8.9 1.1 1.2 8.3 7.1 15.8 14.9 18.9 7.8 3.1 17.2 1.7 23.7-3.5 5.4-4.2 8.9-10.7 14.9-13.8 6.4-3.4 14.2-2.3 21 0.1 6.8 2.5 13.1 6.3 20.1 8.2 7 1.9 15.2 1.7 20.6-3.1 6.1-5.5 6.7-14.8 6.3-23-1.1 1.6-2.5 3.5-4.4 3.7z"/>
			</g>
			<g id="&lt;Group&gt;">
				<path id="&lt;Path&gt;" class="s57" d="m798.1 531.6h146.8c0 0-0.5-33.7-17.5-69.2-4.1-8.6-9.2-17.4-15.5-25.7q-0.2-0.2-0.4-0.5c-6.4-8.5-7.9-19.7-3.8-29.6q0.5-1.3 1.1-2.7c0.8-2.1 1.7-4.2 2.5-6.5q0.5-1.1 0.9-2.3c5.6-15 11.3-33.1 12.1-47.1q0.1-0.9 0.1-1.6l-2.3-60.2-29.9-9-3.4-1.5-0.3-0.1h-30.3l-1.2 0.4-4.4 1.5-23.2 7.9c0 0 5.8 10.3 3.3 22.6q0 0.5-0.2 0.9-0.8 4-2.2 7.8-0.5 1.5-1 2.9-0.6 1.4-1.2 2.8-0.7 1.6-1.5 3.1-0.5 1.2-1.2 2.4-0.8 1.4-1.6 2.9-0.5 0.8-1.1 1.7-0.4 0.6-0.8 1.3-0.6 0.9-1.3 1.9-0.8 1.3-1.8 2.5c-1.1 1.5-2.3 2.9-3.4 4.4-6.3 7.8-12.1 21.6 2 39.8q0.4 0.6 0.8 1.1c0 0 0.3 0.8 0.8 2.1 0.5 1.5 1.3 3.8 2.4 6.4 1.6 4.3 3.9 9.6 6.5 14.9 5 9.9 4.2 21.7-2.1 30.8q-0.2 0.2-0.3 0.5c-5.5 8.1-11.9 19.7-17.1 35.4-5.1 15.2-9.1 34.4-10.3 58z"/>
				<path id="&lt;Path&gt;" class="s57" d="m829.4 285.4c-25.6 9.9-36.8 54.2-48.2 97.9l-69.5 66.3-15.7 10.8c-6.7 4.6-12.2 10.7-16.1 17.7l-13 17.8c-1.5 2.7 1.6 5.6 4.2 4 3.5-2.3 9.8-10.3 15.7-15.3 0 0 8.7 12.7 20.4 4.3l5.8-5.2c2.7-2.3 5-5 6.9-7.8q2.9-4.1 4.7-8.7l76.2-54c8.5-6.3 15.3-14.7 19.5-24.4l36.7-83.9z"/>
				<path id="&lt;Path&gt;" class="s3" d="m857 304.9l-2.1 4.8-34.6 79.1c-4.2 9.7-11 18.1-19.5 24.4l-59.7 42.3-0.2 0.2q-0.3-0.5-0.6-0.9 0 0 0-0.1-1.2-2-2.5-4-0.4-0.5-0.7-1c-2.3-3.3-4.7-6.3-7.7-8.9-1.4-1.3-3-2.5-4.5-3.8l56.3-53.7c11.4-43.7 22.6-88 48.2-97.9z"/>
				<path id="&lt;Path&gt;" class="s59" d="m854.9 309.7l-34.6 79.1c-4.2 9.7-11 18.1-19.5 24.4l-59.7 42.3q-0.4-0.4-0.8-0.7 0 0 0-0.1c-1.5-1.3-3-2.5-4.5-3.8l1.3-1.2 54.9-52.5c11.5-43.7 22.7-88 48.3-97.8z"/>
				<path id="&lt;Path&gt;" class="s57" d="m791.4 618.1c0.2 12 3.1 23.7 8.7 34.3 18.5 35.4 53.1 113.3 53.1 113.3l-1.9 45.5-0.2 5c-0.3 7.6-2.6 15.1-6.7 21.4-2.9 4.4-5.3 9.3-3.5 11.9 0 0 0.5 7 11.7-1.7 9.9-7.6 16.9-18.2 20.8-29.9 2.9-8.5 8.7-20.6 20.4-33.3 0 0 2-1.6 2.3-4.4v-1.1-0.1c-0.3-3.6-3.7-8.6-16.1-14.1q-2.5-1.1-5.6-2.3c2.9-97.1-42.7-130.5-42.7-130.5l39.8-111.4-20.9 3.1c-14.4-8.6-27.4-21.3-35.6-34.5-2.5-3.9-4.7-8-5.9-12.5q-0.4-1.6-0.7-3.2c-17 33.3-17.3 121.4-17 144.5z"/>
				<path id="&lt;Path&gt;" class="s60" d="m874.1 738.2q-1.4-3.9-3-7.7c-3.6-8.8-7.6-17.4-11.5-26-3.8-8.2-7.2-16.6-10.9-24.8-7.2-15.8-15.9-31.2-28-43.8 2.9-8.8 6.6-17.2 9.5-26 2.8-8.7 4.9-17.6 7-26.4 2-8.7 4.1-17.3 6.3-25.9 2.4-9 4.5-18.2 5.2-27.6 0.1-0.9-0.6-2-1.5-2.5-8.8-4.8-14.1-13.8-19.5-22.1 6.7 7 14.6 13.4 22.9 18.4l20.9-3.1-39.8 111.4c0 0 37.8 27.7 42.4 106.1z"/>
				<g id="&lt;Group&gt;">
					<path id="&lt;Path&gt;" class="s1" d="m840.9 849.5c0 0 0.5 7 11.7-1.7 9.9-7.6 16.9-18.2 20.8-29.9 2.9-8.5 8.7-20.6 20.4-33.3 0 0 2-1.6 2.3-4.4v-1.1-0.1c-0.3-3.6-3.7-8.6-16.1-14.1q-0.1 0.1-0.2 0.3c-2.3 3.5-2.8 7.7-3.7 11.7-2.7 12.5-9.2 24.8-20 31.6-1.6 0.9-3.2 1.8-4.8 2.7l-0.2 5c-0.3 7.6-2.6 15.1-6.7 21.4-2.9 4.4-5.3 9.3-3.5 11.9z"/>
				</g>
				<path id="&lt;Path&gt;" class="s57" d="m922.4 649.1c6.9 40.9 0.7 79.5-10.4 117.3-4.7 15.9-10.3 31.7-16.1 47.4l-0.1 6.4v9.5c0.5 3.1-0.3 5.8-1.4 7.8-1.8 3.2-3 6.8-3.1 10.4-0.7 27.3-22 27-30.8 24.6-3.4-0.9-5.7-4-5.6-7.5 0.6-12.7 9.3-32.9 16.9-44.3 1.2-1.9 2.5-3.6 3.6-5 2.3-2.6 2.7-6.1 2.8-9.6 0.2-10.2 0.7-25.3 1.5-42.1 2.3-50.1 6.2-115.8 6.2-115.8-8-20.6-12.4-89.6-13.9-116.6q0 0 0 0h-4.8c-20.6-7-40.9-24.2-52.3-42.3-2.4-3.9-4.6-8-5.8-12.5q-0.4-1.6-0.7-3.2c5.2-15.7 11.6-27.3 17.1-35.4 28.1 7.6 58.5 7.1 86.4-1.5 6.3 8.3 11.4 17.1 15.5 25.7 17 35.5 17.5 69.2 17.5 69.2 0.2 44.6-9.7 82.2-22.5 117.5z"/>
				<g id="&lt;Group&gt;">
					<path id="&lt;Path&gt;" class="s13" d="m944.9 533.1c0.1 25.5-3 48.7-8.2 70.5-15.4 4-35.8 4.6-58.6 4.7q-5.9 0-11.9 0c-8.8 0-17.3 0-25.4-0.1-19.3-0.4-36.4-1.6-49.3-5.8 0.2-26.5 1.8-70.5 8.7-102.2 2.2-9.9 4.9-18.6 8.2-25.2 5.2-15.7 11.6-27.2 17.1-35.3 28.2 7.6 58.6 7.1 86.4-1.5 6.3 8.3 11.4 17 15.6 25.6 8.6 18 13 35.6 15.2 48.5 2.1 12.5 2.2 20.8 2.2 20.8z"/>
					<path id="&lt;Path&gt;" class="s61" d="m930.7 532c0.1 22.7-2.7 43.4-7.3 62.8-13.7 3.6-31.9 4.1-52.2 4.2q-5.2 0-10.6 0c-7.8 0-15.4 0-22.5-0.1-17.3-0.4-32.5-1.5-44-5.2 0.2-23.6 1.6-62.8 7.8-91 1.9-8.8 4.3-16.5 7.3-22.4 4.6-14 10.3-24.3 15.2-31.4 25.1 6.8 52.1 6.3 77-1.4 5.5 7.4 10.1 15.2 13.8 22.9 7.6 16 11.5 31.6 13.5 43.1 1.9 11.2 2 18.5 2 18.5z"/>
					<path id="&lt;Path&gt;" class="s61" d="m925.9 529.3c0 21.1-2.6 40.3-6.8 58.3-12.8 3.4-29.7 3.8-48.5 3.9q-4.9 0-9.9 0c-7.2 0-14.2 0-20.9-0.1-16-0.3-30.1-1.3-40.8-4.8 0.2-21.9 1.5-58.3 7.2-84.5 1.8-8.2 4-15.4 6.8-20.8 4.3-13 9.6-22.5 14.1-29.2 23.3 6.3 48.4 5.9 71.5-1.3 5.2 6.9 9.4 14.1 12.8 21.3 7.1 14.8 10.8 29.3 12.6 40 1.8 10.4 1.9 17.2 1.9 17.2z"/>
				</g>
				<path id="&lt;Path&gt;" class="s1" d="m896.4 826.3c0-0.5-0.3-0.8-0.6-0.9l0.1-5.2c-0.4 0.2-0.6 0.6-0.4 1.1q0.1 0.4 0.2 0.7c-2.4 5.5-5.3 10.7-8.7 15.6q-2.4 3.4-5.2 6.7c-1.7 2-3.5 3.9-5.8 5.3-2.2 1.3-4.9 2-7.3 0.8-1.9-0.9-3.2-2.9-3.8-4.9-1.6-5.1 1-10.2 3.2-14.7 1.6-3.2 3.2-6.6 3.7-10.1-7.6 11.4-16.3 31.6-16.8 44.3-0.2 3.5 2.1 6.6 5.5 7.5 8.8 2.4 30 2.6 30.8-24.3q2.1-0.7 4.3-0.6c0.6 0 1.1-0.5 1-1q-0.1-10.2-0.2-20.3z"/>
				<path id="&lt;Path&gt;" class="s60" d="m710.2 483.1c-0.6-1.2-2.1-1.7-3.3-1.2q-0.3 0.1-0.5 0.3c-0.2-0.6-0.6-1.1-1.2-1.3-0.8-0.4-1.7-0.4-2.6-0.1 0-1.3-0.6-2.6-1.8-3.1q-0.6-0.3-1.3-0.3c0.2-1.3-0.1-2.6-0.1-4 3.9 0.4 7.9-1.7 9.6-5.3 0.6-1.2-1.2-2.2-1.7-1.1-1.5 3.2-5.1 5.1-8.6 4.3-0.4-0.1-1.1 0.2-1.2 0.7-0.2 1.7 0.3 3.3 0.1 4.9q0 0.6-0.3 1-0.8 0.4-1.5 0.9-0.3-0.1-0.5-0.3c-1.2-0.8-2-2.3-2.4-3.6-0.5-1.4-0.8-3-1.1-4.5-0.2-1.2-2.2-0.7-1.9 0.6 0.3 1.9 0.7 3.8 1.5 5.6 0.5 1.2 1.3 2.5 2.4 3.3-1.2 0.8-2.5 1.5-3.7 2.3-1.1 0.8-0.1 2.5 1 1.8q2-1.4 4.1-2.6 0.5-0.3 1-0.6c1 0 1.8-0.5 2.5-1.2q0.3-0.2 0.7-0.2c1.1 0 1.4 1.1 1.2 1.9-0.2 1.2-1.2 2-2.1 2.8q-2.8 1.8-5.6 3.6c-0.4 0.3-0.6 0.9-0.3 1.4 0.2 0.4 0.9 0.6 1.3 0.3l5.6-3.6q0.1 0 0.1-0.1 0 0 0 0l1.4-0.9q0 0 0.1 0 0.4-0.1 0.7-0.5 0.2-0.3 0.4-0.6 0.1-0.1 0.1-0.1 0 0 0.1-0.1 0.1-0.1 0.2-0.2 0.1-0.2 0.2-0.3c0.1 0 0.3-0.2 0.2-0.1q0.1-0.1 0.2-0.2 0.1 0 0.2-0.1 0 0 0 0 0.1 0 0.2 0 0.1 0 0.1 0 0 0 0.1 0 0.1 0 0.2 0 0 0 0 0 0.1 0 0.1 0 0.1 0 0.2 0 0 0.1 0.1 0.1 0 0 0 0c0 0 0.1 0.1 0.2 0.2-0.1-0.1 0 0.1 0 0.1 0 0 0 0.2 0 0.2q-0.1 0.4-0.2 0.7c-0.1 0.3-0.1 0.3-0.3 0.6q-0.1 0.3-0.3 0.6-0.2 0.4-0.4 0.7-0.1 0.1-0.2 0.3c0 0-0.1 0.1-0.2 0.2q-0.4 0.6-1 1.1c-0.4 0.4-0.4 1.1 0 1.4 0.4 0.4 1 0.4 1.4 0q1.1-1 1.9-2.3c0.3-0.6 0.6-1.1 0.9-1.7q0.2 0 0.5-0.1 0.1-0.1 0.2-0.2 0.1-0.2 0.2-0.4 0 0 0 0 0 0.1-0.1 0.2 0.1-0.1 0.2-0.2 0-0.1 0.1-0.2 0.1 0 0.2-0.1 0.1 0 0.3-0.1 0.1 0 0.2 0 0.1 0.1 0.2 0.1 0 0 0.1 0 0 0.1 0.1 0.1 0 0.1 0.1 0.2 0 0.1 0 0.2 0 0.1 0 0.3 0 0.1 0 0.2-0.1 0.1-0.1 0.2-0.1 0.1-0.2 0.1 0.1 0 0.1-0.1 0 0 0 0.1c-0.2 0.1-0.3 0.3-0.4 0.5-0.1 0.2 0 0.6 0.1 0.8 0.1 0.2 0.3 0.4 0.6 0.4 0.2 0.1 0.6 0.1 0.8-0.1 0.3-0.2 0.5-0.4 0.7-0.8q0.3-0.4 0.4-0.8 0.2-1.1-0.3-2z"/>
				<path id="&lt;Path&gt;" class="s3" d="m930.7 469.7c-8.4 2.2-16.9 3.9-25.5 4.9-23.5 2.9-48 1.9-71.1-2.9-7.7-1.7-15.3-4-22.3-7.4 4.4-11.1 9.3-19.7 13.7-26.1 0.1-0.2 0.2-0.3 0.3-0.5 6.3-9.2 7.1-20.9 2.1-30.8-2.6-5.3-4.9-10.6-6.5-14.9-1.1-2.6-1.9-4.9-2.4-6.4-0.5-1.3-0.8-2.1-0.8-2.1q-0.4-0.5-0.8-1.1c-14.1-18.2-8.3-32-2-39.8 1.1-1.5 2.3-2.9 3.4-4.4q0.9-1.2 1.8-2.5 0.7-1 1.3-1.9 0.4-0.7 0.8-1.3 0.6-0.9 1.1-1.8c0.5-0.9 1.1-1.8 1.6-2.8q0.6-1.2 1.2-2.4c0.6-1 1-2 1.5-3.1 0.4-0.9 0.8-1.8 1.2-2.8q0.5-1.4 1-2.9 1.4-3.8 2.2-7.8 0.2-0.4 0.2-0.9c2.5-12.3-3.3-22.6-3.3-22.6l21.3-7.2 1.9-0.7 4.4-1.5 1.2-0.4h30.3l0.3 0.1 3.4 1.5 2.7 0.8 27.2 8.2 2.3 60.2q0 0.7-0.1 1.6c-0.8 14-6.5 32.1-12.1 47.1q-0.4 1.2-0.9 2.3c-0.8 2.3-1.7 4.4-2.5 6.5q-0.6 1.4-1.1 2.7c-4.1 9.9-2.6 21.1 3.8 29.6q0.2 0.2 0.4 0.5c6.3 8.3 11.4 17 15.5 25.7q1.8 3.7 3.3 7.3z"/>
				<path id="&lt;Path&gt;" class="s59" d="m894.9 278c-2.4 10.5-11.4 18.3-22.1 18.3-10.7 0-19.6-7.7-22.1-18.1l1.9-0.7 4.4-1.5 1.2-0.4h30.3l0.3 0.1 3.4 1.5z"/>
				<g id="&lt;Group&gt;">
					<path id="&lt;Path&gt;" class="s57" d="m858.4 275.8c-1.9 18 30.1 15 30.4 1.2l-1.1-33.7-0.3-6h-1.2-12.5l-16.9 0.1 0.9 21.3z"/>
					<path id="&lt;Path&gt;" class="s60" d="m858.8 270.7l0.2 2.6c25-3.1 25.4-29.6 25-37 0-1.3-0.1-2-0.1-2l-12.4 3.1-14 3.4-0.1 19.2z"/>
					<path id="&lt;Path&gt;" class="s57" d="m823.3 225.8c-0.4-5-0.9-10-1.7-14.9-1.1-7.1 1.5-15.1 4.3-21.9 1.8-4.4 4.2-8.4 7.4-11.9 8.5-9.1 23-13.6 35.1-11.4 17 3 22.1 18.4 21 33.5 8.9-7.1 12.1 5.5 12.1 5.5 3.3 12.7-9.2 15.4-9.2 15.4-0.9 13-7.6 22.3-7.6 22.3-6.2 8.8-12.2 14.3-17.5 17.6-10.5 6.7-23.9 4.9-32.3-3.7-7-7.1-10.3-16.1-11.2-25.9q-0.2-2.3-0.4-4.6z"/>
					<g id="&lt;Group&gt;">
						<path id="&lt;Path&gt;" class="s1" d="m907.6 178q-1.5-3.4-3.7-6.4c-9.1-12.1-24.8-17.4-40.3-15.8-17.4 1.8-34.3 11.2-44.2 24.9-5.5 7.6-9 16.4-10.2 25.4-1.3 9.1-0.8 19.2 6.5 25.9 1.5 1.4 3.2 2.5 4.6 4 1.3 1.6 2.3 3.6 1.8 5.5-0.4 2-2.8 3.7-4.7 3 0.4 2.4 2.2 4.6 4.7 5.5 2.4 1 5.4 0.7 7.6-0.8-4.5-9.6-6.7-20.2-6.4-30.9 8.6-6.1 15.4-14.5 19.5-24 0.5 7.2 0.5 15.1-4.3 20.8 16.1-3.5 30.9-12.3 41.3-24.6-1.5 3.5-3 7.1-3.5 10.8-0.5 3.7 0.2 7.7 2.7 10.6 1.8 1.9 4.4 3.3 5.1 5.8 0.5 1.7 0 3.7-1.4 5-1.3 1.2-3.4 1.7-5.2 1.2 2.8 4.4 9 6.1 14.3 4.8 5.3-1.2 9.8-5.1 12.6-9.6 7.5-12 8.9-28.4 3.2-41.1z"/>
					</g>
					<g id="&lt;Group&gt;">
						<g id="&lt;Group&gt;" style="opacity: .2">
							<path id="&lt;Path&gt;" class="s62" d="m879.4 227c0.7 3.9-1.9 7.6-5.8 8.4-3.9 0.7-7.6-1.9-8.3-5.8-0.8-3.9 1.8-7.6 5.7-8.4 3.9-0.7 7.6 1.9 8.4 5.8z"/>
						</g>
						<g id="&lt;Group&gt;" style="opacity: .2">
							<path id="&lt;Path&gt;" class="s62" d="m839.6 236.3c0.7 3.9-1.8 7.7-5.7 8.4-3.9 0.8-7.7-1.8-8.4-5.7-0.7-3.9 1.8-7.7 5.7-8.4 3.9-0.7 7.7 1.8 8.4 5.7z"/>
						</g>
					</g>
					<path id="&lt;Path&gt;" class="s60" d="m840.5 235.1c0.2-1.1 0.9-2 1.4-3q0.8-1.7 1.3-3.4c0.7-2.4 0.9-4.9 0.7-7.3 0-0.7 0.7-1.2 1.3-1.3 0.7 0 1.1 0.6 1.1 1.3 0.3 4.1-0.5 8.2-2.4 11.9-0.7 1.5-1.9 3.1-0.3 4.3 1.6 1.2 3.8 0.4 5.5-0.1 1.5-0.5 2.1 1.9 0.6 2.4-2.3 0.6-4.7 1.2-6.9 0.1-1.8-0.9-2.8-2.8-2.3-4.9z"/>
					<path id="&lt;Path&gt;" class="s1" d="m862.3 219.6c0.1 2.3-1.1 4.3-2.6 4.4-1.5 0.1-2.8-1.6-2.9-3.9-0.1-2.3 1.1-4.2 2.7-4.4 1.5-0.1 2.8 1.6 2.8 3.9z"/>
					<path id="&lt;Path&gt;" class="s1" d="m838.5 223.4c0 2.3-1.1 4.2-2.7 4.4-1.5 0.1-2.8-1.6-2.8-3.9-0.1-2.3 1.1-4.2 2.6-4.4 1.5-0.1 2.8 1.6 2.9 3.9z"/>
					<g id="&lt;Group&gt;">
						<path id="&lt;Path&gt;" class="s1" d="m835 207.7c-0.6-0.2-1.1-0.1-1.6 0.1-3.2 1-5.2 4.3-5 8.2 0.1-0.6 0.2-1.1 0.5-1.6q0.1 0 0.1 0 0.2-0.4 0.6-0.8c0.8-0.8 1.9-1.2 3-1.6 1.1-0.4 2.2-0.8 3.1-1.5 0.4-0.3 0.8-0.8 0.7-1.5-0.2-0.6-0.8-1.1-1.4-1.3z"/>
					</g>
					<g id="&lt;Group&gt;">
						<path id="&lt;Path&gt;" class="s1" d="m855.5 203.4c0.4-0.5 0.9-0.7 1.4-0.8 3.3-0.9 6.5 0.9 8.1 4.4-0.4-0.4-0.8-0.8-1.2-1q0 0-0.1 0-0.4-0.3-0.8-0.4c-1.1-0.3-2.2-0.1-3.4 0.2-1.1 0.2-2.3 0.5-3.4 0.4-0.5-0.1-1.1-0.3-1.2-1-0.1-0.6 0.2-1.4 0.6-1.8z"/>
					</g>
					<g id="&lt;Group&gt;">
						<g id="&lt;Group&gt;">
							<path id="&lt;Path&gt;" class="s1" d="m846.7 246.1q0.6 1.7 1.7 2.8c4.3 4.7 12.9 2.3 14.5-3.9 0.4-1.4 0.4-3.1-0.1-4.9-0.5-1.6-2.4-2.3-3.8-1.4-3.4 2.3-6.8 3.6-10.3 4.1-1.6 0.2-2.6 1.8-2 3.3z"/>
						</g>
						<g id="&lt;Group&gt;">
							<path id="&lt;Path&gt;" class="s19" d="m848.4 248.9c4.3 4.7 12.9 2.3 14.5-3.9-1.5-0.9-3.5-1.4-5.6-1.4-4.3 0-8 2.2-8.9 5.3z"/>
						</g>
					</g>
				</g>
				<path id="&lt;Path&gt;" class="s63" d="m818.2 383.5c0 0 0.1 0.4 0.4 1 11.3-3.7 24.9 1.5 35.9 3.8 10.1 2 21.2 1.7 31.4-0.2 9.6-1.7 20-5.2 26.3-13.1 6.8-8.6 6.7-22.5 0.8-31.5-6.7-9.9-21.4-10-32-10.7-19.1-1.2-38.3-1.6-57.4-1.7q-0.4 0.7-0.9 1.4-0.4 0.6-0.8 1.3-0.6 0.9-1.3 1.9-0.8 1.3-1.8 2.5c-1.1 1.5-2.3 2.9-3.4 4.4-6.3 7.8-12.1 21.6 2 39.8q0.4 0.6 0.8 1.1z"/>
				<path id="&lt;Path&gt;" class="s64" d="m927.4 462.4c-4.1-8.6-9.2-17.4-15.5-25.7q-0.2-0.2-0.4-0.5c-6.4-8.5-7.9-19.7-3.8-29.6q0.5-1.3 1.1-2.7c0.8-2.1 1.7-4.2 2.5-6.5q0.5-1.1 0.9-2.3c5.6-15 11.3-33.1 12.1-47.1q0.1-0.9 0.1-1.6l-0.8-20.2q-0.9 3.2-2 6.4c-4.9 14.2-11 27.9-18.3 41-6.8 12.2-13.8 24.7-14.7 39-0.5 7.6 0.4 15.2 3.2 22.3 2.5 6.3 6.5 11.8 10.3 17.4 4 6 7.3 12 9.1 19 0.2 0.8 0.4 1.6 0.5 2.4q9.6-1.5 19-4-1.5-3.7-3.3-7.3z"/>
				<g id="&lt;Group&gt;">
					<g id="&lt;Group&gt;">
						<path id="&lt;Path&gt;" class="s57" d="m930.7 534.3c0 0 3.8 3.6 6.2 8.4 1.9 4.1 3.1 5.3 3.6 3.5 1.4-4.7-6.5-16.7-6.3-22.4 0.1-5.3-2.1-15.8-7.2-19.6 9.7-18.1 33.9-77.9 34-93.4v-0.1l-0.2-5.8-17.2-101.5c-0.4-5.4-3.2-10.1-7.3-13.2-3.8-2.9-8.6-4.6-13.7-4.2-3.8 0.2-7.2 1.4-10 3.4-5.8 4.2-8.9 11.7-6.6 19.3l0.3 1.8 22.2 100.4v0.5c0 0-17.2 91.3-17.8 94.3-2.2 1.8-4.5 5-7.9 10.9-8.4 14.7-8.4 14.7-8.4 14.7 0 0 2.8 4 12.6-10.3 0 0 0.5 1.1 1.2 3.1 1.4 4.2 3.5 12.6 3.1 23.9-0.2 6-1 15.5 1.3 15.8 2.6 0.4 2.3-5.3 2.6-11.4 0.3-6.7 1.2-13.8 1.2-13.8 4.2 15.4 2.5 29.2 5.9 27.3 1.9-1.1 1.4-7.8 1.1-14.4-0.7-11.4 0.8-13.1 0.8-13.1 3.4 1 6.6 24.1 8.8 21.9 4.5-4.6-5.7-21.2-2.3-26z"/>
					</g>
					<g id="&lt;Group&gt;">
						<path id="&lt;Path&gt;" class="s3" d="m934.1 489.3q-5.2-0.8-10.5-1.4-4.7-0.5-9.4-0.9c5.2-27.5 14.3-75.6 14.3-75.6v-0.5l-22.2-100.4-0.4-1.8c-2.2-7.6 0.9-15.1 6.7-19.3q2.1-1.4 4.5-2.3 2.6-1 5.5-1.1c5.1-0.3 9.9 1.3 13.7 4.2 4.1 3.1 6.9 7.8 7.3 13.2l17.3 101.5 0.1 5.8v0.1c-0.1 12.5-15.7 53.4-26.9 78.5z"/>
					</g>
					<g id="&lt;Group&gt;" style="opacity: .2;mix-blend-mode: screen">
						<path id="&lt;Path&gt;" class="s25" d="m923.6 487.9q-4.7-0.5-9.4-0.9c5.2-27.5 14.3-75.6 14.3-75.6v-0.5l-22.2-100.4-0.4-1.8c-2.2-7.6 0.9-15.1 6.7-19.3q2.1-1.4 4.5-2.3c2.9 0.7 5.5 1.9 7.7 3.7 4.1 3.2 6.9 7.9 7.4 13.2l17.2 101.5 0.2 5.8v0.1c-0.1 12.1-14.9 51.3-26 76.5z"/>
					</g>
				</g>
			</g>
		</g>
	</g>
</svg>