<svg version="1.2" xmlns="http://www.w3.org/2000/svg" viewBox="0 0 1000 1000" width="1000" height="1000">
	<title>5156258_2701820-ai</title>
	<style>
		.s0 { fill: none;stroke: #110809;stroke-miterlimit:10;stroke-width: 4 } 
		.s1 { fill: #ef2230 } 
		.s2 { fill: #000000 } 
		.s3 { fill: none;stroke: #110809;stroke-miterlimit:10;stroke-width: 2 } 
		.s4 { fill: #ffffff;stroke: #000000;stroke-miterlimit:10;stroke-width: 2 } 
		.s5 { fill: none;stroke: #000000;stroke-miterlimit:10;stroke-width: 4 } 
		.s6 { opacity: .3;fill: #ffbf00 } 
		.s7 { fill: none;stroke: #000000;stroke-miterlimit:10;stroke-width: 2 } 
		.s8 { fill: #ed926e } 
		.s9 { fill: #ffffff } 
		.s10 { fill: #a7d8eb } 
		.s11 { fill: #194699 } 
		.s12 { fill: #ef2230;stroke: #ffbf00;stroke-miterlimit:10;stroke-width: 6 } 
	</style>
	<g id="OBJEKTS">
		<g id="&lt;Group&gt;">
			<path id="&lt;Path&gt;" class="s0" d="m199.8 621h570.2"/>
			<path id="&lt;Path&gt;" class="s1" d="m763.1 760.1c-0.1 1.3-0.4 2.5-1.2 3.6-1.2 1.5-3 2.5-4.7 3.3-4.7 2.2-9.9 3-14.6 5.2-2.9 1.4-7.3 5.4-4.4 8.7 2.1 2.4 7.1 2.2 9.9 2q14.6-1.1 29-3.6c0.8-0.2 1.8-0.4 2.4-1 1.1-0.9 1.2-2.4 1.3-3.8q0.4-10.3 0.3-20.7c-0.1-6.7-1.7-9.5-8.4-11.6-2.2-0.7-4.8-1.3-6.8-0.1-1.6 1-2.4 2.9-2.8 4.7-0.6 2.8-0.5 5.8-0.3 8.8 0.1 1.6 0.3 3.1 0.3 4.5z"/>
			<path id="&lt;Path&gt;" class="s2" d="m868.2 619.8c-0.4-4.1-5-5.9-8.6-7.6-8.5-4-18.4-5.3-27.6-3.3-10.8 2.4-20 8.7-30.4 12.1-13.9 4.6-27.6 9.2-41 15.5-4.1 1.9-7.9 4.4-11.2 7.5-3.6 3.4-6.6 6.9-7.5 12-1.1 6.4 0.2 12.9 1.5 19.2 1.4 7 3 13.9 4.2 21l9.4 57.7c0.2 1.3 1.4 2.1 2.6 1.8l27.3-5.8c1.2-0.3 1.9-1.5 1.6-2.7-1-4.5-1.9-9.1-1.4-13.7 0.4-2.8 1.2-5.4 1.3-8.2 0.3-5.9-2.6-12-0.9-17.7 0.5-1.6 1.3-3 1.7-4.6 0.3-1.8 0.1-3.5-0.1-5.3q-0.7-5.5-1.7-11c-0.5-2.7-2.2-6.7-1.8-9.4 0.8-5.7 10.2-3.7 14.4-3.8 5.3-0.1 10.6-0.3 15.9-0.7 10.7-0.9 21.3-3.2 30.7-8.5 5.2-2.9 8-9.5 10.6-14.6 3.2-6.2 5.7-12.7 7.7-19.4 1-3.2 3.7-7 3.3-10.5z"/>
			<path id="&lt;Path&gt;" class="s3" d="m413.1 627.5h211.7"/>
			<path id="&lt;Path&gt;" class="s3" d="m244 627.5h63.2"/>
			<g id="&lt;Group&gt;">
				<path id="&lt;Path&gt;" class="s4" d="m241.3 225.9l74.1 112.3c1.7 2.6 1 6.1-1.5 7.8l-0.5 0.3c-2.6 1.7-6.1 1-7.8-1.6l-74.2-112.3c-1.7-2.6-1-6.1 1.6-7.8l0.5-0.3c2.6-1.7 6.1-1 7.8 1.6z"/>
				<path id="&lt;Path&gt;" class="s2" d="m340.2 312.2c35.2 3.8 60.5 35.4 56.7 70.5-3.8 35.1-35.4 60.5-70.5 56.7-35.1-3.8-60.5-35.4-56.7-70.5 3.8-35.2 35.4-60.5 70.5-56.7z"/>
				<path id="&lt;Path&gt;" class="s4" d="m338.7 326.2c27.4 2.9 47.2 27.6 44.2 55-3 27.4-27.6 47.2-55 44.2-27.4-3-47.2-27.6-44.2-55 3-27.4 27.6-47.2 55-44.2z"/>
				<path id="&lt;Path&gt;" class="s5" d="m371.7 380c-2.3 21.2-21.3 36.5-42.6 34.2"/>
			</g>
			<g id="&lt;Group&gt;">
				<path id="&lt;Path&gt;" class="s6" d="m488.2 475.4c7.2 0 13.2-5.6 13.3-12.7q0-0.1 0-0.2v-57.2c0-11.8-9.2-22-21-22.2-12-0.1-21.8 9.5-21.8 21.4v58q0 0.1 0 0.2c0.1 7.1 6.2 12.7 13.3 12.7z"/>
				<path id="&lt;Path&gt;" class="s1" d="m492.2 466.3c1.9-2.8 3.1-6.3 3.1-10.1v-45.3c0-9.3-6.8-16.7-15.2-16.7-8.4 0-15.2 7.4-15.2 16.7v45.3c0 3.8 1.2 7.3 3.2 10.1z"/>
				<path id="&lt;Path&gt;" class="s7" d="m480.8 466h-1.4c-3.5 0-6.4-2.8-6.4-6.3 0-11.6 0.1-23.2-0.6-34.8-0.1-1.9-0.2-3.9 0.6-5.6 0.3-0.6 0.8-1.3 1.5-1.2 0.5 0 1 0.4 1.2 0.9 0.4 0.7 0.5 1.7 0.2 2.5 0 0.2-0.1 0.4-0.3 0.5-0.5 0.2-0.8-0.6-0.8-1.2 0.1-0.5 0.1-1.1 0.4-1.6 1.2-2.3 4.1-0.7 4.5 1.2 0.2 0.9-0.2 2.6-1.2 1.4-0.6-0.8 0.1-2.5 0.7-3 0.8-1 2.4-1.2 3.4-0.4 1 0.7 1.2 2.4 0.4 3.3-0.2 0.2-0.5 0.3-0.7 0.2q-0.1-0.1-0.2-0.3c-0.5-1.2 0.2-2.7 1.4-3.3 1.3-0.6 2.8 0 3.3 1.4 0.2 0.7 0.2 1.4-0.2 2.1-0.1 0.2-0.4 0.5-0.7 0.5-0.3-0.1-0.5-0.4-0.5-0.8-0.1-0.6 0.1-1.2 0.5-1.7 0.1-0.2 0.4-0.4 0.7-0.3 0.2 0 0.3 0.2 0.4 0.4 0.1 0.1 0.1 0.3 0.1 0.5 0.2 8.6 0.2 17.1 0.1 25.7q0 6.8 0 13.6c0 3.5-2.9 6.3-6.4 6.3z"/>
				<path id="&lt;Path&gt;" class="s1" d="m484.9 484.3h-9.6v-16.7h9.6z"/>
				<path id="&lt;Path&gt;" class="s2" d="m491.4 470.1h-22.6c-1 0-1.8-0.8-1.8-1.9v-0.3c0-1 0.8-1.9 1.8-1.9h22.6c1 0 1.9 0.9 1.9 1.9v0.3c0 1.1-0.9 1.9-1.9 1.9z"/>
				<path id="&lt;Path&gt;" class="s2" d="m491.4 474.1h-22.6c-1 0-1.8-0.8-1.8-1.8v-0.4c0-1 0.8-1.8 1.8-1.8h22.6c1 0 1.9 0.8 1.9 1.8v0.4c0 1-0.9 1.8-1.9 1.8z"/>
			</g>
			<g id="&lt;Group&gt;">
				<path id="&lt;Compound Path&gt;" fill-rule="evenodd" class="s2" d="m317.9 580.1q0 19.4-10.4 29.7-10.4 10.4-27.9 10.3h-43.6v-135.3h41.4q19.3 0 28.9 9.9 9.6 9.9 9.6 27.1 0 8.5-3.6 15.7-3.6 7.2-12.9 11.5v1q4.9 1.5 8.4 4.5 3.5 3 5.7 7.1 2.2 4.1 3.3 8.9 1.1 4.7 1.1 9.6zm-23.8-57.6q0-8.1-4.3-12.8-4.4-4.7-14.1-4.7h-17.5v35.4h17.7q9.5 0 13.9-4.9 4.3-5 4.3-13zm2 56.3q0-8.6-4.3-13.8-4.3-5.3-14.2-5.3h-19.4v39.4h19.6q5.3 0 8.8-1.5 3.5-1.6 5.6-4.4 2.1-2.8 3-6.6 0.9-3.7 0.9-7.8z"/>
				<path id="&lt;Compound Path&gt;" fill-rule="evenodd" class="s1" d="m397.6 620.1l-20.2-56.3h-17.3v56.3h-22.2v-135.3h43.5q8.4 0 15.6 2.4 7.2 2.5 12.3 7.3 5.2 4.9 8.1 12.2 2.9 7.3 2.9 17 0 12.8-5.4 22.2-5.5 9.3-16.1 14.2l23.1 60zm1-96.4q0-9.5-4.9-14.1-4.9-4.6-14-4.6h-19.6v38.7h19.4q8.8 0 13.9-5 5.2-5.1 5.2-15z"/>
				<path id="&lt;Compound Path&gt;" fill-rule="evenodd" class="s2" d="m498.1 591h-37.5q-0.4 1.7-1.6 5.8-1.1 4.1-2.4 8.8-1.3 4.6-2.3 8.7-1.1 4.1-1.7 5.8h-23.1l39.1-135.3h21.3l39.3 135.3h-23.5zm-25.7-47l-7 27.2h27.6l-6.8-27q-0.4-1.8-1.2-5.8-0.9-4.1-2-8.6-1-4.5-2-8.5-1-3.9-1.2-5.7h-1z"/>
				<path id="&lt;Compound Path&gt;" class="s2" d="m611.5 620.1l-31.9-58.1-14.2-27.8-0.6 0.2v85.7h-22.4v-135.3h20.5l29.9 55.2 16 30.4 0.7-0.2v-85.4h22.2v135.3z"/>
				<path id="&lt;Compound Path&gt;" fill-rule="evenodd" class="s2" d="m696.6 484.8q13.6 0 23.4 5.1 9.7 5 14.2 16.7 2.7 7.2 3.2 17.8 0.5 10.6 0.5 24 0 16.5-0.2 28.3-0.2 11.8-3.3 20.1-2.6 6.8-6.6 11.3-4.1 4.5-9.4 7.1-5.2 2.6-11.5 3.8-6.2 1.1-12.8 1.1h-38.9v-135.3zm18.9 50.4q0-13.8-4.9-21.8-4.8-8-17.3-8h-15.7v94.1h15.9q12.5 0 17.2-6.5 4.8-6.5 4.8-18.2z"/>
			</g>
			<path id="&lt;Path&gt;" class="s8" d="m689.6 636.8c4.9-0.7 9.6-2.5 14.5-3 8.6-0.9 18.7-4.5 25.7-9.5 3.2-2.3 5.5-5.4 8.5-7.9 2.2-1.9 5-3.2 7.4-5.1 6-4.5 11.4-9.8 16-15.7 4.7-6 7.5-13.4 7.9-21 0.2-3-0.1-6.1-1.6-8.7-4.1-7.2-13.5-3.1-19.2-0.1-6.5 3.3-12 8.4-15.9 14.7q-0.4 0.6-0.7 1.2c-2 3.4-3.5 7.3-6.4 10.2-2.3 2.3-5.9 4.4-7.4 7.2-2.3 4-4 7-8 9.4-4.9 2.9-10.7 3.7-15.5 6.6-4.6 2.7-8.9 5.5-13.5 8.2-4.2 2.5-7.6 6.3-12.2 8.1-3 1.2-6.3 1.5-9.2 2.9-4 1.9-5.7 8.6-6.6 12.4-0.2 0.6-0.3 1.2-0.2 1.8 0.7 3.8 5.6 1.8 7.4-0.1 1.3-1.4 1.1-3.1 2.3-4.5 1.3-1.6 4-2.2 5.9-2.3 2.9-0.2 6 0.1 8.7-1.2 1.3-0.6 2.4-1.6 3.7-2.2 2-1 4.3-1 6.5-1.2q1-0.1 1.9-0.2z"/>
			<g id="&lt;Group&gt;">
				<path id="&lt;Path&gt;" class="s2" d="m598.4 468.4c-3.3 6.1 1.8 10.4 6.1 14.5 1.2 1.1 2.5 2.2 4 2.8 2.6 1.1 5.5 0.8 8.3 0.5 20-2.2 40.3-4.9 60-9.1 4.6-1 9.2-2.2 13.8-3.3 6-1.3 12.3-3.9 18-6.2 5.8-2.3 11.3-5.6 16-9.7q0.1-0.1 0.3-0.2c0.8-0.5 1.5-1.1 2.1-2.1 2.5-2.8 4.2-6.3 2.7-9.6-1.6-3.8-6.4-4.9-10.5-5.2-12.3-1-24.5 0.3-36.7 2.2-8.1 1.2-16.2 2.9-24.4 4-8.4 1-16.4 0.1-24.7 0.2-14.3 0.4-28.1 8.6-35 21.2z"/>
				<path id="&lt;Path&gt;" class="s8" d="m634 438.6c-3.8-1.5-9.4-0.9-12.5-3.6-3.6-3-5.9-8.3-7.8-12.5-1.3-2.6-5.9-5.8-6.5-8.2-0.3-1.1 0.6-2.1 1.1-3.1 0.9-1.9 0.6-4.3 1.6-6.2 1.1-1.9 3.2-2.8 4.8-4.2 1.2-1.2 2-2.7 2.7-4.2 2.7-5.3 6.6-11.3 7.5-17.2 0.6-3.2 0.6-6.7-0.6-9.7-1.4-3.9-5.5-8-9.8-6.2-4.2 1.7-7.5 5.2-11 8.1-4.2 3.6-8.9 7.2-11.2 12.5-1.1 2.9-1.5 6-2.4 8.9-1 3.1-2.6 5.9-3.8 8.9-1.2 3-1.9 6.1-2.2 9.3-0.2 1.5-0.2 3 0.2 4.4 0.6 1.6 1.8 3 2.9 4.2 5.6 6 11.3 11.7 18 16.4 1.9 1.3 3.9 2.5 6 3.5 4.2 1.8 5.8 5.2 10 7.1 3.4 1.5 7.2 2.7 11 2.9 2.8 0.1 7.4-0.6 7.7-4 0.2-3.2-3-6.1-5.7-7.1z"/>
				<path id="&lt;Path&gt;" class="s8" d="m712.8 420.3c-2.1 3-5.1 5.6-8 8.1-2.8 2.5-5.8 4.9-9.2 6.5-2.8 1.3-5.8 2.2-8.7 3.5-3.3 1.5-6.3 3.8-9.5 5.6-2.1 1.1-8.8 4.6-10.8 2-1.8-2.3 2.3-6.1 4-7.2 4.8-3 8.5-7.9 11.2-12.8 1-1.7 1.8-3.6 2.9-5.2 2.7-4.5 6.8-8.1 11.5-10.2-3.3-3.6-5.7-7.9-7.1-12.5-5.7-2.9-9.9-8.5-11.2-14.7-1-4.8-0.6-13 5.3-14.4 5.3-1.2 12.8 0.7 16.9 4.2 4.4 3.8 6.8 9.4 8.1 15.1 0.5 2.3 0.8 4.5 1.5 6.7 1.7 5.8 5.5 11.1 5.6 17.1 0.1 3.2-0.9 5.8-2.5 8.2z"/>
				<path id="&lt;Path&gt;" class="s2" d="m695.5 367.6c-2.7-2.2-5.5-4.3-8.5-6.1-4.9-3-10.6-5-16.4-5-3.2 0-6.7-0.6-9.8 0-3.4 0.7-6.5 2.2-10.1 2.3-5.8 0.2-11.6-1.7-17.3-2.7-5.8-1-12.4 1.4-17.3 4.2-5.5 3-16.6 10.3-20.7 15 5.2 8.5 16.1 13.5 20.5 22.5q1.3-0.7 2.6-1.7-0.2 13.1 0.1 26.1c0.2 8.5-0.3 17.6 1.1 26 1.3-1.2 3.6-0.7 5.2-0.7q3.9 0 7.8-0.1 7.3 0 14.6 0c7-0.1 13.9-0.1 20.8-1 3.6-0.6 7.2-1.1 10.8-1 1.9-6.6 1.2-14.4 1.4-20.9 0.1-5.8 0-11.5-0.2-17.2-0.2-2.9-0.3-5.9-0.5-8.8-0.1-1.5-1.2-4.6-0.1-5.7 1.4 1 2.5 2.4 3.6 3.7q8.5-12.3 17.5-24.2-2.5-2.4-5.1-4.7z"/>
				<path id="&lt;Path&gt;" class="s8" d="m642.5 488.2c-1.3 1.3-28.4 7.3-28.4 7.3l-1.3-13.8 25.2-9z"/>
				<path id="&lt;Path&gt;" class="s2" d="m711.1 471.8c3.1-1.8 6.3-3.6 9.7-4.9 3.6-1.4 7.6-2.2 10.4-4.9 3-2.8 3.9-7.1 4.7-11.1 0.8-4.5 0.8-9.5-0.4-13.9-1.7-6.2-6.8-11.5-13.2-12.9-3.8-0.9-8-0.4-11.5 1.4-2.6 1.3-4.8 3.2-7.4 4.6-2.2 1.2-4.5 1.9-6.8 2.8-6.8 2.6-13.2 6.6-19.4 10.4-6.3 3.8-12 8.6-18 12.7-2.4 1.6-27.7 13.9-27.7 13.9 3.3 7.3 6.1 14.8 9.1 22.2 16.4-2.2 32.1-7.3 48-11.6 3.1-0.8 6.1-2.1 9.2-2.8 3.6-0.8 6.9-2.4 10.1-4.1q1.6-0.9 3.2-1.8z"/>
				<path id="&lt;Path&gt;" class="s1" d="m613.2 496.9c-5 1-10-0.1-15.4-0.6-4.2-0.5-8.5 0.3-12.7-0.4-5.6-0.8-9.9-4.8-10.3-10.3-0.3-3.2-0.4-6.7 1.7-9 1.7-2 4.5-2.6 7-2.4 2.6 0.2 5 1.2 7.5 2.1 4.1 1.4 8.4 2.4 12.7 3.3 3.5 0.8 6.5 2.5 10 0.8 0.2-0.1 0.4-0.2 0.6-0.1 0.2 0 0.3 0.3 0.3 0.5q1.9 5.2 3.4 10.5c0.5 1.8 1.3 2.9-0.2 4-1.2 0.9-3.2 1.3-4.6 1.6z"/>
				<path id="&lt;Path&gt;" class="s8" d="m667.2 488.2c1.3 1.3 28.4 7.3 28.4 7.3l1.3-13.8-25.3-9z"/>
				<path id="&lt;Path&gt;" class="s2" d="m597.7 473.4c-5.2-2-10.3-4.3-15.1-7.2-1.6-0.9-3.2-2-4.3-3.5-1.7-2.1-2.2-4.8-2.7-7.4-1.9-9.8-4.5-17.2 2.6-25.5 5.7-6.7 15-9.3 22.8-4.5 5.1 3.2 8.5 8.9 14.1 10.9 3 1.1 6.5 0.9 9.5 2.2 2.7 1.3 5.3 3.4 7.9 4.9 6.3 3.8 11.9 8.6 18 12.7 2.4 1.6 27.7 13.9 27.7 13.9-3.3 7.3-6.2 14.8-9.2 22.2-16.3-2.2-32-7.3-47.9-11.6-7.9-2.1-15.8-4.2-23.4-7.1z"/>
				<path id="&lt;Path&gt;" class="s1" d="m696.5 496.9c5 1 10-0.1 15.4-0.6 4.2-0.5 8.5 0.3 12.7-0.4 5.3-0.8 11.3-6 11.5-11.6 0.1-1.8-0.3-3.5-1-5.1-0.4-0.9-0.8-1.7-1.3-2.4-1.3-1.7-3.4-2.6-5.4-2.8-3.2-0.3-6.4 0.7-9.4 1.6-3.1 0.9-5.9 1.4-8.9 2.7-3.8 1.7-8.1 2.2-12.3 1.7-1-0.2-2.2-0.4-3.2-0.1-2.4 0.7-2.1 4.2-2.3 6.2-0.3 2.9-0.4 5.9-1.6 8.6 2 1.2 3.9 1.8 5.8 2.2z"/>
				<path id="&lt;Path&gt;" class="s8" d="m661.4 356.5c-0.7 0-1.5-0.1-2.2-0.4-1.3-0.6-1.6-1.9-1.7-3.2q-0.3-2.5-0.1-4.9c0.1-0.5 0.1-0.9 0.1-1.4 0.1-2.9 0.3-6.2 1.1-9 3-0.1 3.1-2.2 3.3-4.7 0.1-0.8 0.1-1.6-0.4-2.2-0.5-0.6-1.7-0.6-1.9 0.1q0.2-3 0.2-6.1c0-1.8 0.4-3.1-1.4-4.1-2.8-1.5-6.2-1.6-9.4-0.9-2.4 0.5-6.3 1.6-8.2 3.4-2.1 1.9-1.7 4.7-2.5 7.2 0 0.1-0.1 0.3-0.1 0.3-0.2 0.1-0.3 0.1-0.4 0.1-1.1-0.1-2.1 0.8-2.3 1.9-0.3 1-0.1 2.1 0.3 3.1 0.2 0.7 0.4 1.4 1 1.8 0.5 0.5 1.3 0.6 1.8 0.1 1 2.1 1.8 4.5 2.3 6.8 0.2 0.4 0.4 0.8 0.5 1.2 0.1 0.7 0.1 1.4 0.1 2.1 0 2.2-0.3 4.2-0.7 6.3-0.1 0.7-0.3 1.3-0.7 1.8-0.7 0.9-2.1 1-3.2 1 0.6 1.2 0.9 2.6 1.7 3.8 1.3 1.9 3.4 3.6 5.9 3.9 3.5 0.5 7.2 0.6 10.5-0.5 1.6-0.6 3.2-1.5 4.4-2.8 1.4-1.3 2.1-2.9 2.5-4.8q-0.2 0.1-0.5 0.1z"/>
				<path id="&lt;Path&gt;" class="s4" d="m681.6 454.7h-67.2c-1.8 0-3.3-1.5-3.3-3.3v-39.7c0-1.8 1.5-3.3 3.3-3.3h67.2c1.9 0 3.4 1.5 3.4 3.3v39.7c0 1.8-1.5 3.3-3.4 3.3z"/>
				<path id="&lt;Path&gt;" class="s2" d="m652.4 430.1c0 2.4-2 4.3-4.4 4.3-2.4 0-4.3-1.9-4.3-4.3 0-2.4 1.9-4.4 4.3-4.4 2.4 0 4.4 2 4.4 4.4z"/>
				<path id="&lt;Compound Path&gt;" fill-rule="evenodd" class="s2" d="m661.8 326.8c-1.4 7.1-3.1 19.6-12.6 19.8-3.1 0.1-6.2-1.3-8.1-3.8-2.2-3-2.8-7-3.4-10.5-0.5-3.7-0.6-7.5-0.2-11.1 0.1-1.4 0.5-3 1.5-4.1 0.5-0.6 1.2-1 1.8-1.4 1.6-0.9 3.4-1.6 5.2-2 1.2-0.3 2.4-0.5 3.4-1.2 0.7-0.4 1.2-1 1.8-1.4 1-0.8 2.3-1.2 3.5-1.2 1 0 2 0.3 2.8 1 0.5 0.4 0.8 1 1.1 1.6q0.5 0.9 0.9 1.8c0.2 0.6 0.5 1.2 0.5 1.8 0 0.3-0.1 0.6 0 0.9 0 0.5 0.4 1 0.6 1.4 1.7 2.5 1.7 5.6 1.2 8.4zm-11.5 12.5c-1.1 0.5-1.9 0.5-3 0-1-0.4-1.9 1.4-0.9 1.9 1.7 0.8 3.2 0.7 4.9 0 1.2-0.6 0.2-2.5-1-1.9zm8.6-14.4c-0.4-1.9-1.9-2.8-4-2.8q-2.7 0-5.3-0.1c-2.8 0-5.7 0-8 1.6-0.7 0.5-1.3 1.1-1.6 1.9-1.5 3.4-0.9 9.1 1.3 13.3 1.1-1.5 5-1.9 6.4-2 2.8-0.3 6.7-0.2 8.7 1.9q0.4-0.8 0.7-1.6c0.4-1.5 0.8-3.1 1.1-4.6 0.4-2.5 0.5-5.1 0.7-7.6z"/>
				<path id="&lt;Path&gt;" class="s2" d="m708.9 415.6c-0.3 0.8-0.8 1.6-1.4 2.3-0.3 0.4 0.1 1.2 0.7 0.8 1-0.7 1.7-1.5 2.1-2.7 0.4-0.9-1.1-1.3-1.4-0.4z"/>
				<path id="&lt;Path&gt;" class="s2" d="m588.7 413.8c-0.5-0.4-1.1-0.7-1.1-1.5 0-0.7-1.2-0.7-1.2 0 0 1.1 0.7 2.5 2 2.4 0.4 0 0.7-0.6 0.3-0.9z"/>
			</g>
			<path id="&lt;Path&gt;" class="s9" d="m677.7 468.4q0 0 0 0c-0.3-0.8-2.4-1.6-3.2-2q-1.8-1-3.7-2c-2.4-1.2-4.9-2.4-7.4-3.7-5.1-2.7-10.2-5.5-15.5-8-0.3-0.2-0.7 0.3-0.3 0.5 5.3 3.1 10.7 5.9 16.1 8.8 2.5 1.3 4.9 2.7 7.4 4.1q1.9 0.9 3.8 1.8c1.2 0.6 1.6 1.1 1.5 2.5q-0.1 1.8-0.7 3.6c-0.1 0.2-0.2 0.3-0.2 0.5 0.1 0.4 0.6 0.6 0.8 0.3 1.1-1.6 2-4.4 1.4-6.4z"/>
			<path id="&lt;Path&gt;" class="s2" d="m447.9 407.7c-6.1-0.2-12.2 0-18.3-0.4-0.6-0.1-0.5 0.8 0 0.9 6.1 0.6 12.3 1.1 18.4 0.2 0.4 0 0.3-0.7-0.1-0.7z"/>
			<path id="&lt;Path&gt;" class="s2" d="m455.3 384.9c-3-2.7-6.3-4.9-9.6-7.2-0.5-0.4-1 0.5-0.5 0.9 3.2 2.3 6.3 4.8 9.6 6.9 0.4 0.2 0.9-0.3 0.5-0.6z"/>
			<path id="&lt;Path&gt;" class="s2" d="m473.7 355c-0.3-0.7-1.5-0.4-1.3 0.4 1.3 4.2 2.4 8.6 4.2 12.7 0.2 0.5 0.9 0.1 0.8-0.4-0.8-4.3-2.4-8.5-3.7-12.7z"/>
			<path id="&lt;Path&gt;" class="s2" d="m501.1 359c-1.2 4.1-3.4 7.7-5 11.7-0.2 0.6 0.7 1.1 1.1 0.6 3.1-3.1 4.6-7.7 5.4-11.9 0.1-1-1.2-1.4-1.5-0.4z"/>
			<path id="&lt;Path&gt;" class="s2" d="m521.2 383.3c-3.4 1.5-7.4 3.2-9.9 6-0.4 0.5 0.1 1.1 0.7 0.8 3.4-1.5 6.5-3.9 9.9-5.5 0.9-0.4 0.1-1.7-0.7-1.3z"/>
			<path id="&lt;Path&gt;" class="s2" d="m529.1 409.7c-4.5 1.1-8.9 1.1-13.4 1.8-0.6 0.1-0.5 1.1 0 1.2 4.5 0.8 9.5-0.2 13.8-1.4 1.1-0.3 0.6-1.9-0.4-1.6z"/>
			<g id="&lt;Group&gt;">
				<path id="&lt;Path&gt;" class="s2" d="m570.9 254.8c0 37.2-30.2 67.4-67.4 67.4-37.2 0-67.3-30.2-67.3-67.4 0-37.2 30.1-67.3 67.3-67.3 37.2 0 67.4 30.1 67.4 67.3z"/>
				<path id="&lt;Path&gt;" class="s4" d="m554.8 254.8c0 28.3-23 51.3-51.3 51.3-28.3 0-51.2-23-51.2-51.3 0-28.3 22.9-51.2 51.2-51.2 28.3 0 51.3 22.9 51.3 51.2z"/>
				<path id="&lt;Path&gt;" class="s2" d="m535.7 254.8c0 17.8-14.4 32.2-32.2 32.2-17.8 0-32.2-14.4-32.2-32.2 0-17.8 14.4-32.2 32.2-32.2 17.8 0 32.2 14.4 32.2 32.2z"/>
				<path id="&lt;Path&gt;" class="s1" d="m521.1 254.8c0 9.7-7.9 17.6-17.6 17.6-9.7 0-17.5-7.9-17.5-17.6 0-9.7 7.8-17.5 17.5-17.5 9.7 0 17.6 7.8 17.6 17.5z"/>
				<g id="&lt;Group&gt;">
					<path id="&lt;Path&gt;" class="s5" d="m606.2 237.7l-104.5 17.7"/>
					<path id="&lt;Path&gt;" class="s5" d="m509 245.5l-7 9.9 9.9 7"/>
					<path id="&lt;Path&gt;" class="s5" d="m587.9 232.2l-6.9 9.9 9.8 6.9"/>
					<path id="&lt;Path&gt;" class="s5" d="m596.4 230.8l-7 9.8 9.8 7"/>
					<path id="&lt;Path&gt;" class="s5" d="m604.8 229.3l-7 9.9 9.9 7"/>
				</g>
			</g>
			<g id="&lt;Group&gt;">
				<path id="&lt;Path&gt;" class="s4" d="m351.5 219.2c-3.2-3.7-8-5.9-13.2-5.6-7.2 0.3-14.1 5.2-14.7 11.8-7 2-12.3 8.5-11.9 16.1 0.2 4.7 2.4 8.8 5.8 11.6-0.9 2.4-0.8 5.3 0.8 8.1 0.8 1.5 2.1 2.7 3.7 3.5 2.8 1.3 5.5 1.2 7.8 0.3l0.2 13.2c0 0.7 1 1.1 1.4 0.4l6.9-9.9c6.4 2.6 12.1-1.3 12.6-7.1 1.7 0.8 3.6 1.3 5.6 1.2 5.9-0.3 10.5-4.9 11-10.6 3.2 1.9 7.4 2.3 11.5 0.2 2.3-1.1 4.1-3.1 5-5.5 3.2-8.5-3-16.3-10.8-16.2"/>
				<g id="&lt;Group&gt;">
					<path id="&lt;Path&gt;" class="s4" d="m325.9 246.8c-3.7 0.2-6.9 2.6-8.2 5.9"/>
					<path id="&lt;Path&gt;" class="s4" d="m367.4 251.2c-0.3-6.3-5.7-11.3-12.1-11"/>
					<path id="&lt;Path&gt;" class="s4" d="m378.2 231.7c-3.9-1.6-7.7-1.1-10.6 0.6"/>
					<path id="&lt;Path&gt;" class="s4" d="m373.2 230c-0.4-7.7-6.9-13.6-14.6-13.2-7.6 0.3-13.5 6.8-13.2 14.5"/>
					<path id="&lt;Path&gt;" class="s4" d="m361.1 221.9c-5.1 0.3-9.1 4.6-8.8 9.7"/>
					<path id="&lt;Path&gt;" class="s4" d="m353 257.1c4.5 0.5 8.5-2.8 8.9-7.3"/>
					<path id="&lt;Path&gt;" class="s4" d="m378.8 245.1c1.3-3.8-0.7-8-4.6-9.4"/>
					<path id="&lt;Path&gt;" class="s4" d="m322.4 255.9c1 3 4.1 4.6 7.1 3.6"/>
					<path id="&lt;Path&gt;" class="s4" d="m335.9 227.7c-3.4-2.4-7.7-3.2-12.1-2.3"/>
					<path id="&lt;Path&gt;" class="s4" d="m321.2 232.5c-2.3 1.7-3.8 4.3-3.8 7.4"/>
				</g>
				<path id="&lt;Path&gt;" class="s10" d=""/>
			</g>
			<g id="&lt;Group&gt;">
				<path id="&lt;Path&gt;" class="s2" d="m705.5 269.6h12.2c1.4 0 2.5-1.1 2.5-2.5v-40.5c0-1.4-1.1-2.6-2.5-2.6h-58.7c-1.5 0-2.6 1.2-2.6 2.6v7.6"/>
				<path id="&lt;Path&gt;" class="s4" d="m704 235.4h-51.9c-1.4 0-2.5 1.2-2.5 2.6v35.9c0 1.4 1.1 2.6 2.5 2.6h3.6c0.4 0 0.7 0.3 0.7 0.6v14c0 0.5 0.6 0.8 1.1 0.5l18.7-15q0.2-0.1 0.4-0.1h27.4c1.4 0 2.6-1.2 2.6-2.6v-35.9c0-1.4-1.2-2.6-2.6-2.6z"/>
				<path id="&lt;Path&gt;" class="s4" d="m654.9 247.5h41.9"/>
				<path id="&lt;Path&gt;" class="s4" d="m654.9 253.8h41.9"/>
				<path id="&lt;Path&gt;" class="s4" d="m654.9 261.2h41.9"/>
			</g>
			<g id="&lt;Group&gt;">
				<path id="&lt;Path&gt;" class="s11" d="m805 251.4c-1.3 0-2.5 0.2-3.6 0.7-1.1-6.5-6.9-11.5-13.8-11.5-6.8 0-12.6 5-13.8 11.5-1-0.5-2.2-0.7-3.5-0.7-4.8 0-8.7 4.3-8.7 9.1 0 4.7 3.9 9 8.7 9 3.1 0 31.6 0 34.7 0 4.8 0 8.7-4.3 8.7-9 0-4.8-3.9-9.1-8.7-9.1z"/>
				<path id="&lt;Path&gt;" class="s4" d="m794.8 237.4c-2.2-1-4.6-1.6-7.2-1.6-1.9 0-3.9 0.4-5.6 1"/>
				<path id="&lt;Path&gt;" class="s4" d="m799 233.2c-3.3-2.1-7.2-3.2-11.4-3.2-3.7 0-7.2 0.9-10.3 2.6"/>
				<path id="&lt;Path&gt;" class="s4" d="m802.8 228.5c-4.3-3.1-9.5-4.9-15.2-4.9-5 0-9.7 1.4-13.7 4"/>
			</g>
			<g id="&lt;Group&gt;">
				<g id="&lt;Group&gt;">
					<path id="&lt;Compound Path&gt;" fill-rule="evenodd" class="s11" d="m174.5 248.5l2.5 5.2c0.3 0.6 0.4 1-0.3 1.3l-1.8 0.8c-0.5 0.3-0.8 1-0.7 1.5 0.5 2.3 0.7 5 0.4 7.4 0 0.6 0.3 1.2 0.9 1.3l2.1 0.7c0.7 0.2 1.1 1 0.8 1.6l-1.9 5.4c-0.2 0.6-0.9 1-1.6 0.8l-2.4-0.9c-0.6-0.2-1.2 0.1-1.5 0.5-1.4 2.2-3.4 4.3-5.4 5.8-0.4 0.4-0.8 1.1-0.5 1.7l1.1 2.3c0.3 0.7 0.4 1-0.3 1.3l-5.2 2.5c-0.6 0.3-1.5 0.3-1.8-0.3l-1.1-2.4c-0.2-0.6-0.7-0.9-1.3-0.7q-3.6 0.7-7.3 0.2c-0.6 0-1.2 0.3-1.4 0.9l-0.7 2.2c-0.2 0.7-0.9 1.1-1.6 0.8l-5.3-1.8c-0.6-0.3-1-1-0.7-1.7l0.8-2.2c0.2-0.6 0-1.2-0.5-1.5-2.1-1.4-4-3.2-5.4-5-0.4-0.4-1.1-0.7-1.6-0.4l-2.3 1.1c-0.7 0.3-1.5 0.3-1.8-0.3l-2.5-5.3c-0.3-0.6 0.2-1.4 0.8-1.6l2.4-1.2c0.5-0.2 0.8-0.8 0.6-1.4-0.7-2.9-0.7-5.3-0.4-7.7 0.1-0.6-0.2-1.1-0.8-1.3l-2.7-1.1c-0.6-0.2-1-0.9-0.7-1.6l1.9-5.3c0.2-0.7 0.9-1 1.6-0.8l2.5 0.9c0.5 0.2 1.1 0 1.5-0.5 1.3-2 2.8-3.8 4.7-5.3 0.5-0.4 0.5-0.9 0.3-1.5l-1.2-2.5c-0.3-0.6-0.1-1.9 0.6-2.2l5.2-2.5c0.6-0.3 1.1 0.7 1.4 1.3l1.2 2.5c0.3 0.5 1.1 0.7 1.6 0.6 2.5-0.5 5.3-0.8 7.8-0.5 0.6 0 1.1-0.3 1.3-0.9l1-2.6c0.2-0.7 1-1 1.6-0.8l5.4 2c0.7 0.2 1 0.9 0.8 1.6l-0.9 2.7c-0.2 0.5 0 1.1 0.5 1.5 2.1 1.2 3.9 2.8 5.7 5.1 0.4 0.5 1 0.7 1.6 0.4l1.8-0.9c0.6-0.3 0.9 0.1 1.2 0.8zm-11.7 8.3c-2.9-6.1-10.2-8.6-16.2-5.8-6.1 2.9-8.7 10.2-5.8 16.2 2.8 6.1 10.1 8.7 16.2 5.8 6.1-2.8 8.6-10.1 5.8-16.2z"/>
				</g>
			</g>
			<path id="&lt;Path&gt;" class="s0" d="m160.6 642.4h589.7"/>
			<g id="&lt;Group&gt;">
				<g id="&lt;Group&gt;">
					<g id="&lt;Group&gt;">
						<g id="&lt;Group&gt;">
							<g id="&lt;Group&gt;">
								<path id="&lt;Compound Path&gt;" fill-rule="evenodd" class="s4" d="m806.8 458.8c-4.9 0.6-9.6-1.1-13-4.3-2.9-2.6-4.9-6.3-5.3-10.5-0.5-4.7 0.8-9 3.6-12.3l-9.2-93.6 23.8-2.5 9.2 93.8c3.6 3.9 5.5 7.5 5.9 11.2 0.4 4.4-0.9 8.7-3.7 12.2-2.8 3.4-6.8 5.6-11.3 6zm2.3-12.5q0.1-0.1 0.2-0.2 0.3-0.6 0.5-1.1 0.1-0.2 0.1-0.3 0 0 0 0c0.2-0.8 0.3-1.6 0.2-2.6q0 0 0-0.1c-0.2-2.2-2.6-4.2-4.8-4.3-2.3 0-4.6 1.3-5.4 3.6q0 0 0 0.1 0.2-0.4 0.4-0.8c-0.6 1.1-0.9 2.3-0.7 3.6 0.3 1.2 1.1 2.6 2.2 3.3 2.2 1.4 5.8 1.3 7.3-1.2zm-8.8-5.7q0 0 0 0 0 0 0 0z"/>
							</g>
							<path id="&lt;Path&gt;" class="s4" d="m790.1 337.8l9.2 93.6"/>
							<path id="&lt;Path&gt;" class="s4" d="m799.4 336.7l9.2 93.7"/>
							<g id="&lt;Group&gt;">
								<path id="&lt;Compound Path&gt;" class="s4" d="m814.5 325.6c-1.1-11-10-19.5-21-20.1l-3.7-0.2 9.6 18-14.3 7.6-9.8-18.3-1.9 2.9c-2.9 4.3-4.1 9.6-3.6 14.7 0.6 5.6 3.1 10.6 7.2 14.3q0.5 0.4 1 0.9c4.6 3.8 10.5 5.5 16.5 4.9 12.3-1.3 21.3-12.4 20-24.7z"/>
							</g>
						</g>
						<g id="&lt;Group&gt;">
							<g id="&lt;Group&gt;">
								<path id="&lt;Compound Path&gt;" class="s2" d="m839.1 356.9l6.7-0.3 8.8 77.6-6.6 0.2z"/>
							</g>
							<g id="&lt;Group&gt;">
								<path id="&lt;Compound Path&gt;" class="s4" d="m824.8 302.9q0.2-0.3 0.5-0.6c2.1-2.7 5.2-4.4 8.6-4.8 7.2-0.8 13.7 4.5 14.5 11.9l9.1 75.4-24.8 3.3-10.3-75.6c-0.4-3.4 0.5-6.8 2.4-9.6z"/>
							</g>
							<g id="&lt;Group&gt;">
								<path id="&lt;Compound Path&gt;" class="s4" d="m835 424l10.8-13.5 6 0.2 11.9 9.9-3.5 31.4-16.5 1.7z"/>
							</g>
						</g>
					</g>
				</g>
				<path id="&lt;Path&gt;" class="s7" d="m838.6 367.9l-8.9-69.3"/>
				<path id="&lt;Path&gt;" class="s7" d="m847.2 366.9l-8.9-69.3"/>
				<path id="&lt;Path&gt;" class="s7" d="m856.7 378.7l-25.3 2.4"/>
				<path id="&lt;Path&gt;" class="s4" d="m856.9 443.4l1.4-17.3"/>
			</g>
			<path id="&lt;Path&gt;" class="s2" d="m838.6 645.4c1.9 8.2-6.5 12.4-6.5 25"/>
			<g id="&lt;Group&gt;">
				<path id="&lt;Path&gt;" class="s11" d="m747.1 676.2h-584.6c-1.1 0-1.9-0.9-1.9-2v-29.8c0-1.1 0.8-2 1.9-2h584.6c1 0 1.9 0.9 1.9 2v29.8c0 1.1-0.9 2-1.9 2z"/>
				<path id="&lt;Path&gt;" class="s12" d="m746 684v-44"/>
				<path id="&lt;Path&gt;" class="s2" d="m206.4 740.9h-10.6c-26.5 0-48-21.5-48-48v-41.8c0-6.2 5-11.2 11.2-11.2h47.4c26.5 0 48 21.5 48 48v5c0 26.5-21.5 48-48 48z"/>
				<path id="&lt;Path&gt;" class="s1" d="m201.2 717.5h-2.8c-14.6 0-26.5-11.9-26.5-26.6v-2.7c0-14.7 11.9-26.5 26.5-26.5h2.8c14.6 0 26.5 11.8 26.5 26.5v2.7c0 14.7-11.9 26.6-26.5 26.6z"/>
				<g id="&lt;Group&gt;">
					<g id="&lt;Group&gt;">
						<path id="&lt;Path&gt;" class="s0" d="m277.6 658.8v-16.2"/>
						<path id="&lt;Path&gt;" class="s3" d="m292.4 653.8v-11.2"/>
						<path id="&lt;Path&gt;" class="s3" d="m307.1 653.8v-11.2"/>
						<path id="&lt;Path&gt;" class="s3" d="m321.8 653.8v-11.2"/>
						<path id="&lt;Path&gt;" class="s3" d="m336.6 653.8v-11.2"/>
					</g>
					<g id="&lt;Group&gt;">
						<path id="&lt;Path&gt;" class="s0" d="m351.3 658.8v-16.2"/>
						<path id="&lt;Path&gt;" class="s3" d="m366 653.8v-11.2"/>
						<path id="&lt;Path&gt;" class="s3" d="m380.7 653.8v-11.2"/>
						<path id="&lt;Path&gt;" class="s3" d="m395.5 653.8v-11.2"/>
						<path id="&lt;Path&gt;" class="s3" d="m410.2 653.8v-11.2"/>
					</g>
					<g id="&lt;Group&gt;">
						<path id="&lt;Path&gt;" class="s0" d="m424.9 658.8v-16.2"/>
						<path id="&lt;Path&gt;" class="s3" d="m439.7 653.8v-11.2"/>
						<path id="&lt;Path&gt;" class="s3" d="m454.4 653.8v-11.2"/>
						<path id="&lt;Path&gt;" class="s3" d="m469.1 653.8v-11.2"/>
						<path id="&lt;Path&gt;" class="s3" d="m483.9 653.8v-11.2"/>
					</g>
					<g id="&lt;Group&gt;">
						<path id="&lt;Path&gt;" class="s0" d="m498.6 658.8v-16.2"/>
						<path id="&lt;Path&gt;" class="s3" d="m513.3 653.8v-11.2"/>
						<path id="&lt;Path&gt;" class="s3" d="m528 653.8v-11.2"/>
						<path id="&lt;Path&gt;" class="s3" d="m542.8 653.8v-11.2"/>
						<path id="&lt;Path&gt;" class="s3" d="m557.5 653.8v-11.2"/>
					</g>
					<g id="&lt;Group&gt;">
						<path id="&lt;Path&gt;" class="s0" d="m572.2 658.8v-16.2"/>
						<path id="&lt;Path&gt;" class="s3" d="m587 653.8v-11.2"/>
						<path id="&lt;Path&gt;" class="s3" d="m601.7 653.8v-11.2"/>
						<path id="&lt;Path&gt;" class="s3" d="m616.4 653.8v-11.2"/>
						<path id="&lt;Path&gt;" class="s3" d="m631.2 653.8v-11.2"/>
					</g>
					<g id="&lt;Group&gt;">
						<path id="&lt;Path&gt;" class="s0" d="m645.9 658.8v-16.2"/>
						<path id="&lt;Path&gt;" class="s3" d="m660.6 653.8v-11.2"/>
						<path id="&lt;Path&gt;" class="s3" d="m675.3 653.8v-11.2"/>
						<path id="&lt;Path&gt;" class="s3" d="m690.1 653.8v-11.2"/>
						<path id="&lt;Path&gt;" class="s3" d="m704.8 653.8v-11.2"/>
					</g>
				</g>
				<path id="&lt;Path&gt;" class="s2" d="m220 690.4c0 11.2-9.1 20.2-20.2 20.2-11.2 0-20.3-9-20.3-20.2 0-11.2 9.1-20.2 20.3-20.2 11.1 0 20.2 9 20.2 20.2z"/>
			</g>
			<g id="&lt;Group&gt;">
				<path id="&lt;Path&gt;" class="s8" d="m86.1 727c5-0.4 10.1 0 15 1.4q3.3-12.5 6.1-25.2c1.2-5.5 0.5-10.6-5.9-11.7-3.9-0.7-7.3 0.6-9.5 3.8-5.1 7.8-5.4 22.9-5.7 31.7z"/>
				<path id="&lt;Path&gt;" class="s1" d="m125.4 736c-2 4.9-7.9 3.9-12.3 3.9q-9.6 0-19.2-0.6c-4.4-0.4-11.1-1.6-9.8-7.3q0.8-3.8 1.7-7.5c0.1-0.6 0.3-1.4 0.9-1.5 0.2-0.1 0.4 0 0.7 0 2.2 0.4 4.8 1.4 7.1 0.8 2.2-0.5 4.5-1.4 6.6-2.2 0.5-0.2 1.1-0.4 1.6-0.2 1.3 0.3 1.7 1.8 2.7 2.6 1.1 0.9 2.6 1.4 3.9 1.9 4 1.3 7.9 2.3 12 2.9 3.1 0.4 5.3 3.2 4.4 6.3q-0.1 0.5-0.3 0.9z"/>
				<path id="&lt;Path&gt;" class="s8" d="m185.2 629.5c5-0.5 10.1 0 15 1.3q3.3-12.5 6.1-25.1c1.3-5.6 0.5-10.7-5.9-11.8-3.8-0.6-7.3 0.7-9.4 3.9-5.2 7.8-5.5 22.8-5.8 31.7z"/>
				<path id="&lt;Path&gt;" class="s1" d="m224 637.6c-0.1 1.5-0.9 2.9-2.5 3.8-2.7 1.4-6.3 1-9.2 1q-9.7 0-19.3-0.7c-4.4-0.3-11.1-1.6-9.8-7.3q0.8-3.7 1.7-7.5c0.1-0.6 0.3-1.3 0.9-1.4 0.2-0.1 0.5-0.1 0.7 0 3.9 0.6 7.2 2.5 11 0.6 1.3-0.7 2.5-1.6 3.9-1.7 1.7-0.1 2.7 2.2 4 3.2 1.8 1.4 3.9 2.2 6 2.9q3.8 1.2 7.8 2c0.8 0.1 1.7 0.3 2.4 0.7 1.8 1 2.6 2.7 2.4 4.4z"/>
				<path id="&lt;Path&gt;" class="s2" d="m144.9 552c2.9 1 5.8 2.4 7.7 2.8 13.5 3 28.1 1.4 40.4-4.8 5.6-2.8 10.8-6.5 14.2-11.7 3-4.4 7-11.6 4.3-17-2.8-5.5-12.2-7.1-17.4-8.8q-10.5-3.4-21.2-5.7c-16.1-3.6-31.8 1.4-47.8-2.2-11-2.5-21.5-6.1-31.5-11.3 0.2 0-7.8 21.5-8.3 23.5-2.5 10-3.2 20.7 0.4 30.5 1 2.5 2.2 5 2.6 7.7 0.5 2.8 0 5.8-0.4 8.7-2.1 14.7-1.7 29.8 0.9 44.4 1 5 1.5 10.4 2.8 15.3 1.1 4.1 4.3 7.8 3.2 12.5-0.2 1-0.7 2-1.1 3.1-1.4 3.4-2.2 7.1-2.2 10.9 0 2.4 0.3 4.8 0.1 7.2-0.1 1.9-0.4 3.8-0.8 5.6-3.2 16.3-7.3 31.8-7.6 48.5 0 0.5 30.5 5.6 32.6 3.6 2.8-2.7 3.3-11.2 4.2-14.8q1.9-7.6 3.7-15.2 3.6-15.6 6.8-31.3c3.4-16.4 8-33.6 6.9-50.5-0.8-10.5-1.3-21.1-1.6-31.6-0.1-4.7-3.6-15.6-0.1-19.3 2-2.1 5.6-1.4 9.2-0.1z"/>
				<path id="&lt;Path&gt;" class="s2" d="m219.1 567.1q-0.1-1.2-0.2-2.4c-0.2-2.3 0.2-4.6 0.4-6.9 0.9-9.4-0.1-19.1-3-28.1-1.9-5.6-4.6-10.3-10-13.3-5.2-2.8-12-2.1-16.9 1-5.2 3.2-10.3 9.7-11.4 15.8-1.2 6.9-0.5 14.2-0.4 21.2q0 3.3-0.1 6.7c-0.2 6.5 2.8 11.4 3.5 17.6 0.9 7.3 0.8 15.5 0.5 22.9 0 1.1-0.2 3.2-0.5 5.8-0.1 1 0.7 1.9 1.7 1.8 6.5-0.2 28.3-0.1 34.8 0.3 0.8 0.1 1.6-0.6 1.7-1.5l1.8-18.6c0.4-4.4 1-9.1 0.1-13.5-0.6-2.9-1.5-5.9-2-8.8z"/>
				<path id="&lt;Path&gt;" class="s2" d="m103 447.9c0.9-3.2 2-6.3 3.2-9.5 2.8-7.2 6.2-14.5 11.5-20.3 10.4-11.5 28.9-14.6 38.5-0.2 5.1 7.7 3.1 18.7 1.9 27.2q-3.7 25.6-7.3 51.2c-1 6.9-2.9 12.8-10.2 14-5.9 1.1-11.8 2.1-17.8 2.8-6.7 0.8-22.3 4.9-26.6-2.1-5-8.3-2.3-16.4-0.6-25.3 1.6-8.8 2.8-17.9 4.9-26.6 0.7-3.5 1.3-6.9 2.3-10.3q0.1-0.4 0.2-0.9z"/>
				<path id="&lt;Path&gt;" class="s8" d="m145.5 509.5q1.7 0.9 3.4 1.9c7.6 4.1 15.3 7.8 23.3 11.1 6.2 2.7 12.2 6.7 19 7.9 6 1 13.7 0.4 18.1-4.4 1.2-1.3 2.1-3 1.8-4.7-0.4-1.7-2.4-3.1-3.9-2.2-0.4 0.2-0.8 0.6-1.1 0.9-1.6 1.3-3.8 1.6-5.8 1.5-2-0.1-4-0.6-6.1-0.4-0.7 0.1-1.4 0.3-2.1 0.1-0.8-0.2-1.4-0.7-2-1.2-4.7-3.8-10-7.5-13.7-12.2-1.6-2.1-2.8-4.4-4.3-6.6-2.3-3.4-5.3-6.4-8.9-8.6-6.9-4.4-9.3-10.5-12.7-17.8-1.1-2.2-2.1-4.4-2.7-6.8-0.8-3.1-0.7-6.3-1.2-9.4-0.7-4.5-2.4-8.7-4.4-12.8-1.7-3.7-3.7-7.4-6.7-10.2-3-2.7-7.2-4.5-11.2-3.9-5.1 0.9-8.8 5.4-10.3 10.3-1.5 4.8-1 10.1-0.4 15.1 0.6 4.9 1.3 9.8 3.6 14.2 2.2 4.1 5.4 7.6 7.7 11.7 2.2 3.9 3.4 8.1 5.3 12.2 3.1 6.4 9.1 10.7 15.3 14.3z"/>
				<path id="&lt;Path&gt;" class="s8" d="m192.5 340.3q0.9-1.6 1.6-3.3c1-2.5 1.7-5.5 5.4-4.7 2.7 0.6 4 3.8 4 6.6 0.1 3.4-1.2 6.4-2.3 9.5-1.2 3.1-1.3 6.9-1.9 10.3-0.8 4-1.8 8.1-4.3 11.3-1.9 2.4-4.5 4.3-6 6.9-1 1.6-1.5 3.4-1.9 5.2-1.7 6.2-2.4 13-4.7 19.2-2.5 6.5-5.7 12.8-9.8 18.4-2.8 3.8-6 7.9-10.5 9.9-1.9 0.8-4 1.1-6 1.3-2.7 0.3-5.7 0.1-7.7-1.7-3.6-3.1-3.8-9.4-2.9-13.6 1.3-5.9 3.9-11.5 7.5-16.3 2.5-3.4 5.2-6.6 7.8-9.8 3.1-3.8 5.6-8.1 8.9-11.9 1.4-1.5 2.9-3.1 3.8-5 0.8-1.7 1.1-3.5 1.5-5.3 1.4-5.4 4-10.4 7.6-14.6 1.7-2 3.7-3.7 5.3-5.7 1.7-2 3.3-4.3 4.6-6.7z"/>
				<path id="&lt;Path&gt;" class="s2" d="m161.6 408.4q-0.3-0.3-0.5-0.6c-2.9-3.2-5.9-7.3-9.1-10-3 5-5.7 10.3-8.6 15.4-1 1.8-2 3.6-2.6 5.5-2.6 8.2 1.3 18.6 5.7 25.4 1.5 2.4 4.8 6.7 8.1 5.4 3.2-1.2 5.2-7.9 6.6-10.7 1.8-3.4 3.6-6.8 5.8-9.9 1.4-1.9 3.1-3.5 4.4-5.4 1.2-1.6 1.5-2.1 0.3-4-2.6-4-6.9-7.5-10.1-11.1z"/>
				<path id="&lt;Path&gt;" class="s8" d="m129.8 401.6c1-3.1 1.8-6.3 2.1-9.8 0.4-3.9 0.4-7.9 1.8-11.5 2.2-5.6 10-9.3 15.8-7.9 8.1 1.9 5.6 15.5 4.9 21.6-0.4 3-2.6 5.1-4.2 7.5-2.6 4.1-3 10.8-3.4 15.6 0 0.5-0.1 1.1-0.4 1.6-0.4 0.5-1.1 0.6-1.7 0.8-3.3 0.7-6.6 1.4-9.9 1.4-4.4-0.1-11.3-1.6-9.3-7.3 1.5-4.2 3.1-8 4.3-12z"/>
				<path id="&lt;Compound Path&gt;" class="s2" d="m152.1 362.9q-0.2-0.1-0.3-0.1c-2.9 0-5.6 1.9-7.3 4.3-0.3 0.4-0.5 0.8-0.9 1-0.4 0.2-0.9 0.3-1.4 0.3-3.4 0.2-6.7 1.8-9 4.4-2.3 2.4-3.3 5.5-3.6 8.8-0.1 1.9-0.1 3.5 0.4 5.3 0.3 1.3 0.2 2.2 0.4 3.3 0.5 3.4 3.4 3.1 5.1 0.3 1-1.5 1.6-3.3 2.3-5 0.8-2.2 1.9-4.5 3.8-5.9 1.8-1.3 4.1-1.8 6.3-2.1 2.2-0.4 4.5-0.7 6.4-1.9 5-3.2 4.5-12.4-2.2-12.7z"/>
				<path id="&lt;Path&gt;" class="s8" d="m140.4 384.6c-0.9-1.8-3-2.4-4.7-1.5-2 1-3.1 3.8-2.7 6 0.4 1.9 2.3 3.2 4.1 2.2 0.7-0.3 1.5-0.7 2.1-1.3 1.3-1.4 2.1-3.6 1.2-5.4z"/>
				<path id="&lt;Path&gt;" class="s2" d="m151.2 391.2c-0.8 0.2-1.3 0.8-2.2 0.4-0.8-0.4-1.5 0.8-0.7 1.2 1.1 0.6 3.1 0.8 3.7-0.6 0.2-0.5-0.2-1.1-0.8-1z"/>
				<path id="&lt;Path&gt;" class="s2" d="m137.2 386.8c-0.2-1-1.6-0.5-1.5 0.4 0.1 0.8 0.1 1.5 0.6 2.1 0.4 0.3 0.9 0.1 1-0.3 0.3-0.7 0-1.5-0.1-2.2z"/>
				<path id="&lt;Path&gt;" class="s2" d="m139.7 497.8c-0.6-0.3-1.4-0.2-2-0.6-0.7-0.4-1-1.1-1-1.9 0-1-1.3-1.1-1.6-0.2-0.5 1.2 0.1 2.6 1 3.6 0.8 0.8 2.5 1.7 3.6 0.8 0.6-0.4 0.8-1.3 0-1.7z"/>
				<path id="&lt;Path&gt;" class="s9" d="m134.5 548.9c-2.3-2.4-5.4-3.9-8.8-4.6-2.5-0.4-5-0.1-7.6 0.2q-0.3 0.8-0.7 1.5c1.9-0.2 3.8-0.5 5.7-0.4 4.3 0.2 7.3 2 10.7 4.3 0.6 0.4 1.2-0.5 0.7-1z"/>
				<path id="&lt;Path&gt;" class="s2" d="m108.9 443c-0.5 8.6 1.5 17.2 3.5 25.6 3.8-3.6 9-5.3 14.1-6.8q7.9-2.5 15.9-4.9c1.5-0.5 3.2-1.2 3.6-2.7 0.2-0.5 0.1-1.1 0.1-1.6-1.2-11.6-8-22.4-17.7-28.9-5.8-3.9-9-4.9-13.5 1.1-3.8 5.2-5.7 11.8-6 18.2z"/>
				<path id="&lt;Path&gt;" class="s9" d="m134.8 429.5c-0.3-0.2-0.7 0.3-0.4 0.6 3 3.2 5.6 6.5 7.4 10.5 2.1 4.5 3.2 9.2 4.9 13.7 0.2 0.4 0.7 0.3 0.6-0.1-1.4-8.7-5.2-19.2-12.5-24.7z"/>
				<path id="&lt;Path&gt;" class="s2" d="m151.4 397.7c-0.4 0.1-1 0.2-1.3 0.2-0.3-0.1-0.6 0.4-0.3 0.5 0.7 0.4 1.3 0.5 1.9-0.1 0.3-0.2 0-0.6-0.3-0.6z"/>
				<g id="&lt;Group&gt;">
					<path id="&lt;Path&gt;" class="s4" d="m203.4 520.5h-6.2c-1.8 0-3.3-1.5-3.3-3.3v-211.9c0-1.8 1.5-3.3 3.3-3.3h6.2c1.8 0 3.3 1.5 3.3 3.3v211.9c0 1.8-1.5 3.3-3.3 3.3z"/>
					<g id="&lt;Group&gt;">
						<path id="&lt;Path&gt;" class="s0" d="m203.7 492.8h-10.3"/>
						<path id="&lt;Path&gt;" class="s3" d="m200.5 483.6h-7.1"/>
						<path id="&lt;Path&gt;" class="s3" d="m200.5 474.3h-7.1"/>
						<path id="&lt;Path&gt;" class="s3" d="m200.5 465h-7.1"/>
						<path id="&lt;Path&gt;" class="s3" d="m200.5 455.8h-7.1"/>
					</g>
					<g id="&lt;Group&gt;">
						<path id="&lt;Path&gt;" class="s0" d="m203.7 446.5h-10.3"/>
						<path id="&lt;Path&gt;" class="s3" d="m200.5 437.3h-7.1"/>
						<path id="&lt;Path&gt;" class="s3" d="m200.5 428h-7.1"/>
						<path id="&lt;Path&gt;" class="s3" d="m200.5 418.7h-7.1"/>
						<path id="&lt;Path&gt;" class="s3" d="m200.5 409.5h-7.1"/>
					</g>
					<g id="&lt;Group&gt;">
						<path id="&lt;Path&gt;" class="s0" d="m203.7 400.2h-10.3"/>
						<path id="&lt;Path&gt;" class="s3" d="m200.5 391h-7.1"/>
						<path id="&lt;Path&gt;" class="s3" d="m200.5 381.7h-7.1"/>
						<path id="&lt;Path&gt;" class="s3" d="m200.5 372.4h-7.1"/>
						<path id="&lt;Path&gt;" class="s3" d="m200.5 363.2h-7.1"/>
					</g>
					<g id="&lt;Group&gt;">
						<path id="&lt;Path&gt;" class="s0" d="m203.7 353.9h-10.3"/>
						<path id="&lt;Path&gt;" class="s3" d="m200.5 344.7h-7.1"/>
						<path id="&lt;Path&gt;" class="s3" d="m200.5 335.4h-7.1"/>
						<path id="&lt;Path&gt;" class="s3" d="m200.5 326.1h-7.1"/>
						<path id="&lt;Path&gt;" class="s3" d="m200.5 316.9h-7.1"/>
					</g>
				</g>
				<path id="&lt;Path&gt;" class="s8" d="m203.6 329.1q0.5 2.9 1.4 5.7c0.1 0.4 0.3 0.8 0.5 1.1 0.5 0.6 1.3 0.7 2 0.6 0.7-0.2 1.3-0.6 1.8-1.1 2-1.9 2.8-4.9 2.8-7.6 0-2.5-1.2-7.7-4.7-6.3-2.9 1.1-4.3 4.8-3.8 7.6z"/>
				<path id="&lt;Path&gt;" class="s2" d="m188.2 371c-0.6 0.3-1.1 0.6-1.7 0.8-1 0.3-0.6 1.9 0.5 1.6 0.9-0.2 1.6-0.6 2.1-1.4 0.4-0.6-0.3-1.2-0.9-1z"/>
			</g>
			<g id="&lt;Group&gt;">
				<path id="&lt;Path&gt;" class="s1" d="m912.8 752.3q0.1 0.1 0.3 0.2c0.5 0.3 1 0.7 1.4 1.2 0.4 0.6 0.6 1.3 0.7 2 1 3.8 1.4 7.9 0.4 11.8-1.2 4.3-3.1 7.5-0.8 12 3.1 6.1 8.1 2.1 10.6-2 2.6-4.3 2.9-9.2 5-14 2.5-5.4 4.5-10.9 6-16.7 0.3-1.1 0.6-2.4 0.1-3.5-0.4-0.8-1.2-1.4-2-1.9-5.9-3.7-12.5-5.8-19-8.1-2.5-0.9-4.2-2.1-6.6-0.6-2.9 1.8-6.6 8.6-5.4 12 0.7 2 2.3 3.5 4.1 4.6 1.7 1.1 3.5 1.9 5.2 3z"/>
				<path id="&lt;Path&gt;" class="s2" d="m910 726.9c-10.5-5.9-26.9-12.4-29.5-13.3-4.1-1.6-9.1-1.8-13.6-3 0.9-2.9 2.9-5.4 4.5-8 2.9-4.7 2.8-9.1 3.6-14.3 0.7-4.3 3.5-7.6 5.9-11.2 5.4-8 8.1-17.5 8.3-27.2 0.2-9.9-2.3-20-7-28.7-8-14.8-28.1-34.4-46.4-22.8-15.8 10-1 33.2-1.4 47-0.2 7.9-4.7 15.1-6.3 22.9-1.6 8.1 0.1 16.1-0.7 24.1-0.4 4-1.6 7.8-2.9 11.6-2.9 6.1-4.1 14.8-4.3 19.5-0.1 1.9 0 3.9 0.6 5.7 1 3.5 3.7 6.2 6.5 8.5 7.1 5.6 19.2 8.3 27.8 11.6 15.4 6.1 31.8 10.4 47.7 15.6 6.9-9 12.4-19.2 16-30 0.6-1.9-3.3-4.8-8.8-8z"/>
				<path id="&lt;Path&gt;" class="s2" d="m770.8 546.1c-4.5 1-9.1 4.5-12.4 6.9-5.2 3.9-9.5 8.8-14.3 13.2q-0.4 0.3-0.8 0.7-0.4 0.5-0.8 1 0.4 1 0.8 2c6.3 9.9 13.1 19.4 19.9 28.9 8.8-9.9 14.5-22.7 15.8-36 0.2-1.8 0-4.3-0.4-7q-0.4-1-0.9-1.9c-1.8-3-4.6-5.3-6.9-7.8z"/>
				<path id="&lt;Path&gt;" class="s2" d="m823.2 635.4c4.7-2.9 9.4-6 14.2-8.8 11.1-6.7 21.6-14.5 32.7-21.4-11.1-16.8-24.2-32.4-35-49.4-2.6-4.1-5.2-8.3-8.3-12-4.3-5.1-9.6-9.5-15.8-11.6-6.2-2.2-14.3-0.7-20.7 0.3-7.2 1.1-14.4 4.1-19.6 9.4-1.8 1.9-3.4 4-4.9 6.1-7.6 10.4-9.8 19.5-3.2 31.1 3.5 6.2 7.9 11.9 12.3 17.6 2.7 3.4 29 33.6 34.4 45.9q6.9-3.6 13.9-7.2z"/>
				<path id="&lt;Path&gt;" class="s2" d="m869.9 605.3c-2.4 1.7-5.1 3-7.8 4.3q-21.9 10.7-44.1 20.8"/>
				<path id="&lt;Path&gt;" class="s8" d="m817.4 558.1c11.3 0.1 21.4 12.1 20.9 22.9-0.2 5.3-1.9 10.4-2.8 15.7-1.5 9.3-1.5 18.3-5.2 27.1-3.3 8-9.2 14.9-16.7 19.2-4.2 2.4-8.9 4-12.9 6.8-2.4 1.7-4.5 3.8-7 5.3-5.6 3.4-13.2 4.8-19.4 6.9-3.1 1-6.2 2.1-8.9 3.9-2.7 1.8-5 4.3-7.9 5.9-4 2.3-9 3.2-13.6 3.1-2.1-0.1-4.2-0.3-6-1.5-1.6-1-4-2.2-4.4-4.3-0.4-2 1.3-4.2 2.9-5.1 2.9-1.5 6.2-0.5 9.2-1.5 3.3-1.2 3.7-3.8 3.3-6.9 0.4-0.2 0.9-0.3 1.3-0.1 4.1 1.5 8.4-1.9 11.4-4.2 2.8-2 5.3-4.4 7.7-6.9 4.7-4.9 9-10.3 14.2-14.7 3.1-2.6 7.3-3.9 9.2-7.5 2.4-4.8 1.3-10.8 4-15.6 1.1-2 2.8-3.7 3.5-5.9 0.7-2.3 0.3-4.7 0.1-7.1-0.6-5.8-0.4-11.8 0.8-17.5 1-5.2 2.9-10.5 6.7-14.3 2.7-2.6 6.1-3.7 9.6-3.7z"/>
				<path id="&lt;Path&gt;" class="s2" d="m798.7 588.6c2.1 0.7 4.8 0.1 7.4 0 11.5-0.4 22.9-2.5 33.8-6.2 1.4-0.5-3.9-20.8-4.6-22.8-2.7-8-7.1-12.5-12.2-18.7-4.9-6.1-12.9-10.7-20.4-8.7-7.2 1.9-11.9 9.2-13 16.5-1.1 7.3 0.6 14.7 2.3 21.9 1.1 4.5 1.5 11.6 3.8 15.7 0.8 1.3 1.8 2 2.9 2.3z"/>
				<g id="&lt;Group&gt;">
					<path id="&lt;Path&gt;" class="s2" d="m748.7 537.1c0.4 0.6 0.4 0.4 0.6 0-0.5-4.1-4.5-9.3-2.2-11.2 0.1-0.2-0.5-2.6-0.9-2.3-0.7 0.6-2.1 1.9-2.2 2.7-0.2 2.6 3 8.2 4.7 10.8z"/>
					<path id="&lt;Path&gt;" class="s8" d="m780.4 543.3c-1.7-3.6-4.4-7-6.4-10.2-3-4.8-4.9-14.2-11.4-15.5-2.5-0.5-6 1.2-8.3 2.2-2.3 1.2-7.5 1.4-8.6 3.6-0.9 1.6 0.2 6.4 1.9 10.6q-0.1 0-0.1 0c-1.1 0.6-1.5 2.2-0.8 3.6 0.7 1.5 2.1 2.2 3.2 1.7q0.3-0.1 0.5-0.2c0.5 0.7 2.1 3 2.7 3.6 2.9 3.1 6.2 4.6 9.6 4 0.2-0.1 3 5.6 3.3 6.1 1 1.7 1.8 3.4 3.9 3.9 2 0.5 4.1 0.7 6.2 0.4 2-0.4 4-1.5 5.1-3.3 1.1-1.6 1.3-3.7 0.9-5.6-0.3-1.7-0.9-3.3-1.7-4.9z"/>
					<path id="&lt;Path&gt;" class="s2" d="m737.5 517.2q0.1-0.1 0.1-0.2c1.2-2.1 3.2-3.8 5.5-4.7 1-0.5 2.2-0.8 3.3-0.5 1.2 0.3 2.2 1.2 2.2 2.4 5.9-5.4 13.7-4.1 18.1 2.6 0.9 1.4 7.3 11.2 3.5 12.1-0.4 0.1-0.8-0.1-1.1-0.2-1.8-1-3.1-2.7-4.5-4.3-1.6-1.9-4.1-4.5-6.9-3.6-3.8 1.2-6.4 4-9.9 5.7-2.8 1.4-6.5 0.5-8.9-1.3-2.9-2.1-3.1-5-1.4-8z"/>
				</g>
				<path id="&lt;Path&gt;" class="s8" d="m769.4 524.6c-0.8-0.6-1.9-0.5-2.7 0-0.9 0.1-1.5 1.6-1.5 2.5 0.2 1.3 0.9 2.7 2.2 3.2 3.4 1.2 4.5-4.1 2-5.7z"/>
				<path id="&lt;Path&gt;" class="s2" d="m760.4 539.2c-0.7 0.3-1.4 0.7-1.9 1.3-0.3 0.4 0.2 0.9 0.5 0.7 0.6-0.1 1.2-0.4 1.8-0.6 0.9-0.4 0.5-1.8-0.4-1.4z"/>
				<path id="&lt;Path&gt;" class="s2" d="m764.9 544.6c-0.8 0.3-1.4 1.1-2.1 1.6-0.5 0.3-0.2 1.2 0.4 1 1-0.4 2.1-0.9 2.5-2 0.2-0.5-0.4-0.8-0.8-0.6z"/>
				<path id="&lt;Path&gt;" class="s2" d="m769.3 528c-0.2-0.3-0.3-0.5-0.5-0.7-0.6-0.6-1.7 0.2-1.2 0.9 0.1 0.3 0.3 0.5 0.5 0.7 0.2 0.2 0.5 0.3 0.7 0.2 0.3-0.1 0.4-0.1 0.5-0.3 0.1-0.3 0.1-0.6 0-0.8z"/>
				<path id="&lt;Path&gt;" class="s2" d="m749.4 536.7c0.1-0.9-1.2-1.1-1.3-0.2-0.1 0.8 0.1 1.4 0.8 1.6 0.3 0.1 0.6-0.2 0.6-0.5 0-0.2-0.1-0.6-0.1-0.9z"/>
				<path id="&lt;Path&gt;" class="s2" d="m819.6 630c-0.7 1-2 1.7-2.5 2.9-0.4 0.7 0.2 1.3 0.9 1.2 1.5-0.2 2.7-1.9 3.4-3 0.8-1.2-1-2.2-1.8-1.1z"/>
				<path id="&lt;Path&gt;" class="s2" d="m728.5 620.1c-0.7 0.6-1.3 1.1-2.3 1.2-0.9 0-0.9 1.4 0 1.4 1.5 0.1 2.9-0.6 3.5-2 0.2-0.7-0.7-1.1-1.2-0.6z"/>
				<path id="&lt;Path&gt;" class="s9" d="m833.8 641.2c-0.2-0.3-0.8-0.3-0.9 0.1-0.4 2.2 0.2 3.4 0.6 5.6 0.8 4-0.2 7.4-1.7 11.1-1.8 4.3-4.1 8.5-3.8 13.3 0 0.7 1 0.9 1.2 0.2 2.2-10 10.8-20 4.6-30.3z"/>
				<path id="&lt;Path&gt;" class="s9" d="m800.8 561.9c0.1-0.4-0.4-0.7-0.6-0.3-3.6 8.1-2.2 18.8 0.1 27.1 0.1 0.3 0.6 0.3 0.5-0.1-0.8-9.5-2-17.2 0-26.7z"/>
				<path id="&lt;Path&gt;" class="s9" d="m770.5 589.7c-2.4-3.2-4.2-6.6-5.5-10.4-0.2-0.5-1-0.3-0.8 0.2 0.9 4 2.9 7.7 5.6 10.7 0.3 0.4 1-0.1 0.7-0.5z"/>
				<path id="&lt;Path&gt;" class="s9" d="m835.7 567.4c-0.2-0.4-0.9-0.1-0.8 0.3 1.7 4.7 3.1 9.3 3.8 14.2 0.1 0.4 0.7 0.3 0.7-0.1-0.5-5-1.5-9.9-3.7-14.4z"/>
			</g>
			<path id="&lt;Path&gt;" class="s8" d="m669.8 644.4q-0.9 2.4-1.8 4.9c-0.2 0.6-0.4 1.2-1 1.5-0.8 0.4-1.8-0.3-2.1-1.2-0.3-0.9-0.1-1.8 0.1-2.7 0.3-1.9 0.4-3.8 0.9-5.7 0.5-1.9 1.5-3.7 3.1-4.8 2.3-1.4 4.9-1 4.4 1.5-0.4 1.8-2.9 4.4-3.6 6.5z"/>
			<path id="&lt;Path&gt;" class="s0" d="m83.8 741h570.2"/>
			<path id="&lt;Path&gt;" class="s3" d="m318.8 750h202"/>
			<path id="&lt;Path&gt;" class="s0" d="m641.8 783.3h297"/>
			<path id="&lt;Path&gt;" class="s0" d="m517.8 783.3h97"/>
		</g>
	</g>
</svg>